<?xml version="1.0" standalone="no"?>
<!DOCTYPE svg PUBLIC "-//W3C//DTD SVG 1.1//EN" "http://www.w3.org/Graphics/SVG/1.1/DTD/svg11.dtd" >
<svg>
<metadata>
Created by FontForge 20090622 at Wed Jun 10 15:40:18 2015
 By deploy user
Copyright &#194;&#169; 2011 ParaType Inc., ParaType Ltd. All rights reserved.
</metadata>
<defs>
<font id="Circe-Bold" horiz-adv-x="596" >
  <font-face 
    font-family="Circe Bold"
    font-weight="700"
    font-stretch="normal"
    units-per-em="1000"
    panose-1="2 11 6 2 2 2 3 2 2 3"
    ascent="773"
    descent="-227"
    x-height="450"
    cap-height="700"
    bbox="-512 -423 1676 1012"
    underline-thickness="50"
    underline-position="-50"
    unicode-range="U+0020-U+FB02"
  />
<missing-glyph horiz-adv-x="212" 
 />
    <glyph glyph-name="uniF350.var.accented" unicode="&#xf350;`" horiz-adv-x="611" 
d="M6 0l245 526h109l245 -526h-131l-49 108h-247l-49 -108h-123zM302 383l-73 -161h145zM432 688l-149 -118l-55 64l133 142z" />
    <glyph glyph-name="uniF355.var.accented" unicode="&#xf355;`" horiz-adv-x="498" 
d="M78 0v525h359v-115h-237v-88h213v-115h-213v-92h246v-115h-368zM378 688l-149 -118l-55 64l133 142z" />
    <glyph glyph-name="uniF358.var.accented" unicode="&#xf358;`" horiz-adv-x="663" 
d="M185 0h-107v525h122v-330l278 330h107v-525h-122v330zM453 688l-149 -118l-55 64l133 142z" />
    <glyph glyph-name="uniF35E.var.accented" unicode="&#xf35e;`" horiz-adv-x="659" 
d="M35 261q0 116 82 193.5t212 77.5t212.5 -74t82.5 -197q0 -119 -83.5 -195.5t-211.5 -76.5q-129 0 -211.5 74t-82.5 198zM165 261q0 -67 47.5 -112t116.5 -45q78 0 121.5 44t43.5 113q0 70 -47 113t-118 43q-72 0 -118 -43t-46 -113zM463 688l-149 -118l-55 64l133 142z
" />
    <glyph glyph-name="uniF363.var.accented" unicode="&#xf363;`" horiz-adv-x="567" 
d="M560 525l-198 -397q-62 -128 -169 -128q-45 0 -78 23l43 104q21 -12 41 -12q28 0 45 30l9 14l-244 366h154l152 -245l119 245h126zM423 688l-149 -118l-55 64l133 142z" />
    <glyph glyph-name="uniF36B.var.accented" unicode="&#xf36b;`" horiz-adv-x="736" 
d="M535 0v525h123v-525h-123zM247 250q-28 0 -47 -2v-133q17 -2 46 -2q95 0 95 71q0 66 -94 66zM200 525v-163q23 3 57 3q106 0 160 -47.5t54 -130.5q0 -86 -63.5 -137.5t-176.5 -51.5q-33 0 -86 1t-67 1v525h122zM483 688l-149 -118l-55 64l133 142z" />
    <glyph glyph-name="uniF36D.var.accented" unicode="&#xf36d;`" horiz-adv-x="562" 
d="M154 210v115h240q-33 94 -167 94q-98 0 -156 -38l-47 92q81 61 208 61q129 0 212 -75t83 -197q0 -126 -84 -198.5t-227 -72.5q-60 0 -114 16t-83 39l52 103q65 -43 160 -43q139 0 167 104h-244zM363 688l-149 -118l-55 64l133 142z" />
    <glyph glyph-name="uniF36E.var.accented" unicode="&#xf36e;`" horiz-adv-x="877" 
d="M78 0v525h122v-200h83q19 94 90.5 151.5t182.5 57.5q133 0 209.5 -73t76.5 -198q0 -122 -77.5 -197t-208.5 -75q-109 0 -183.5 58.5t-90.5 160.5h-82v-210h-122zM408 263q0 -68 42 -112.5t110 -44.5q74 0 113 44t39 113q0 71 -41.5 113.5t-110.5 42.5q-68 0 -110 -43
t-42 -113zM544 688l-149 -118l-55 64l133 142z" />
    <glyph glyph-name="uniF36F.var.accented" unicode="&#xf36f;`" horiz-adv-x="559" 
d="M358 0v160h-92l-110 -160h-145l136 187q-89 51 -89 147q0 82 60 138t180 56q38 0 104 -1.5t79 -1.5v-525h-123zM256 275h102v135q-33 3 -72 3q-47 0 -72.5 -19t-25.5 -52q0 -27 20 -44.5t48 -22.5zM403 688l-149 -118l-55 64l133 142z" />
    <glyph glyph-name="uniF371.var.accented" unicode="&#xf371;`" horiz-adv-x="498" 
d="M89 645q0 27 18.5 43.5t46.5 16.5q22 0 40 -17t18 -43q0 -28 -17.5 -45t-40.5 -17q-28 0 -46.5 16.5t-18.5 45.5zM308 645q0 27 19 43.5t45 16.5q24 0 42 -16.5t18 -43.5q0 -29 -18 -45.5t-42 -16.5q-27 0 -45.5 16.5t-18.5 45.5zM78 0v525h359v-115h-237v-88h213v-115
h-213v-92h246v-115h-368zM403 778l-149 -118l-55 64l133 142z" />
    <glyph glyph-name="afii10017.var.accented" unicode="&#x410;`" horiz-adv-x="715" 
d="M7 0l296 702h108l296 -702h-131l-73 179h-299l-73 -179h-124zM354 543l-103 -249h205zM529 812l-225 -81l-32 69l214 111z" />
    <glyph glyph-name="afii10022.var.accented" unicode="&#x415;`" horiz-adv-x="575" 
d="M97 0v700h405v-115h-282v-174h252v-115h-252v-181h292v-115h-415zM489 812l-225 -81l-32 69l214 111z" />
    <glyph glyph-name="afii10026.var.accented" unicode="&#x418;`" horiz-adv-x="792" 
d="M205 0h-108v700h123v-498l367 498h108v-700h-123v497zM579 812l-225 -81l-32 69l214 111z" />
    <glyph glyph-name="afii10032.var.accented" unicode="&#x41e;`" horiz-adv-x="819" 
d="M45 350q0 154 102.5 257.5t261.5 103.5q158 0 261.5 -100t103.5 -261q0 -157 -104 -259t-261 -102q-158 0 -261 100t-103 261zM175 350q0 -105 67.5 -175.5t166.5 -70.5q108 0 171.5 70t63.5 176q0 108 -67.5 177t-167.5 69q-101 0 -167.5 -69t-66.5 -177zM589 812
l-225 -81l-32 69l214 111z" />
    <glyph glyph-name="afii10037.var.accented" unicode="&#x423;`" horiz-adv-x="683" 
d="M671 700l-238 -537q-37 -83 -82 -123t-108 -40q-61 0 -96 28l43 104q25 -17 52 -17q46 0 69 49l10 24l-309 512h139l229 -391l167 391h124zM537 812l-225 -81l-32 69l214 111z" />
    <glyph glyph-name="afii10045.var.accented" unicode="&#x42b;`" horiz-adv-x="864" 
d="M645 0v700h122v-700h-122zM288 350q-21 0 -68 -5v-229l66 -3q138 0 138 123q0 56 -35.5 85t-100.5 29zM220 700v-240q39 5 78 5q127 0 191.5 -60t64.5 -166q0 -112 -75 -176.5t-208 -64.5q-36 0 -96.5 1t-77.5 1v700h123zM594 812l-225 -81l-32 69l214 111z" />
    <glyph glyph-name="afii10047.var.accented" unicode="&#x42d;`" horiz-adv-x="673" 
d="M187 299v115h312q-18 87 -85 134.5t-167 47.5q-92 0 -164 -54l-48 92q90 77 241 77q156 0 254 -99t98 -261q0 -165 -99 -263.5t-267 -98.5q-71 0 -134 20.5t-101 52.5l53 103q79 -61 180 -61q94 0 160.5 50.5t81.5 144.5h-315zM459 812l-225 -81l-32 69l214 111z" />
    <glyph glyph-name="afii10048.var.accented" unicode="&#x42e;`" horiz-adv-x="1081" 
d="M97 0v700h123v-286h119q20 131 112.5 214t229.5 83q157 0 256 -99.5t99 -261.5q0 -158 -99.5 -259.5t-255.5 -101.5q-135 0 -231.5 85t-112.5 225h-117v-299h-123zM464 350q0 -104 64 -175t157 -71q106 0 163.5 69t57.5 177q0 109 -61 177.5t-160 68.5q-95 0 -158 -69
t-63 -177zM739 812l-225 -81l-32 69l214 111z" />
    <glyph glyph-name="afii10049.var.accented" unicode="&#x42f;`" horiz-adv-x="633" 
d="M413 0v242h-101l-157 -242h-138l179 267q-54 27 -88.5 76.5t-34.5 117.5q0 105 72 173.5t216 68.5q23 0 88.5 -1.5t85.5 -1.5v-700h-122zM301 357h112v228q-51 3 -77 3q-60 0 -96.5 -33t-36.5 -86q0 -45 28.5 -74.5t69.5 -37.5zM537 812l-225 -81l-32 69l214 111z" />
    <glyph glyph-name="afii10023.var.accented" unicode="&#x401;`" horiz-adv-x="575" 
d="M97 824q0 29 17 46t42 17q22 0 38.5 -17.5t16.5 -45.5q0 -31 -16.5 -49t-38.5 -18q-26 0 -42.5 18t-16.5 49zM399 824q0 28 17.5 45.5t42.5 17.5q22 0 38 -17.5t16 -45.5q0 -31 -16 -49t-38 -18q-25 0 -42.5 18t-17.5 49zM401 884l-133 -144l-41 19l75 152zM97 0v700h405
v-115h-282v-174h252v-115h-252v-181h292v-115h-415z" />
    <glyph glyph-name="afii10065.var.accented" unicode="&#x430;`" horiz-adv-x="463" 
d="M99 334l-29 84q73 43 159 43q96 0 138 -47t42 -140v-274h-100v52q-41 -58 -133 -58q-63 0 -102 37t-39 101q0 71 46 108.5t118 37.5q62 0 102 -29q2 59 -17 87.5t-67 28.5q-50 0 -118 -31zM214 91q58 0 87 41v46q-29 22 -79 22q-31 0 -51.5 -14.5t-20.5 -41.5
q0 -25 18 -39t46 -14zM370 662l-126 -145l-69 48l105 165z" />
    <glyph glyph-name="afii10070.var.accented" unicode="&#x435;`" horiz-adv-x="516" 
d="M417 126l33 -81q-66 -56 -172 -56q-109 0 -175.5 65t-66.5 171q0 101 65 168.5t173 67.5q89 0 151 -58.5t62 -150.5q0 -38 -7 -62h-325q7 -50 44 -77.5t91 -27.5q76 0 127 41zM269 365q-98 0 -118 -98h221q1 42 -27 70t-76 28zM397 662l-126 -145l-69 48l105 165z" />
    <glyph glyph-name="afii10074.var.accented" unicode="&#x438;`" horiz-adv-x="568" 
d="M179 0h-115v450h115v-285l210 285h115v-450h-115v285zM406 662l-126 -145l-69 48l105 165z" />
    <glyph glyph-name="afii10080.var.accented" unicode="&#x43e;`" horiz-adv-x="562" 
d="M36 225q0 103 67.5 169.5t177.5 66.5t177.5 -66.5t67.5 -169.5t-67.5 -169.5t-177.5 -66.5t-177.5 66.5t-67.5 169.5zM159 225q0 -56 34.5 -92.5t87.5 -36.5q54 0 88.5 35.5t34.5 93.5q0 56 -35 92t-88 36q-52 0 -87 -35.5t-35 -92.5zM411 662l-126 -145l-69 48l105 165z
" />
    <glyph glyph-name="afii10085.var.accented" unicode="&#x443;`" horiz-adv-x="503" 
d="M498 450l-177 -450q-48 -117 -85.5 -158.5t-88.5 -41.5q-49 0 -97 35l37 87q27 -16 47 -16q41 0 69 70l10 24l-208 450h138l105 -246q6 -15 22 -65q8 44 16 66l81 245h131zM382 662l-126 -145l-69 48l105 165z" />
    <glyph glyph-name="afii10093.var.accented" unicode="&#x44b;`" horiz-adv-x="676" 
d="M64 0v450h115v-123h56q106 0 152 -44t46 -112q0 -73 -50 -122t-157 -49h-162zM497 0v450h115v-450h-115zM225 235h-46v-135h45q87 0 87 67q0 68 -86 68zM442 662l-126 -145l-69 48l105 165z" />
    <glyph glyph-name="afii10095.var.accented" unicode="&#x44d;`" horiz-adv-x="496" 
d="M140 189v77h200q-11 47 -46 71t-83 24q-65 0 -129 -47l-47 80q30 33 79 50t95 17q115 0 183 -64t68 -172q0 -102 -64.5 -169t-175.5 -67q-122 0 -187 67l54 76q49 -43 126 -43q52 0 85.5 25.5t42.5 74.5h-201zM344 662l-126 -145l-69 48l105 165z" />
    <glyph glyph-name="afii10096.var.accented" unicode="&#x44e;`" horiz-adv-x="772" 
d="M64 0v450h122v-163h80q18 79 78.5 126.5t149.5 47.5q108 0 175 -66.5t67 -169.5q0 -102 -67.5 -169t-174.5 -67q-92 0 -153 50t-77 133h-78v-172h-122zM389 225q0 -56 30 -88.5t78 -32.5q49 0 79 32.5t30 88.5t-29.5 88.5t-79.5 32.5q-48 0 -78 -33t-30 -88zM519 662
l-126 -145l-69 48l105 165z" />
    <glyph glyph-name="afii10097.var.accented" unicode="&#x44f;`" horiz-adv-x="495" 
d="M284 450h147v-450h-115v135h-64l-93 -135h-132l120 160q-34 12 -60.5 45.5t-26.5 84.5q0 71 54.5 115.5t169.5 44.5zM183 282q0 -27 22.5 -44.5t50.5 -17.5h60v130h-51q-39 0 -60.5 -20t-21.5 -48zM403 662l-126 -145l-69 48l105 165z" />
    <glyph glyph-name="afii10071.var.accented" unicode="&#x451;`" horiz-adv-x="516" 
d="M72 588q0 24 15.5 38.5t37.5 14.5q20 0 35 -14.5t15 -38.5q0 -26 -15 -41t-35 -15q-23 0 -38 15t-15 41zM361 588q0 24 15.5 38.5t37.5 14.5q20 0 35 -14.5t15 -38.5q0 -26 -14.5 -41t-35.5 -15q-23 0 -38 15t-15 41zM374 662l-126 -145l-53 38l104 164zM417 126l33 -81
q-66 -56 -172 -56q-109 0 -175.5 65t-66.5 171q0 101 65 168.5t173 67.5q89 0 151 -58.5t62 -150.5q0 -38 -7 -62h-325q7 -50 44 -77.5t91 -27.5q76 0 127 41zM269 365q-98 0 -118 -98h221q1 42 -27 70t-76 28z" />
    <glyph glyph-name="fi" unicode="fi" horiz-adv-x="530" 
d="M362 0v342h-178v-342h-115v506q0 103 53.5 154t146.5 51q133 0 193 -94l-83 -65q-32 51 -89 51q-54 0 -80 -24.5t-26 -82.5v-46h293v-450h-115z" />
    <glyph glyph-name="fl" unicode="fl" horiz-adv-x="570" 
d="M334 124v455q-34 24 -71 24q-79 0 -79 -89v-64h81v-108h-81v-342h-115v523q0 92 42 140t118 48q71 0 118 -30h102v-510q0 -73 39 -73q23 0 48 18l24 -88q-47 -38 -119 -38q-107 0 -107 134z" />
    <glyph glyph-name=".notdef" horiz-adv-x="212" 
 />
    <glyph glyph-name=".null" horiz-adv-x="0" 
 />
    <glyph glyph-name="nonmarkingreturn" horiz-adv-x="333" 
 />
    <glyph glyph-name="space" unicode=" " horiz-adv-x="212" 
 />
    <glyph glyph-name="exclam" unicode="!" horiz-adv-x="310" 
d="M94 242v458h122v-458h-122zM78 75q0 28 22 51t58 23q31 0 52 -23t21 -51q0 -32 -21 -56t-52 -24q-36 0 -58 24t-22 56z" />
    <glyph glyph-name="quotedbl" unicode="&#x22;" horiz-adv-x="432" 
d="M249 459v241h115v-241h-115zM67 459v241h115v-241h-115z" />
    <glyph glyph-name="numbersign" unicode="#" horiz-adv-x="724" 
d="M313 21l59 159h-153l-71 -191l-89 31l59 160h-78v100h115l52 140h-167v100h205l71 191l89 -32l-59 -159h151l71 191l89 -31l-59 -160h86v-100h-123l-52 -140h175v-100h-212l-70 -191zM308 420l-52 -140h153l51 140h-152z" />
    <glyph glyph-name="dollar" unicode="$" 
d="M398 186q0 28 -17.5 49.5t-45.5 37t-61.5 30t-67.5 33t-62 41t-45.5 59t-17.5 82.5q0 67 45 119t120 68v85h115v-83q95 -15 146 -71l-66 -92q-54 52 -124 52q-52 0 -79 -20.5t-27 -56.5q0 -34 23.5 -59t58.5 -39.5t76.5 -34.5t76.5 -41.5t58.5 -62t23.5 -95.5
q0 -74 -46 -125.5t-121 -66.5v-95h-115v94q-59 10 -106.5 37t-66.5 68l70 84q29 -38 73.5 -58.5t87.5 -20.5q44 0 69 21.5t25 60.5z" />
    <glyph glyph-name="percent" unicode="%" horiz-adv-x="911" 
d="M170 35l505 676l65 -49l-504 -673zM37 531q0 80 55.5 129t141.5 49t141.5 -49t55.5 -129t-55.5 -129.5t-141.5 -49.5t-141.5 49.5t-55.5 129.5zM145 531q0 -39 25.5 -62.5t63.5 -23.5q40 0 65 23.5t25 62.5q0 38 -25.5 61.5t-64.5 23.5q-38 0 -63.5 -23.5t-25.5 -61.5z
M479 169q0 80 55.5 129t141.5 49t141.5 -49t55.5 -129t-55.5 -129.5t-141.5 -49.5t-141.5 49.5t-55.5 129.5zM587 169q0 -39 25.5 -62.5t63.5 -23.5q40 0 65 23.5t25 62.5q0 38 -25.5 61.5t-64.5 23.5q-38 0 -63.5 -23.5t-25.5 -61.5z" />
    <glyph glyph-name="ampersand" unicode="&#x26;" horiz-adv-x="753" 
d="M560 0l-59 73q-76 -84 -206 -84q-105 0 -170 56.5t-65 144.5q0 79 39.5 130.5t115.5 104.5q-80 38 -80 134q0 69 49 110.5t117 41.5t117 -41.5t49 -110.5q0 -46 -26.5 -84.5t-63.5 -50.5l136 -177q47 92 47 203h114q0 -172 -92 -295l121 -155h-143zM299 104q88 0 133 61
l-142 194q-53 -43 -76.5 -75.5t-23.5 -70.5q0 -46 31.5 -77.5t77.5 -31.5zM242 559q0 -24 17 -41t42 -17t42 17t17 41q0 25 -17.5 42t-41.5 17q-25 0 -42 -17t-17 -42z" />
    <glyph glyph-name="quotesingle" unicode="'" horiz-adv-x="250" 
d="M67 459v241h115v-241h-115z" />
    <glyph glyph-name="parenleft" unicode="(" horiz-adv-x="315" 
d="M315 -143l-73 -63q-202 174 -202 431q0 248 203 431l71 -63q-82 -81 -120.5 -169.5t-38.5 -198.5q0 -107 43.5 -203.5t116.5 -164.5z" />
    <glyph glyph-name="parenright" unicode=")" horiz-adv-x="315" 
d="M73 -206l-73 63q73 68 116.5 164.5t43.5 203.5q0 110 -38.5 198.5t-120.5 169.5l71 63q203 -183 203 -431q0 -257 -202 -431z" />
    <glyph glyph-name="asterisk" unicode="*" horiz-adv-x="540" 
d="M199 638q0 30 21.5 51t51.5 21q29 0 50.5 -21.5t21.5 -50.5q0 -30 -21 -51.5t-51 -21.5q-31 0 -52 21t-21 52zM197 332q0 30 21 52t51 22q29 0 50.5 -22t21.5 -52q0 -29 -21.5 -50t-50.5 -21q-30 0 -51 21t-21 50zM339 568q0 29 22 51t51 22q30 0 51.5 -22t21.5 -51
q0 -30 -21.5 -51t-51.5 -21t-51.5 21t-21.5 51zM339 405q0 30 22 52t51 22q30 0 51.5 -22t21.5 -52q0 -29 -21.5 -50t-51.5 -21q-29 0 -51 21t-22 50zM55 405q0 30 21.5 52t50.5 22q31 0 52.5 -22t21.5 -52q0 -29 -21.5 -50t-52.5 -21q-29 0 -50.5 21t-21.5 50zM55 568
q0 29 21.5 51t50.5 22q31 0 52.5 -21.5t21.5 -51.5t-21.5 -51t-52.5 -21q-29 0 -50.5 21t-21.5 51z" />
    <glyph glyph-name="plus" unicode="+" 
d="M66 310v100h177v181h108v-181h179v-100h-179v-183h-108v183h-177z" />
    <glyph glyph-name="comma" unicode="," horiz-adv-x="252" 
d="M47 64q0 32 20.5 52.5t56.5 20.5q40 0 64 -31.5t24 -80.5q0 -63 -33.5 -108t-93.5 -62l-31 54q44 16 61 53q15 31 9 46q-6 -8 -26 -8t-35.5 18.5t-15.5 45.5z" />
    <glyph glyph-name="hyphen" unicode="-" horiz-adv-x="376" 
d="M62 220v107h252v-107h-252z" />
    <glyph glyph-name="period" unicode="." horiz-adv-x="243" 
d="M45 75q0 28 22 51t58 23q31 0 52 -23t21 -51q0 -32 -21 -56t-52 -24q-36 0 -58 24t-22 56z" />
    <glyph glyph-name="slash" unicode="/" horiz-adv-x="359" 
d="M-30 -175l330 886l89 -33l-330 -886z" />
    <glyph glyph-name="zero" unicode="0" horiz-adv-x="554" 
d="M42 350q0 166 59 262t176 96q116 0 175 -96t59 -262q0 -167 -58 -262.5t-174 -95.5q-117 0 -177 96t-60 262zM165 350q0 -251 114 -251q59 0 84.5 59.5t25.5 191.5q0 131 -26 190.5t-86 59.5q-59 0 -85.5 -61t-26.5 -189z" />
    <glyph glyph-name="one" unicode="1" horiz-adv-x="389" 
d="M22 568l179 134h83v-702h-115v538l-86 -65z" />
    <glyph glyph-name="two" unicode="2" horiz-adv-x="524" 
d="M37 0v92q127 125 167 171q124 142 124 239q0 43 -23 67t-66 24q-37 0 -63.5 -24.5t-37.5 -69.5l-96 43q14 77 70.5 121.5t139.5 44.5q94 0 146 -54t52 -129q0 -55 -23 -114.5t-53 -103.5t-72.5 -90t-66 -67.5t-49.5 -42.5h291v-107h-440z" />
    <glyph glyph-name="three" unicode="3" horiz-adv-x="530" 
d="M244 -11q-78 0 -136 31.5t-86 86.5l65 84q59 -87 150 -87q54 0 83.5 27.5t29.5 69.5q0 48 -34.5 73.5t-95.5 25.5h-50v115h45q45 0 76.5 26.5t31.5 69.5q0 39 -22.5 62t-66.5 23q-81 0 -132 -75l-64 81q58 109 207 109q91 0 146 -48t55 -130q0 -119 -107 -166v-3
q64 -11 99 -57t35 -110q0 -95 -65 -151.5t-164 -56.5z" />
    <glyph glyph-name="four" unicode="4" horiz-adv-x="565" 
d="M335 0v162h-320v85l270 453h132l-253 -423h171v173h115v-173h90v-115h-90v-162h-115z" />
    <glyph glyph-name="five" unicode="5" horiz-adv-x="514" 
d="M81 328l46 372h331v-115h-230l-20 -139q22 4 40 4q95 0 157.5 -61t62.5 -162q0 -110 -69 -174t-172 -64q-59 0 -116.5 26.5t-88.5 73.5l66 87q22 -32 62 -52t80 -20q50 0 82.5 33t32.5 85q0 54 -40 89t-109 35q-73 0 -115 -18z" />
    <glyph glyph-name="six" unicode="6" horiz-adv-x="559" 
d="M45 248q0 92 32 174.5t83 140t110.5 95.5t118.5 53l47 -87q-90 -27 -159.5 -93t-95.5 -163q47 65 144 65q82 0 139 -60t57 -154q0 -105 -68 -167.5t-158 -62.5q-114 0 -182 75t-68 184zM167 247q0 -62 34 -102.5t95 -40.5q46 0 74.5 31.5t28.5 75.5q0 50 -29.5 82.5
t-83.5 32.5q-43 0 -73 -23t-46 -56z" />
    <glyph glyph-name="seven" unicode="7" horiz-adv-x="497" 
d="M25 585v115h440v-77l-248 -623h-126l236 585h-302z" />
    <glyph glyph-name="eight" unicode="8" horiz-adv-x="600" 
d="M291 417h19q39 0 64.5 27t25.5 63q0 42 -28 65.5t-74 23.5q-45 0 -72 -25t-27 -64q0 -36 26 -63t66 -27zM310 302h-17q-46 0 -79.5 -27t-33.5 -72q0 -43 32 -71t87 -28q60 0 91 27.5t30 71.5q-1 47 -31.5 73t-78.5 26zM300 -11q-105 0 -174 52.5t-69 139.5q0 65 33.5 112
t86.5 65v3q-43 18 -71.5 62.5t-28.5 103.5q0 81 64 132.5t158 51.5q95 0 159.5 -51.5t64.5 -132.5q0 -52 -29 -98t-79 -67v-3q54 -11 90.5 -56.5t36.5 -111.5q0 -94 -68.5 -148t-173.5 -54z" />
    <glyph glyph-name="nine" unicode="9" horiz-adv-x="555" 
d="M510 444q0 -195 -101.5 -315.5t-257.5 -139.5l-38 91q218 44 261 244q-46 -63 -133 -63q-89 0 -150 62t-61 155q0 105 71 169t161 64q115 0 181.5 -74t66.5 -193zM388 445q0 64 -33 107.5t-93 43.5q-47 0 -78.5 -33t-31.5 -77q0 -48 32 -82.5t85 -34.5q83 0 119 76z" />
    <glyph glyph-name="colon" unicode=":" horiz-adv-x="318" 
d="M82 387q0 28 22 51t58 23q31 0 52 -23t21 -51q0 -32 -21 -56t-52 -24q-36 0 -58 24t-22 56zM82 75q0 28 22 51t58 23q31 0 52 -23t21 -51q0 -32 -21 -56t-52 -24q-36 0 -58 24t-22 56z" />
    <glyph glyph-name="semicolon" unicode=";" horiz-adv-x="324" 
d="M82 387q0 28 22 51t58 23q31 0 52 -23t21 -51q0 -32 -21 -56t-52 -24q-36 0 -58 24t-22 56zM83 64q0 32 20.5 52.5t56.5 20.5q40 0 64 -31.5t24 -80.5q0 -63 -33.5 -108t-93.5 -62l-31 54q44 16 61 53q15 31 9 46q-6 -8 -26 -8t-35.5 18.5t-15.5 45.5z" />
    <glyph glyph-name="less" unicode="&#x3c;" 
d="M513 66l-464 271v49l464 269v-124l-306 -169l306 -171v-125z" />
    <glyph glyph-name="equal" unicode="=" 
d="M66 405v100h464v-100h-464zM66 215v100h464v-100h-464z" />
    <glyph glyph-name="greater" unicode="&#x3e;" 
d="M547 337l-465 -271v125l307 171l-307 169v124l465 -269v-49z" />
    <glyph glyph-name="question" unicode="?" horiz-adv-x="473" 
d="M325 510q0 36 -27 61t-67 25q-74 0 -123 -64l-68 77q28 45 80.5 73.5t117.5 28.5q97 0 153.5 -50.5t56.5 -125.5q0 -46 -15 -83t-37 -58.5t-46.5 -43l-45 -38t-31.5 -41t-6 -53.5l-105 -1q-8 49 5.5 84.5t39.5 57.5t52.5 41t46 46.5t19.5 63.5zM140 75q0 28 22 51t57 23
q32 0 53 -23t21 -51q0 -32 -21 -56t-53 -24q-35 0 -57 24t-22 56z" />
    <glyph glyph-name="at" unicode="@" horiz-adv-x="996" 
d="M599 0v36q-50 -47 -124 -47q-101 0 -161 65t-60 171q0 100 73 168t185 68q116 0 202 -54v-300h20q42 0 69.5 45.5t27.5 120.5q0 120 -88.5 202.5t-234.5 82.5t-244.5 -91t-98.5 -242q0 -144 99.5 -238.5t243.5 -94.5q57 0 108 12l5 -107q-59 -13 -113 -13
q-195 0 -323 124.5t-128 316.5q0 186 129 313t322 127q186 0 308 -108.5t122 -283.5q0 -109 -59.5 -189t-164.5 -84h-115zM496 96q60 0 103 47v188q-46 22 -88 22q-63 0 -98.5 -38.5t-35.5 -94.5q0 -58 32.5 -91t86.5 -33z" />
    <glyph glyph-name="A" unicode="A" horiz-adv-x="715" 
d="M7 0l296 702h108l296 -702h-131l-73 179h-299l-73 -179h-124zM354 543l-103 -249h205z" />
    <glyph glyph-name="B" unicode="B" horiz-adv-x="617" 
d="M97 1v697q98 5 202 5q119 0 174.5 -47.5t55.5 -125.5q0 -112 -100 -159v-2q55 -14 89 -55t34 -108q0 -104 -71.5 -157t-188.5 -53q-127 0 -195 5zM307 301h-87v-185q42 -5 81 -5q128 0 128 101q0 44 -32 66.5t-90 22.5zM297 588q-44 0 -77 -3v-177h83q46 0 75 23.5
t29 69.5q0 42 -29.5 64.5t-80.5 22.5z" />
    <glyph glyph-name="C" unicode="C" horiz-adv-x="655" 
d="M583 160l47 -92q-33 -35 -94.5 -57t-129.5 -22q-161 0 -261 99t-100 262q0 157 95 259t263 102q135 0 213 -71l-55 -91q-71 47 -158 47q-99 0 -163.5 -67t-64.5 -179q0 -109 67.5 -177.5t174.5 -68.5q93 0 166 56z" />
    <glyph glyph-name="D" unicode="D" horiz-adv-x="741" 
d="M97 0v700h13q20 0 93 1.5t100 1.5q102 0 179 -27.5t123 -76.5t68.5 -109.5t22.5 -132.5q0 -156 -104.5 -257.5t-296.5 -101.5q-18 0 -83.5 1t-100.5 1h-14zM301 588q-39 0 -81 -3v-470q34 -2 79 -2q125 0 196 66t71 178q0 107 -70.5 169t-194.5 62z" />
    <glyph glyph-name="E" unicode="E" horiz-adv-x="575" 
d="M97 0v700h405v-115h-282v-174h252v-115h-252v-181h292v-115h-415z" />
    <glyph glyph-name="F" unicode="F" horiz-adv-x="537" 
d="M97 0v700h400v-115h-277v-198h247v-115h-247v-272h-123z" />
    <glyph glyph-name="G" unicode="G" horiz-adv-x="727" 
d="M388 262v115h284v-290q-45 -45 -119.5 -71.5t-142.5 -26.5q-170 0 -267.5 98t-97.5 263q0 154 96 257.5t253 103.5q135 0 225 -71l-52 -98q-26 25 -69 39.5t-89 14.5q-104 0 -169 -65.5t-65 -180.5q0 -111 65 -178.5t172 -67.5q40 0 82.5 14.5t62.5 33.5v110h-169z" />
    <glyph glyph-name="H" unicode="H" horiz-adv-x="759" 
d="M540 0v299h-320v-299h-123v700h123v-286h320v286h122v-700h-122z" />
    <glyph glyph-name="I" unicode="I" horiz-adv-x="347" 
d="M112 0v700h123v-700h-123z" />
    <glyph glyph-name="J" unicode="J" horiz-adv-x="390" 
d="M293 700v-535q0 -85 -42.5 -130.5t-126.5 -45.5q-38 0 -71 13t-48 30l40 94q29 -22 62 -22q63 0 63 82v514h123z" />
    <glyph glyph-name="K" unicode="K" horiz-adv-x="672" 
d="M97 0v700h123v-332l276 332h148l-288 -326l306 -374h-156l-286 361v-361h-123z" />
    <glyph glyph-name="L" unicode="L" horiz-adv-x="547" 
d="M97 0v700h123v-585h315v-115h-438z" />
    <glyph glyph-name="M" unicode="M" horiz-adv-x="901" 
d="M97 0v700h124l239 -327l228 327h116v-700h-122v506l-221 -311h-18l-223 308v-503h-123z" />
    <glyph glyph-name="N" unicode="N" horiz-adv-x="792" 
d="M695 0h-98l-385 485v-485h-115v700h98l385 -487v487h115v-700z" />
    <glyph glyph-name="O" unicode="O" horiz-adv-x="819" 
d="M45 350q0 154 102.5 257.5t261.5 103.5q158 0 261.5 -100t103.5 -261q0 -157 -104 -259t-261 -102q-158 0 -261 100t-103 261zM175 350q0 -105 67.5 -175.5t166.5 -70.5q108 0 171.5 70t63.5 176q0 108 -67.5 177t-167.5 69q-101 0 -167.5 -69t-66.5 -177z" />
    <glyph glyph-name="P" unicode="P" horiz-adv-x="612" 
d="M220 0h-123v700q18 0 95.5 1t103.5 1q74 0 128.5 -18.5t84.5 -51t44 -71t14 -84.5q0 -95 -68 -161t-188 -66q-61 0 -91 3v-253zM308 587q-22 0 -88 -2v-215q48 -5 87 -5q58 0 94 28.5t36 84.5q0 109 -129 109z" />
    <glyph glyph-name="Q" unicode="Q" horiz-adv-x="819" 
d="M45 350q0 154 102.5 257.5t261.5 103.5q158 0 261.5 -100t103.5 -261q0 -149 -96 -250l86 -100h-143l-29 33q-80 -44 -183 -44q-158 0 -261 100t-103 261zM175 350q0 -105 67.5 -175.5t166.5 -70.5q56 0 105 22l-59 69l80 72l62 -73q47 66 47 156q0 108 -67.5 177
t-167.5 69q-101 0 -167.5 -69t-66.5 -177z" />
    <glyph glyph-name="R" unicode="R" horiz-adv-x="658" 
d="M220 0h-123v700q22 0 113.5 1t99.5 1q254 0 254 -216q0 -81 -41 -131.5t-94 -68.5l219 -286h-149l-193 262h-86v-262zM304 587q-18 0 -84 -2v-208h80q57 0 95.5 28.5t38.5 79.5q0 102 -130 102z" />
    <glyph glyph-name="S" unicode="S" horiz-adv-x="553" 
d="M378 186q0 28 -17.5 49.5t-45.5 37t-61.5 30t-67.5 33t-62 41t-45.5 59t-17.5 82.5q0 82 59.5 137.5t158.5 55.5q132 0 200 -75l-66 -92q-54 52 -124 52q-45 0 -71.5 -21t-26.5 -56q0 -34 23.5 -59t58.5 -39.5t76.5 -34.5t76.5 -41.5t58.5 -62t23.5 -95.5
q0 -87 -67 -142.5t-167 -55.5q-72 0 -138.5 29.5t-90.5 80.5l70 84q29 -38 73.5 -58.5t87.5 -20.5q45 0 73.5 21.5t28.5 60.5z" />
    <glyph glyph-name="T" unicode="T" horiz-adv-x="597" 
d="M10 585v115h577v-115h-227v-585h-123v585h-227z" />
    <glyph glyph-name="U" unicode="U" horiz-adv-x="751" 
d="M663 700v-410q0 -151 -79 -226t-199 -75q-135 0 -216.5 79.5t-81.5 228.5v403h123v-377q0 -102 43.5 -160.5t131.5 -58.5q156 0 156 211v385h122z" />
    <glyph glyph-name="V" unicode="V" horiz-adv-x="656" 
d="M658 700l-280 -702h-93l-288 702h131l208 -519l199 519h123z" />
    <glyph glyph-name="W" unicode="W" horiz-adv-x="985" 
d="M980 700l-200 -700h-115l-169 506l-166 -506h-116l-209 700h138l141 -499l156 499h122l160 -500l140 500h118z" />
    <glyph glyph-name="X" unicode="X" horiz-adv-x="669" 
d="M650 700l-236 -343l245 -357h-144l-181 263l-180 -263h-144l245 357l-234 343h144l172 -253l169 253h144z" />
    <glyph glyph-name="Y" unicode="Y" horiz-adv-x="629" 
d="M624 700l-249 -408v-292h-123v292l-247 408h140l174 -293l172 293h133z" />
    <glyph glyph-name="Z" unicode="Z" horiz-adv-x="642" 
d="M60 585v115h532v-85l-388 -500h398v-115h-562v84l387 501h-367z" />
    <glyph glyph-name="bracketleft" unicode="[" horiz-adv-x="350" 
d="M60 -200v850h275v-108h-160v-635h160v-107h-275z" />
    <glyph glyph-name="backslash" unicode="\" horiz-adv-x="359" 
d="M58 711l331 -886l-90 -33l-329 886z" />
    <glyph glyph-name="bracketright" unicode="]" horiz-adv-x="350" 
d="M290 650v-850h-275v107h160v635h-160v108h275z" />
    <glyph glyph-name="asciicircum" unicode="^" horiz-adv-x="507" 
d="M30 450l185 258h79l183 -258h-125l-98 143l-100 -143h-124z" />
    <glyph glyph-name="underscore" unicode="_" horiz-adv-x="344" 
d="M0 -200v115h344v-115h-344z" />
    <glyph glyph-name="grave" unicode="`" horiz-adv-x="315" 
d="M187 517l-127 143l91 68l104 -163z" />
    <glyph glyph-name="a" unicode="a" horiz-adv-x="463" 
d="M99 334l-29 84q73 43 159 43q96 0 138 -47t42 -140v-274h-100v52q-41 -58 -133 -58q-63 0 -102 37t-39 101q0 71 46 108.5t118 37.5q62 0 102 -29q2 59 -17 87.5t-67 28.5q-50 0 -118 -31zM214 91q58 0 87 41v46q-29 22 -79 22q-31 0 -51.5 -14.5t-20.5 -41.5
q0 -25 18 -39t46 -14z" />
    <glyph glyph-name="b" unicode="b" horiz-adv-x="548" 
d="M64 39v661h115v-278q50 39 119 39q99 0 156.5 -63.5t57.5 -165.5q0 -111 -69.5 -177t-187.5 -66q-53 0 -105.5 14.5t-85.5 35.5zM271 353q-55 0 -92 -43v-191q36 -23 82 -23q56 0 92 34.5t36 93.5q0 62 -33.5 95.5t-84.5 33.5z" />
    <glyph glyph-name="c" unicode="c" horiz-adv-x="487" 
d="M405 151l54 -84q-28 -38 -75.5 -58t-103.5 -20q-110 0 -177 65t-67 171q0 100 66 168t167 68q120 0 181 -61l-54 -91q-45 44 -112 44q-50 0 -87.5 -35.5t-37.5 -92.5q0 -58 38.5 -93.5t91.5 -35.5q66 0 116 55z" />
    <glyph glyph-name="d" unicode="d" horiz-adv-x="556" 
d="M377 0v47q-52 -55 -129 -55q-96 0 -154 62.5t-58 165.5q0 106 69 173.5t178 67.5q57 0 94 -22v261h115v-700h-115zM272 99q59 0 105 46v181q-43 27 -89 27q-54 0 -91.5 -34.5t-37.5 -94.5q0 -58 32.5 -91.5t80.5 -33.5z" />
    <glyph glyph-name="e" unicode="e" horiz-adv-x="516" 
d="M417 126l33 -81q-66 -56 -172 -56q-109 0 -175.5 65t-66.5 171q0 101 65 168.5t173 67.5q89 0 151 -58.5t62 -150.5q0 -38 -7 -62h-325q7 -50 44 -77.5t91 -27.5q76 0 127 41zM269 365q-98 0 -118 -98h221q1 42 -27 70t-76 28z" />
    <glyph glyph-name="f" unicode="f" horiz-adv-x="325" 
d="M69 0v523q0 92 42 140t118 48q86 0 126 -42l-39 -88q-22 22 -66 22q-66 0 -66 -89v-64h122v-108h-122v-342h-115z" />
    <glyph glyph-name="g" unicode="g" horiz-adv-x="499" 
d="M5 -61q0 54 39.5 89.5t106.5 49.5q-8 14 -8 31q0 19 10 32q-50 20 -78.5 60.5t-28.5 90.5q0 70 53 119.5t139 49.5q65 0 115 -32l136 30l4 -92l-75 -17q11 -28 11 -58q0 -69 -53 -117.5t-138 -48.5h-8q-2 -6 -2 -17q0 -13 6 -23h5q104 0 169 -37t65 -110t-65 -110
t-169 -37q-105 0 -169.5 36.5t-64.5 110.5zM112 -61q0 -26 34 -40.5t93 -14.5q126 0 126 55q0 25 -32.5 40t-93.5 15q-60 0 -93.5 -15t-33.5 -40zM154 292q0 -32 23 -52.5t61 -20.5q37 0 60.5 20t23.5 53t-22.5 54.5t-61.5 21.5q-38 0 -61 -22t-23 -54z" />
    <glyph glyph-name="h" unicode="h" horiz-adv-x="546" 
d="M64 0v700h115v-291q51 49 129 49q87 0 136 -47.5t49 -149.5v-261h-115v246q0 50 -26 77t-74 27q-58 0 -99 -41v-309h-115z" />
    <glyph glyph-name="i" unicode="i" horiz-adv-x="277" 
d="M81 0v450h115v-450h-115zM69 612q0 30 21 48.5t51 18.5q26 0 46 -18.5t20 -48.5q0 -33 -20 -52.5t-46 -19.5q-31 0 -51.5 19.5t-20.5 52.5z" />
    <glyph glyph-name="j" unicode="j" horiz-adv-x="284" 
d="M202 450v-483q0 -175 -141 -175q-74 0 -110 32l31 91q26 -16 51 -16q54 0 54 78v473h115zM76 612q0 30 21 48.5t51 18.5q26 0 46 -18.5t20 -48.5q0 -33 -20 -52.5t-46 -19.5q-31 0 -51.5 19.5t-20.5 52.5z" />
    <glyph glyph-name="k" unicode="k" horiz-adv-x="514" 
d="M487 450l-169 -206l189 -244h-148l-178 235l161 215h145zM64 0v700h115v-700h-115z" />
    <glyph glyph-name="l" unicode="l" horiz-adv-x="299" 
d="M64 124v576h115v-529q0 -73 39 -73q22 0 47 18l24 -88q-47 -38 -119 -38q-106 0 -106 134z" />
    <glyph glyph-name="m" unicode="m" horiz-adv-x="800" 
d="M747 294v-294h-115v264q0 86 -77 86q-66 0 -93 -52q0 -3 0.5 -15.5t0.5 -17.5v-265h-115v272q0 36 -19.5 57t-55.5 21q-62 0 -94 -48v-302h-115v450h115v-50q52 58 141 58q50 0 84 -20t47 -52q55 72 152 72q144 0 144 -164z" />
    <glyph glyph-name="n" unicode="n" horiz-adv-x="546" 
d="M64 0v450h115v-45q49 53 129 53q185 0 185 -194v-264h-115v244q0 106 -101 106q-55 0 -98 -43v-307h-115z" />
    <glyph glyph-name="o" unicode="o" horiz-adv-x="562" 
d="M36 225q0 103 67.5 169.5t177.5 66.5t177.5 -66.5t67.5 -169.5t-67.5 -169.5t-177.5 -66.5t-177.5 66.5t-67.5 169.5zM159 225q0 -56 34.5 -92.5t87.5 -36.5q54 0 88.5 35.5t34.5 93.5q0 56 -35 92t-88 36q-52 0 -87 -35.5t-35 -92.5z" />
    <glyph glyph-name="p" unicode="p" horiz-adv-x="558" 
d="M64 -200v650h115v-43q22 23 59.5 38.5t79.5 15.5q92 0 148 -64t56 -165q0 -105 -66 -174t-172 -69q-67 0 -105 22v-211h-115zM282 353q-59 0 -103 -49v-182q40 -26 95 -26q58 0 92 37.5t34 95.5q0 55 -31 89.5t-87 34.5z" />
    <glyph glyph-name="q" unicode="q" horiz-adv-x="559" 
d="M381 -200v223q-53 -34 -111 -34q-107 0 -170.5 64.5t-63.5 171.5q0 100 73 168t185 68q116 0 202 -54v-607h-115zM285 96q58 0 96 41v194q-46 22 -88 22q-63 0 -98.5 -38.5t-35.5 -94.5q0 -54 34.5 -89t91.5 -35z" />
    <glyph glyph-name="r" unicode="r" horiz-adv-x="354" 
d="M64 0v450h115v-44q38 52 103 52q47 0 70 -17l-41 -108q-29 17 -58 17q-50 0 -74 -48v-302h-115z" />
    <glyph glyph-name="s" unicode="s" horiz-adv-x="444" 
d="M292 127q0 20 -25 32.5t-61 22t-71.5 23t-60.5 43.5t-25 76q0 64 46.5 100.5t118.5 36.5q110 0 171 -57l-43 -82q-55 43 -122 43q-25 0 -40.5 -11.5t-15.5 -27.5q0 -17 18 -29.5t45 -18.5t58.5 -17t58.5 -24t45 -40t18 -64q0 -66 -49.5 -105t-132.5 -39q-58 0 -114.5 25
t-73.5 52l56 75q20 -22 63 -39t77 -17q26 0 42.5 11t16.5 31z" />
    <glyph glyph-name="t" unicode="t" horiz-adv-x="360" 
d="M54 171v404h115v-125h145v-108h-145v-164q0 -81 54 -81q34 0 69 26l35 -89q-54 -44 -133 -44q-74 0 -107 45.5t-33 135.5z" />
    <glyph glyph-name="u" unicode="u" horiz-adv-x="535" 
d="M471 450v-450h-115v55q-54 -66 -144 -66q-70 0 -114 47t-44 139v275h115v-251q0 -103 86 -103q59 0 101 55v299h115z" />
    <glyph glyph-name="v" unicode="v" horiz-adv-x="481" 
d="M483 450l-194 -452h-85l-207 452h137l83 -193q22 -49 34 -102q13 56 33 104l78 191h121z" />
    <glyph glyph-name="w" unicode="w" horiz-adv-x="721" 
d="M716 450l-142 -452h-103l-96 250q-4 10 -9 30t-6 23q-6 -29 -16 -55l-95 -248h-98l-146 452h123l72 -245q4 -12 13 -60q12 47 17 60l84 245h102l87 -244q7 -20 17 -62q4 21 14 65l66 241h116z" />
    <glyph glyph-name="x" unicode="x" horiz-adv-x="522" 
d="M494 450l-150 -215l160 -235h-140l-105 162l-109 -162h-133l160 229l-150 221h141l95 -149l98 149h133z" />
    <glyph glyph-name="y" unicode="y" horiz-adv-x="503" 
d="M498 450l-177 -450q-48 -117 -85.5 -158.5t-88.5 -41.5q-49 0 -97 35l37 87q27 -16 47 -16q41 0 69 70l10 24l-208 450h138l105 -246q6 -15 22 -65q8 44 16 66l81 245h131z" />
    <glyph glyph-name="z" unicode="z" horiz-adv-x="490" 
d="M57 342v108h390v-83l-244 -260h239v-107h-400v83l244 259h-229z" />
    <glyph glyph-name="braceleft" unicode="{" horiz-adv-x="362" 
d="M110 -54v131q0 54 -27 76.5t-63 21.5v100q35 0 62.5 25t27.5 85v112q0 79 36 116t121 37h75v-108h-46q-40 0 -55.5 -18t-15.5 -67v-117q0 -48 -20.5 -78.5t-54.5 -35.5q75 -9 75 -114v-119q0 -46 17.5 -66t59.5 -20h40v-107h-82q-75 0 -112.5 34t-37.5 112z" />
    <glyph glyph-name="bar" unicode="|" horiz-adv-x="340" 
d="M112 0v700h115v-700h-115z" />
    <glyph glyph-name="braceright" unicode="}" horiz-adv-x="362" 
d="M252 77v-131q0 -78 -37.5 -112t-111.5 -34h-83v107h40q42 0 59.5 20t17.5 66v119q0 105 75 114q-34 5 -54.5 35.5t-20.5 78.5v117q0 49 -15.5 67t-55.5 18h-46v108h75q86 0 121.5 -37t35.5 -116v-112q0 -60 27.5 -85t62.5 -25v-100q-36 1 -63 -21.5t-27 -76.5z" />
    <glyph glyph-name="asciitilde" unicode="~" 
d="M92 288l-50 74q70 80 146 80q42 0 118 -34t115 -34q48 0 88 45l45 -79q-70 -66 -134 -66q-41 0 -116 34t-109 34q-49 0 -103 -54z" />
    <glyph glyph-name="uni00A0" unicode="&#xa0;" horiz-adv-x="212" 
 />
    <glyph glyph-name="exclamdown" unicode="&#xa1;" horiz-adv-x="310" 
d="M216 214v-458h-122v458h122zM232 381q0 -28 -22 -51t-58 -23q-31 0 -52 23t-21 51q0 32 21 56t52 24q36 0 58 -24t22 -56z" />
    <glyph glyph-name="cent" unicode="&#xa2;" 
d="M456 151l54 -84q-45 -59 -132 -74v-113h-115v117q-82 18 -129 78.5t-47 149.5q0 84 48.5 147.5t127.5 81.5v110h115v-107q77 -13 123 -57l-54 -91q-45 44 -112 44q-50 0 -87.5 -35.5t-37.5 -92.5q0 -58 38.5 -93.5t91.5 -35.5q66 0 116 55z" />
    <glyph glyph-name="sterling" unicode="&#xa3;" 
d="M68 265v92h80l-17 33.5t-18.5 39t-11.5 37.5t-6 48q0 83 63.5 138t162.5 55q124 0 196 -79l-63 -90q-58 54 -128 54q-44 0 -72.5 -25t-28.5 -62q0 -36 26.5 -86.5t30.5 -62.5h150v-92h-140q-7 -53 -55 -108q13 -3 77 -24.5t99 -21.5q61 0 108 45l51 -90q-68 -70 -161 -70
q-39 0 -114 26t-114 26q-51 0 -106 -55l-46 92q41 48 94 67q46 60 47 113h-104z" />
    <glyph glyph-name="currency" unicode="&#xa4;" 
d="M68 342q0 70 35 125l-77 79l70 70l78 -79q54 32 124 32q69 0 123 -32l81 80l70 -70l-79 -79q36 -58 36 -126q0 -69 -35 -124l77 -76l-71 -71l-77 77q-53 -33 -125 -33t-125 33l-79 -80l-71 71l79 79q-34 55 -34 124zM175 342q0 -54 33.5 -90.5t89.5 -36.5q58 0 90.5 36.5
t32.5 90.5q0 57 -33 92t-90 35q-56 0 -89.5 -35t-33.5 -92z" />
    <glyph glyph-name="yen" unicode="&#xa5;" 
d="M66 292v93h118l-173 315h140l151 -293l150 293h133l-176 -315h121v-93h-172v-82h172v-93h-172v-117h-122v117h-170v93h170v82h-170z" />
    <glyph glyph-name="brokenbar" unicode="&#xa6;" horiz-adv-x="340" 
d="M227 440h-115v260h115v-260zM112 260h115v-260h-115v260z" />
    <glyph glyph-name="section" unicode="&#xa7;" horiz-adv-x="524" 
d="M57 249q0 60 32 106.5t90 66.5q-72 46 -72 135q0 60 45.5 101.5t125.5 41.5q90 0 144 -70l-69 -77q-35 39 -71 39q-24 0 -42 -17t-18 -41q0 -59 72 -101q82 -9 127 -60t45 -124q0 -61 -31.5 -107t-89.5 -66q69 -47 69 -133q0 -61 -45 -102t-126 -41q-89 0 -143 70l69 77
q36 -40 70 -40q25 0 42.5 17.5t17.5 41.5q0 59 -71 99q-81 9 -126 60t-45 124zM172 249q0 -34 24 -60t66 -26q43 0 66 25.5t23 60.5q0 34 -23.5 60t-65.5 26q-41 0 -65.5 -26t-24.5 -60z" />
    <glyph glyph-name="dieresis" unicode="&#xa8;" horiz-adv-x="443" 
d="M60 599q0 29 19 46.5t46 17.5q24 0 42 -17.5t18 -46.5q0 -31 -18 -49t-42 -18q-27 0 -46 18t-19 49zM259 599q0 29 18.5 46.5t45.5 17.5q24 0 42 -17.5t18 -46.5q0 -31 -17.5 -49t-42.5 -18q-27 0 -45.5 18t-18.5 49z" />
    <glyph glyph-name="copyright" unicode="&#xa9;" horiz-adv-x="1018" 
d="M72 221q0 183 126 309.5t311 126.5t310.5 -126t125.5 -310t-125.5 -310.5t-310.5 -126.5t-311 126.5t-126 310.5zM172 220q0 -140 96.5 -238t241.5 -98q143 0 239 98t96 238q0 141 -96 239t-239 98q-145 0 -241.5 -98t-96.5 -239zM641 151l54 -84q-28 -38 -75.5 -58
t-103.5 -20q-110 0 -177 65t-67 171q0 100 66 168t167 68q120 0 181 -61l-54 -91q-45 44 -112 44q-50 0 -87.5 -35.5t-37.5 -92.5q0 -58 38.5 -93.5t91.5 -35.5q66 0 116 55z" />
    <glyph glyph-name="ordfeminine" unicode="&#xaa;" horiz-adv-x="445" 
d="M121 553l-40 67q62 38 146 38q64 0 108.5 -35t44.5 -101v-215h-100v43q-41 -48 -124 -48q-50 0 -80.5 31.5t-30.5 77.5q0 56 34 86t95 30q62 0 106 -21q-4 67 -73 67q-51 0 -86 -20zM207 387q35 0 73 25v31q-37 14 -71 14q-57 0 -57 -35t55 -35z" />
    <glyph glyph-name="guillemotleft" unicode="&#xab;" horiz-adv-x="561" 
d="M440 22l-193 226v4l197 226l75 -67l-139 -161l138 -163zM230 22l-193 226v4l197 226l75 -67l-139 -161l138 -163z" />
    <glyph glyph-name="logicalnot" unicode="&#xac;" 
d="M51 310v100h494v-231h-100v131h-394z" />
    <glyph glyph-name="uni00AD" unicode="&#xad;" horiz-adv-x="376" 
d="M62 220v107h252v-107h-252z" />
    <glyph glyph-name="registered" unicode="&#xae;" horiz-adv-x="663" 
d="M45 497q0 119 83.5 202t204.5 83q118 0 201.5 -83.5t83.5 -201.5q0 -120 -83.5 -204t-201.5 -84q-121 0 -204.5 83.5t-83.5 204.5zM137 496q0 -80 57 -137t137 -57t137 57t57 137t-57 137t-137 57t-137 -57t-57 -137zM298 360h-77v280h117q58 0 86 -25t28 -68
q0 -29 -15.5 -51t-37.5 -30l58 -106h-89l-43 88h-27v-88zM327 585h-29v-82h29q22 0 34.5 12.5t12.5 30.5q0 39 -47 39z" />
    <glyph glyph-name="macron" unicode="&#xaf;" horiz-adv-x="399" 
d="M60 550v92h279v-92h-279z" />
    <glyph glyph-name="degree" unicode="&#xb0;" horiz-adv-x="425" 
d="M45 568q0 72 48.5 120.5t117.5 48.5q71 0 120 -46t49 -117t-49.5 -121.5t-119.5 -50.5q-69 0 -117.5 48t-48.5 118zM145 570q0 -28 20 -48t47 -20q28 0 48 20t20 48t-20 47.5t-48 19.5q-27 0 -47 -19.5t-20 -47.5z" />
    <glyph glyph-name="plusminus" unicode="&#xb1;" 
d="M66 402v100h177v181h108v-181h179v-100h-179v-103h-108v103h-177zM66 155v100h464v-100h-464z" />
    <glyph glyph-name="twosuperior" unicode="&#xb2;" horiz-adv-x="363" 
d="M30 350v73q118 70 152 104q30 29 30 53q0 18 -11.5 28.5t-31.5 10.5t-35.5 -15.5t-18.5 -34.5l-83 29q8 49 47 77.5t100 28.5q67 0 103.5 -30.5t36.5 -80.5q0 -92 -159 -158h175v-85h-305z" />
    <glyph glyph-name="threesuperior" unicode="&#xb3;" horiz-adv-x="361" 
d="M175 344q-52 0 -95 19t-63 55l58 53q10 -19 34 -32.5t49 -13.5q61 0 61 35q0 32 -59 32h-30v70h28q22 0 35 9.5t13 24.5q0 29 -45 29q-52 0 -85 -41l-48 55q44 67 153 67q59 0 96 -24t37 -65q0 -32 -20.5 -53t-56.5 -29v-1q43 -3 66 -26t23 -57q0 -48 -44 -77.5
t-107 -29.5z" />
    <glyph glyph-name="acute" unicode="&#xb4;" horiz-adv-x="315" 
d="M255 662l-126 -145l-69 48l105 165z" />
    <glyph glyph-name="mu" unicode="&#xb5;" horiz-adv-x="542" 
d="M478 450v-450h-115v55q-54 -66 -144 -66q-21 0 -43 5v-194h-115v650h115v-260q3 -94 86 -94q59 0 101 55v299h115z" />
    <glyph glyph-name="mu" unicode="&#x3bc;" horiz-adv-x="542" 
d="M478 450v-450h-115v55q-54 -66 -144 -66q-21 0 -43 5v-194h-115v650h115v-260q3 -94 86 -94q59 0 101 55v299h115z" />
    <glyph glyph-name="paragraph" unicode="&#xb6;" horiz-adv-x="491" 
d="M37 481q0 100 62.5 159.5t159.5 59.5h207v-108h-94v-584q0 -216 -187 -216q-38 0 -74 14.5t-56 34.5l45 83q33 -25 77 -25q80 0 80 113v251q-90 1 -155 60t-65 158z" />
    <glyph glyph-name="periodcentered" unicode="&#xb7;" horiz-adv-x="212" 
d="M29 302q0 28 22 51t58 23q31 0 52 -23t21 -51q0 -32 -21 -56t-52 -24q-36 0 -58 24t-22 56z" />
    <glyph glyph-name="cedilla" unicode="&#xb8;" horiz-adv-x="378" 
d="M60 -166l34 54q33 -26 70 -26q39 0 39 25q0 28 -41 28h-6v85h58v-35q104 -6 104 -85q0 -40 -36 -64t-102 -24q-63 0 -120 42z" />
    <glyph glyph-name="onesuperior" unicode="&#xb9;" horiz-adv-x="269" 
d="M16 624l113 75h72v-349h-100v234l-48 -28z" />
    <glyph glyph-name="ordmasculine" unicode="&#xba;" horiz-adv-x="499" 
d="M52 480q0 80 55.5 129t141.5 49t141.5 -49t55.5 -129t-55.5 -129.5t-141.5 -49.5t-141.5 49.5t-55.5 129.5zM160 480q0 -39 25.5 -62.5t63.5 -23.5q40 0 65 23.5t25 62.5q0 38 -25.5 61.5t-64.5 23.5q-38 0 -63.5 -23.5t-25.5 -61.5z" />
    <glyph glyph-name="guillemotright" unicode="&#xbb;" horiz-adv-x="561" 
d="M524 248l-193 -226l-78 65l138 163l-139 161l75 67l197 -226v-4zM314 248l-193 -226l-78 65l138 163l-139 161l75 67l197 -226v-4z" />
    <glyph glyph-name="onequarter" unicode="&#xbc;" horiz-adv-x="693" 
d="M21 624l113 75h72v-349h-100v234l-48 -28zM45 35l505 676l65 -49l-504 -673zM525 0v70h-193v67l155 213h95l-148 -202h91v77h92v-77h56v-78h-56v-70h-92z" />
    <glyph glyph-name="onehalf" unicode="&#xbd;" horiz-adv-x="710" 
d="M21 624l113 75h72v-349h-100v234l-48 -28zM35 35l505 676l65 -49l-504 -673zM365 0v73q118 70 152 104q30 29 30 53q0 18 -11.5 28.5t-31.5 10.5t-35.5 -15.5t-18.5 -34.5l-83 29q8 49 47 77.5t100 28.5q67 0 103.5 -30.5t36.5 -80.5q0 -92 -159 -158h175v-85h-305z" />
    <glyph glyph-name="threequarters" unicode="&#xbe;" horiz-adv-x="753" 
d="M115 35l505 676l65 -49l-504 -673zM585 0v70h-193v67l155 213h95l-148 -202h91v77h92v-77h56v-78h-56v-70h-92zM182 344q-52 0 -95 19t-63 55l58 53q10 -19 34 -32.5t49 -13.5q61 0 61 35q0 32 -59 32h-30v70h28q22 0 35 9.5t13 24.5q0 29 -45 29q-52 0 -85 -41l-48 55
q44 67 153 67q59 0 96 -24t37 -65q0 -32 -20.5 -53t-56.5 -29v-1q43 -3 66 -26t23 -57q0 -48 -44 -77.5t-107 -29.5z" />
    <glyph glyph-name="questiondown" unicode="&#xbf;" horiz-adv-x="473" 
d="M148 -54q0 -36 27 -61t67 -25q74 0 123 64l68 -77q-28 -45 -80.5 -73.5t-117.5 -28.5q-97 0 -153.5 50.5t-56.5 125.5q0 46 15 83t37 58.5t46.5 43l45 38t31.5 41t6 53.5l105 1q8 -49 -5.5 -84.5t-39.5 -57.5t-52.5 -41t-46 -46.5t-19.5 -63.5zM333 381q0 -28 -22 -51
t-57 -23q-32 0 -53 23t-21 51q0 32 21 56t53 24q35 0 57 -24t22 -56z" />
    <glyph glyph-name="Agrave" unicode="&#xc0;" horiz-adv-x="715" 
d="M7 0l296 702h108l296 -702h-131l-73 179h-299l-73 -179h-124zM354 543l-103 -249h205zM410 731l-225 81l43 99l214 -111z" />
    <glyph glyph-name="Aacute" unicode="&#xc1;" horiz-adv-x="715" 
d="M7 0l296 702h108l296 -702h-131l-73 179h-299l-73 -179h-124zM354 543l-103 -249h205zM529 812l-225 -81l-32 69l214 111z" />
    <glyph glyph-name="Acircumflex" unicode="&#xc2;" horiz-adv-x="715" 
d="M7 0l296 702h108l296 -702h-131l-73 179h-299l-73 -179h-124zM354 543l-103 -249h205zM178 792l175 112h4l179 -111l-45 -65l-136 71l-136 -71z" />
    <glyph glyph-name="Atilde" unicode="&#xc3;" horiz-adv-x="715" 
d="M7 0l296 702h108l296 -702h-131l-73 179h-299l-73 -179h-124zM354 543l-103 -249h205zM212 753l-36 73q47 54 112 54q31 0 74 -17.5t69 -17.5q46 0 76 32l31 -73q-41 -59 -115 -59q-25 0 -70.5 17.5t-74.5 17.5q-33 0 -66 -27z" />
    <glyph glyph-name="Adieresis" unicode="&#xc4;" horiz-adv-x="715" 
d="M7 0l296 702h108l296 -702h-131l-73 179h-299l-73 -179h-124zM354 543l-103 -249h205zM167 825q0 28 22 45t55 17q29 0 50 -17t21 -45q0 -31 -21 -48.5t-50 -17.5q-33 0 -55 17.5t-22 48.5zM399 825q0 28 22 45t55 17q29 0 50 -17t21 -45q0 -31 -21 -48.5t-50 -17.5
q-33 0 -55 17.5t-22 48.5z" />
    <glyph glyph-name="Aring" unicode="&#xc5;" horiz-adv-x="715" 
d="M216 800q0 54 39 81t100 27q63 0 103 -27t40 -81q0 -79 -85 -103l294 -697h-131l-73 179h-299l-73 -179h-124l294 697q-85 24 -85 103zM354 543l-103 -249h205zM301 800q0 -23 15.5 -35t39.5 -12q25 0 41 12t16 35q0 45 -57 45q-55 0 -55 -45z" />
    <glyph glyph-name="AE" unicode="&#xc6;" horiz-adv-x="951" 
d="M473 0v181h-233l-126 -181h-142l503 700h403v-115h-282v-174h252v-115h-252v-181h292v-115h-415zM473 514l-152 -218h152v218z" />
    <glyph glyph-name="Ccedilla" unicode="&#xc7;" horiz-adv-x="655" 
d="M254 -163l37 58q40 -33 74 -33q39 0 39 25q0 28 -41 28h-6v77q-141 15 -226.5 111.5t-85.5 246.5q0 157 95 259t263 102q135 0 213 -71l-55 -91q-71 47 -158 47q-99 0 -163.5 -67t-64.5 -179q0 -109 67.5 -177.5t174.5 -68.5q93 0 166 56l47 -92q-32 -35 -90.5 -56.5
t-124.5 -22.5v-24q111 -6 111 -85q0 -39 -35.5 -63.5t-97.5 -24.5q-81 0 -139 45z" />
    <glyph glyph-name="Egrave" unicode="&#xc8;" horiz-adv-x="575" 
d="M97 0v700h405v-115h-282v-174h252v-115h-252v-181h292v-115h-415zM362 731l-225 81l43 99l214 -111z" />
    <glyph glyph-name="Eacute" unicode="&#xc9;" horiz-adv-x="575" 
d="M97 0v700h405v-115h-282v-174h252v-115h-252v-181h292v-115h-415zM474 812l-225 -81l-32 69l214 111z" />
    <glyph glyph-name="Ecircumflex" unicode="&#xca;" horiz-adv-x="575" 
d="M97 0v700h405v-115h-282v-174h252v-115h-252v-181h292v-115h-415zM121 792l175 112h4l179 -111l-45 -65l-136 71l-136 -71z" />
    <glyph glyph-name="Edieresis" unicode="&#xcb;" horiz-adv-x="575" 
d="M97 0v700h405v-115h-282v-174h252v-115h-252v-181h292v-115h-415zM113 825q0 28 22 45t55 17q29 0 50 -17t21 -45q0 -31 -21 -48.5t-50 -17.5q-33 0 -55 17.5t-22 48.5zM345 825q0 28 22 45t55 17q29 0 50 -17t21 -45q0 -31 -21 -48.5t-50 -17.5q-33 0 -55 17.5t-22 48.5
z" />
    <glyph glyph-name="Igrave" unicode="&#xcc;" horiz-adv-x="347" 
d="M112 0v700h123v-700h-123zM217 731l-225 81l43 99l214 -111z" />
    <glyph glyph-name="Iacute" unicode="&#xcd;" horiz-adv-x="347" 
d="M112 0v700h123v-700h-123zM357 812l-225 -81l-32 69l214 111z" />
    <glyph glyph-name="Icircumflex" unicode="&#xce;" horiz-adv-x="347" 
d="M112 0v700h123v-700h-123zM-6 792l175 112h4l179 -111l-45 -65l-136 71l-136 -71z" />
    <glyph glyph-name="Idieresis" unicode="&#xcf;" horiz-adv-x="347" 
d="M112 0v700h123v-700h-123zM-17 825q0 28 22 45t55 17q29 0 50 -17t21 -45q0 -31 -21 -48.5t-50 -17.5q-33 0 -55 17.5t-22 48.5zM215 825q0 28 22 45t55 17q29 0 50 -17t21 -45q0 -31 -21 -48.5t-50 -17.5q-33 0 -55 17.5t-22 48.5z" />
    <glyph glyph-name="Eth" unicode="&#xd0;" horiz-adv-x="749" 
d="M10 297v108h95v295h13q20 0 93 1.5t100 1.5q102 0 179 -27.5t123 -76.5t68.5 -109.5t22.5 -132.5q0 -156 -104.5 -257.5t-296.5 -101.5q-18 0 -84 1t-100 1h-14v297h-95zM309 588q-40 0 -82 -3v-180h177v-108h-177v-182q34 -2 80 -2q125 0 196 66t71 178q0 107 -70.5 169
t-194.5 62z" />
    <glyph glyph-name="Ntilde" unicode="&#xd1;" horiz-adv-x="792" 
d="M695 0h-98l-385 485v-485h-115v700h98l385 -487v487h115v-700zM258 753l-36 73q47 54 112 54q31 0 74 -17.5t69 -17.5q46 0 76 32l31 -73q-41 -59 -115 -59q-25 0 -70.5 17.5t-74.5 17.5q-33 0 -66 -27z" />
    <glyph glyph-name="Ograve" unicode="&#xd2;" horiz-adv-x="819" 
d="M45 350q0 154 102.5 257.5t261.5 103.5q158 0 261.5 -100t103.5 -261q0 -157 -104 -259t-261 -102q-158 0 -261 100t-103 261zM175 350q0 -105 67.5 -175.5t166.5 -70.5q108 0 171.5 70t63.5 176q0 108 -67.5 177t-167.5 69q-101 0 -167.5 -69t-66.5 -177zM482 731
l-225 81l43 99l214 -111z" />
    <glyph glyph-name="Oacute" unicode="&#xd3;" horiz-adv-x="819" 
d="M45 350q0 154 102.5 257.5t261.5 103.5q158 0 261.5 -100t103.5 -261q0 -157 -104 -259t-261 -102q-158 0 -261 100t-103 261zM175 350q0 -105 67.5 -175.5t166.5 -70.5q108 0 171.5 70t63.5 176q0 108 -67.5 177t-167.5 69q-101 0 -167.5 -69t-66.5 -177zM589 812
l-225 -81l-32 69l214 111z" />
    <glyph glyph-name="Ocircumflex" unicode="&#xd4;" horiz-adv-x="819" 
d="M45 350q0 154 102.5 257.5t261.5 103.5q158 0 261.5 -100t103.5 -261q0 -157 -104 -259t-261 -102q-158 0 -261 100t-103 261zM175 350q0 -105 67.5 -175.5t166.5 -70.5q108 0 171.5 70t63.5 176q0 108 -67.5 177t-167.5 69q-101 0 -167.5 -69t-66.5 -177zM233 792
l175 112h4l179 -111l-45 -65l-136 71l-136 -71z" />
    <glyph glyph-name="Otilde" unicode="&#xd5;" horiz-adv-x="819" 
d="M45 350q0 154 102.5 257.5t261.5 103.5q158 0 261.5 -100t103.5 -261q0 -157 -104 -259t-261 -102q-158 0 -261 100t-103 261zM175 350q0 -105 67.5 -175.5t166.5 -70.5q108 0 171.5 70t63.5 176q0 108 -67.5 177t-167.5 69q-101 0 -167.5 -69t-66.5 -177zM260 753
l-36 73q47 54 112 54q31 0 74 -17.5t69 -17.5q46 0 76 32l31 -73q-41 -59 -115 -59q-25 0 -70.5 17.5t-74.5 17.5q-33 0 -66 -27z" />
    <glyph glyph-name="Odieresis" unicode="&#xd6;" horiz-adv-x="819" 
d="M45 350q0 154 102.5 257.5t261.5 103.5q158 0 261.5 -100t103.5 -261q0 -157 -104 -259t-261 -102q-158 0 -261 100t-103 261zM175 350q0 -105 67.5 -175.5t166.5 -70.5q108 0 171.5 70t63.5 176q0 108 -67.5 177t-167.5 69q-101 0 -167.5 -69t-66.5 -177zM216 825
q0 28 22 45t55 17q29 0 50 -17t21 -45q0 -31 -21 -48.5t-50 -17.5q-33 0 -55 17.5t-22 48.5zM448 825q0 28 22 45t55 17q29 0 50 -17t21 -45q0 -31 -21 -48.5t-50 -17.5q-33 0 -55 17.5t-22 48.5z" />
    <glyph glyph-name="multiply" unicode="&#xd7;" 
d="M99 488l71 71l128 -128l128 128l71 -71l-128 -128l129 -129l-71 -71l-129 129l-129 -129l-71 71l129 129z" />
    <glyph glyph-name="Oslash" unicode="&#xd8;" horiz-adv-x="819" 
d="M45 350q0 154 102.5 257.5t261.5 103.5q126 0 222 -68l40 39l66 -67l-38 -37q75 -96 75 -228q0 -157 -104 -259t-261 -102q-138 0 -234 76l-42 -41l-67 68l43 42q-64 91 -64 216zM644 350q0 76 -37 137l-341 -333q61 -50 143 -50q108 0 171.5 70t63.5 176zM175 350
q0 -68 29 -123l338 329q-61 40 -133 40q-101 0 -167.5 -69t-66.5 -177z" />
    <glyph glyph-name="Ugrave" unicode="&#xd9;" horiz-adv-x="751" 
d="M663 700v-410q0 -151 -79 -226t-199 -75q-135 0 -216.5 79.5t-81.5 228.5v403h123v-377q0 -102 43.5 -160.5t131.5 -58.5q156 0 156 211v385h122zM435 731l-225 81l43 99l214 -111z" />
    <glyph glyph-name="Uacute" unicode="&#xda;" horiz-adv-x="751" 
d="M663 700v-410q0 -151 -79 -226t-199 -75q-135 0 -216.5 79.5t-81.5 228.5v403h123v-377q0 -102 43.5 -160.5t131.5 -58.5q156 0 156 211v385h122zM552 812l-225 -81l-32 69l214 111z" />
    <glyph glyph-name="Ucircumflex" unicode="&#xdb;" horiz-adv-x="751" 
d="M663 700v-410q0 -151 -79 -226t-199 -75q-135 0 -216.5 79.5t-81.5 228.5v403h123v-377q0 -102 43.5 -160.5t131.5 -58.5q156 0 156 211v385h122zM195 792l175 112h4l179 -111l-45 -65l-136 71l-136 -71z" />
    <glyph glyph-name="Udieresis" unicode="&#xdc;" horiz-adv-x="751" 
d="M663 700v-410q0 -151 -79 -226t-199 -75q-135 0 -216.5 79.5t-81.5 228.5v403h123v-377q0 -102 43.5 -160.5t131.5 -58.5q156 0 156 211v385h122zM178 825q0 28 22 45t55 17q29 0 50 -17t21 -45q0 -31 -21 -48.5t-50 -17.5q-33 0 -55 17.5t-22 48.5zM410 825q0 28 22 45
t55 17q29 0 50 -17t21 -45q0 -31 -21 -48.5t-50 -17.5q-33 0 -55 17.5t-22 48.5z" />
    <glyph glyph-name="Yacute" unicode="&#xdd;" horiz-adv-x="629" 
d="M624 700l-249 -408v-292h-123v292l-247 408h140l174 -293l172 293h133zM492 812l-225 -81l-32 69l214 111z" />
    <glyph glyph-name="Thorn" unicode="&#xde;" horiz-adv-x="612" 
d="M220 0h-123v700h123v-103q8 0 38 1t38 1q143 0 207 -63.5t64 -160.5q0 -95 -68 -161.5t-188 -66.5q-51 0 -91 4v-151zM298 484q-50 0 -78 -3v-214q48 -5 87 -5q58 0 94 29t36 85q0 108 -139 108z" />
    <glyph glyph-name="germandbls" unicode="&#xdf;" horiz-adv-x="551" 
d="M398 160q0 30 -25.5 56t-56 43.5t-56 48t-25.5 68.5q0 35 13 62.5t28 42t28 33t13 37.5q0 22 -18.5 37t-46.5 15q-39 0 -57 -27t-18 -86v-491h-115v501q0 211 207 211q73 0 121.5 -40t48.5 -98q0 -28 -8.5 -49.5t-20.5 -35l-23.5 -26t-20 -28.5t-8.5 -35q0 -26 17 -46.5
t41 -36t47.5 -34t40.5 -50.5t17 -75q0 -70 -45 -119t-114 -49q-94 0 -146 59l37 88q40 -40 81 -40q28 0 46 17t18 47z" />
    <glyph glyph-name="agrave" unicode="&#xe0;" horiz-adv-x="463" 
d="M99 334l-29 84q73 43 159 43q96 0 138 -47t42 -140v-274h-100v52q-41 -58 -133 -58q-63 0 -102 37t-39 101q0 71 46 108.5t118 37.5q62 0 102 -29q2 59 -17 87.5t-67 28.5q-50 0 -118 -31zM214 91q58 0 87 41v46q-29 22 -79 22q-31 0 -51.5 -14.5t-20.5 -41.5
q0 -25 18 -39t46 -14zM248 517l-127 143l91 68l104 -163z" />
    <glyph glyph-name="aacute" unicode="&#xe1;" horiz-adv-x="463" 
d="M99 334l-29 84q73 43 159 43q96 0 138 -47t42 -140v-274h-100v52q-41 -58 -133 -58q-63 0 -102 37t-39 101q0 71 46 108.5t118 37.5q62 0 102 -29q2 59 -17 87.5t-67 28.5q-50 0 -118 -31zM214 91q58 0 87 41v46q-29 22 -79 22q-31 0 -51.5 -14.5t-20.5 -41.5
q0 -25 18 -39t46 -14zM350 662l-126 -145l-69 48l105 165z" />
    <glyph glyph-name="acircumflex" unicode="&#xe2;" horiz-adv-x="463" 
d="M99 334l-29 84q73 43 159 43q96 0 138 -47t42 -140v-274h-100v52q-41 -58 -133 -58q-63 0 -102 37t-39 101q0 71 46 108.5t118 37.5q62 0 102 -29q2 59 -17 87.5t-67 28.5q-50 0 -118 -31zM214 91q58 0 87 41v46q-29 22 -79 22q-31 0 -51.5 -14.5t-20.5 -41.5
q0 -25 18 -39t46 -14zM233 706l152 -134l-54 -68l-101 81l-102 -79l-52 67l153 133h4z" />
    <glyph glyph-name="atilde" unicode="&#xe3;" horiz-adv-x="463" 
d="M99 334l-29 84q73 43 159 43q96 0 138 -47t42 -140v-274h-100v52q-41 -58 -133 -58q-63 0 -102 37t-39 101q0 71 46 108.5t118 37.5q62 0 102 -29q2 59 -17 87.5t-67 28.5q-50 0 -118 -31zM214 91q58 0 87 41v46q-29 22 -79 22q-31 0 -51.5 -14.5t-20.5 -41.5
q0 -25 18 -39t46 -14zM102 538l-47 52q55 69 121 69q24 0 59.5 -21t55.5 -21q14 0 26 4.5t19 9t24 17.5l39 -58q-59 -65 -117 -65q-22 0 -58 20.5t-59 20.5t-63 -28z" />
    <glyph glyph-name="adieresis" unicode="&#xe4;" horiz-adv-x="463" 
d="M99 334l-29 84q73 43 159 43q96 0 138 -47t42 -140v-274h-100v52q-41 -58 -133 -58q-63 0 -102 37t-39 101q0 71 46 108.5t118 37.5q62 0 102 -29q2 59 -17 87.5t-67 28.5q-50 0 -118 -31zM214 91q58 0 87 41v46q-29 22 -79 22q-31 0 -51.5 -14.5t-20.5 -41.5
q0 -25 18 -39t46 -14zM74 599q0 29 19 46.5t46 17.5q24 0 42 -17.5t18 -46.5q0 -31 -18 -49t-42 -18q-27 0 -46 18t-19 49zM273 599q0 29 18.5 46.5t45.5 17.5q24 0 42 -17.5t18 -46.5q0 -31 -17.5 -49t-42.5 -18q-27 0 -45.5 18t-18.5 49z" />
    <glyph glyph-name="aring" unicode="&#xe5;" horiz-adv-x="463" 
d="M99 334l-29 84q73 43 159 43q96 0 138 -47t42 -140v-274h-100v52q-41 -58 -133 -58q-63 0 -102 37t-39 101q0 71 46 108.5t118 37.5q62 0 102 -29q2 59 -17 87.5t-67 28.5q-50 0 -118 -31zM214 91q58 0 87 41v46q-29 22 -79 22q-31 0 -51.5 -14.5t-20.5 -41.5
q0 -25 18 -39t46 -14zM111 612q0 50 36 85t90 35q55 0 91.5 -35t36.5 -85q0 -49 -36.5 -83.5t-91.5 -34.5q-54 0 -90 34.5t-36 83.5zM185 613q0 -24 15 -40.5t39 -16.5q23 0 37.5 16.5t14.5 40.5t-14.5 40t-37.5 16q-24 0 -39 -16t-15 -40z" />
    <glyph glyph-name="ae" unicode="&#xe6;" horiz-adv-x="759" 
d="M229 461q93 0 138 -47q63 47 150 47q89 0 151 -58.5t62 -150.5q0 -32 -7 -62h-314v-43q14 -28 46.5 -45t76.5 -17q75 0 128 41l32 -81q-70 -56 -169 -56q-108 0 -173 59q-72 -57 -154 -57q-78 0 -119.5 38.5t-41.5 108.5q0 64 45.5 102t118.5 38q25 0 56.5 -7t45.5 -15
q5 52 -16.5 80.5t-62.5 28.5q-55 0 -123 -31l-29 84q76 43 159 43zM409 274v-7h206q-2 44 -29.5 71t-77.5 27q-68 0 -101 -57q2 -22 2 -34zM214 91q46 0 86 38l1 57q-36 14 -79 14q-31 0 -51.5 -15.5t-20.5 -40.5q0 -23 17 -38t47 -15z" />
    <glyph glyph-name="ccedilla" unicode="&#xe7;" horiz-adv-x="487" 
d="M139 -166l34 54q33 -26 70 -26q39 0 39 25q0 28 -41 28h-6v78q-91 13 -145 75t-54 157q0 100 66 168t167 68q120 0 181 -61l-54 -91q-45 44 -112 44q-50 0 -87.5 -35.5t-37.5 -92.5q0 -58 38.5 -93.5t91.5 -35.5q66 0 116 55l54 -84q-55 -73 -166 -78v-24q104 -6 104 -85
q0 -40 -36 -64t-102 -24q-63 0 -120 42z" />
    <glyph glyph-name="egrave" unicode="&#xe8;" horiz-adv-x="516" 
d="M417 126l33 -81q-66 -56 -172 -56q-109 0 -175.5 65t-66.5 171q0 101 65 168.5t173 67.5q89 0 151 -58.5t62 -150.5q0 -38 -7 -62h-325q7 -50 44 -77.5t91 -27.5q76 0 127 41zM269 365q-98 0 -118 -98h221q1 42 -27 70t-76 28zM288 517l-127 143l91 68l104 -163z" />
    <glyph glyph-name="eacute" unicode="&#xe9;" horiz-adv-x="516" 
d="M417 126l33 -81q-66 -56 -172 -56q-109 0 -175.5 65t-66.5 171q0 101 65 168.5t173 67.5q89 0 151 -58.5t62 -150.5q0 -38 -7 -62h-325q7 -50 44 -77.5t91 -27.5q76 0 127 41zM269 365q-98 0 -118 -98h221q1 42 -27 70t-76 28zM400 662l-126 -145l-69 48l105 165z" />
    <glyph glyph-name="ecircumflex" unicode="&#xea;" horiz-adv-x="516" 
d="M417 126l33 -81q-66 -56 -172 -56q-109 0 -175.5 65t-66.5 171q0 101 65 168.5t173 67.5q89 0 151 -58.5t62 -150.5q0 -38 -7 -62h-325q7 -50 44 -77.5t91 -27.5q76 0 127 41zM269 365q-98 0 -118 -98h221q1 42 -27 70t-76 28zM271 706l152 -134l-54 -68l-101 81
l-102 -79l-52 67l153 133h4z" />
    <glyph glyph-name="edieresis" unicode="&#xeb;" horiz-adv-x="516" 
d="M417 126l33 -81q-66 -56 -172 -56q-109 0 -175.5 65t-66.5 171q0 101 65 168.5t173 67.5q89 0 151 -58.5t62 -150.5q0 -38 -7 -62h-325q7 -50 44 -77.5t91 -27.5q76 0 127 41zM269 365q-98 0 -118 -98h221q1 42 -27 70t-76 28zM107 599q0 29 19 46.5t46 17.5
q24 0 42 -17.5t18 -46.5q0 -31 -18 -49t-42 -18q-27 0 -46 18t-19 49zM306 599q0 29 18.5 46.5t45.5 17.5q24 0 42 -17.5t18 -46.5q0 -31 -17.5 -49t-42.5 -18q-27 0 -45.5 18t-18.5 49z" />
    <glyph glyph-name="igrave" unicode="&#xec;" horiz-adv-x="277" 
d="M81 0v450h115v-450h-115zM123 517l-127 143l91 68l104 -163z" />
    <glyph glyph-name="iacute" unicode="&#xed;" horiz-adv-x="277" 
d="M81 0v450h115v-450h-115zM258 662l-126 -145l-69 48l105 165z" />
    <glyph glyph-name="icircumflex" unicode="&#xee;" horiz-adv-x="277" 
d="M81 0v450h115v-450h-115zM141 706l152 -134l-54 -68l-101 81l-102 -79l-52 67l153 133h4z" />
    <glyph glyph-name="idieresis" unicode="&#xef;" horiz-adv-x="277" 
d="M81 0v450h115v-450h-115zM-23 599q0 29 19 46.5t46 17.5q24 0 42 -17.5t18 -46.5q0 -31 -18 -49t-42 -18q-27 0 -46 18t-19 49zM176 599q0 29 18.5 46.5t45.5 17.5q24 0 42 -17.5t18 -46.5q0 -31 -17.5 -49t-42.5 -18q-27 0 -45.5 18t-18.5 49z" />
    <glyph glyph-name="eth" unicode="&#xf0;" horiz-adv-x="562" 
d="M189 493l-33 102l82 29q-42 39 -88 68l129 19q34 -20 67 -48l104 37l32 -102l-59 -21q49 -71 76 -154t27 -159q0 -129 -66 -202t-179 -73q-110 0 -177.5 66.5t-67.5 169.5t67.5 169.5t177.5 66.5q62 0 95 -45q-20 64 -61 122zM159 225q0 -56 34.5 -92.5t87.5 -36.5
q59 0 93 46.5t30 126.5q-11 37 -44 60.5t-79 23.5q-52 0 -87 -35.5t-35 -92.5z" />
    <glyph glyph-name="ntilde" unicode="&#xf1;" horiz-adv-x="546" 
d="M64 0v450h115v-45q49 53 129 53q185 0 185 -194v-264h-115v244q0 106 -101 106q-55 0 -98 -43v-307h-115zM146 538l-47 52q55 69 121 69q24 0 59.5 -21t55.5 -21q14 0 26 4.5t19 9t24 17.5l39 -58q-59 -65 -117 -65q-22 0 -58 20.5t-59 20.5t-63 -28z" />
    <glyph glyph-name="ograve" unicode="&#xf2;" horiz-adv-x="562" 
d="M36 225q0 103 67.5 169.5t177.5 66.5t177.5 -66.5t67.5 -169.5t-67.5 -169.5t-177.5 -66.5t-177.5 66.5t-67.5 169.5zM159 225q0 -56 34.5 -92.5t87.5 -36.5q54 0 88.5 35.5t34.5 93.5q0 56 -35 92t-88 36q-52 0 -87 -35.5t-35 -92.5zM284 517l-127 143l91 68l104 -163z
" />
    <glyph glyph-name="oacute" unicode="&#xf3;" horiz-adv-x="562" 
d="M36 225q0 103 67.5 169.5t177.5 66.5t177.5 -66.5t67.5 -169.5t-67.5 -169.5t-177.5 -66.5t-177.5 66.5t-67.5 169.5zM159 225q0 -56 34.5 -92.5t87.5 -36.5q54 0 88.5 35.5t34.5 93.5q0 56 -35 92t-88 36q-52 0 -87 -35.5t-35 -92.5zM406 662l-126 -145l-69 48l105 165z
" />
    <glyph glyph-name="ocircumflex" unicode="&#xf4;" horiz-adv-x="562" 
d="M36 225q0 103 67.5 169.5t177.5 66.5t177.5 -66.5t67.5 -169.5t-67.5 -169.5t-177.5 -66.5t-177.5 66.5t-67.5 169.5zM159 225q0 -56 34.5 -92.5t87.5 -36.5q54 0 88.5 35.5t34.5 93.5q0 56 -35 92t-88 36q-52 0 -87 -35.5t-35 -92.5zM285 706l152 -134l-54 -68l-101 81
l-102 -79l-52 67l153 133h4z" />
    <glyph glyph-name="otilde" unicode="&#xf5;" horiz-adv-x="562" 
d="M36 225q0 103 67.5 169.5t177.5 66.5t177.5 -66.5t67.5 -169.5t-67.5 -169.5t-177.5 -66.5t-177.5 66.5t-67.5 169.5zM159 225q0 -56 34.5 -92.5t87.5 -36.5q54 0 88.5 35.5t34.5 93.5q0 56 -35 92t-88 36q-52 0 -87 -35.5t-35 -92.5zM154 538l-47 52q55 69 121 69
q24 0 59.5 -21t55.5 -21q14 0 26 4.5t19 9t24 17.5l39 -58q-59 -65 -117 -65q-22 0 -58 20.5t-59 20.5t-63 -28z" />
    <glyph glyph-name="odieresis" unicode="&#xf6;" horiz-adv-x="562" 
d="M36 225q0 103 67.5 169.5t177.5 66.5t177.5 -66.5t67.5 -169.5t-67.5 -169.5t-177.5 -66.5t-177.5 66.5t-67.5 169.5zM159 225q0 -56 34.5 -92.5t87.5 -36.5q54 0 88.5 35.5t34.5 93.5q0 56 -35 92t-88 36q-52 0 -87 -35.5t-35 -92.5zM126 599q0 29 19 46.5t46 17.5
q24 0 42 -17.5t18 -46.5q0 -31 -18 -49t-42 -18q-27 0 -46 18t-19 49zM325 599q0 29 18.5 46.5t45.5 17.5q24 0 42 -17.5t18 -46.5q0 -31 -17.5 -49t-42.5 -18q-27 0 -45.5 18t-18.5 49z" />
    <glyph glyph-name="divide" unicode="&#xf7;" 
d="M230 557q0 26 18.5 45.5t49.5 19.5q30 0 48.5 -19.5t18.5 -45.5q0 -28 -18.5 -49t-48.5 -21q-31 0 -49.5 21t-18.5 49zM230 164q0 25 18.5 45.5t49.5 20.5q29 0 48 -20.5t19 -45.5q0 -28 -18.5 -49t-48.5 -21q-31 0 -49.5 20.5t-18.5 49.5zM66 310v100h464v-100h-464z
" />
    <glyph glyph-name="oslash" unicode="&#xf8;" horiz-adv-x="577" 
d="M49 49l35 32q-48 60 -48 144q0 102 71 169t182 67q91 0 158 -48l39 36l41 -48l-35 -32q49 -62 49 -144q0 -102 -70.5 -169t-181.5 -67q-93 0 -159 47l-39 -36zM419 225q0 36 -15 63l-188 -173q32 -19 73 -19q59 0 94.5 35.5t35.5 93.5zM159 225q0 -35 14 -63l188 172
q-32 19 -72 19q-58 0 -94 -35t-36 -93z" />
    <glyph glyph-name="ugrave" unicode="&#xf9;" horiz-adv-x="535" 
d="M471 450v-450h-115v55q-54 -66 -144 -66q-70 0 -114 47t-44 139v275h115v-251q0 -103 86 -103q59 0 101 55v299h115zM266 517l-127 143l91 68l104 -163z" />
    <glyph glyph-name="uacute" unicode="&#xfa;" horiz-adv-x="535" 
d="M471 450v-450h-115v55q-54 -66 -144 -66q-70 0 -114 47t-44 139v275h115v-251q0 -103 86 -103q59 0 101 55v299h115zM396 662l-126 -145l-69 48l105 165z" />
    <glyph glyph-name="ucircumflex" unicode="&#xfb;" horiz-adv-x="535" 
d="M471 450v-450h-115v55q-54 -66 -144 -66q-70 0 -114 47t-44 139v275h115v-251q0 -103 86 -103q59 0 101 55v299h115zM269 706l152 -134l-54 -68l-101 81l-102 -79l-52 67l153 133h4z" />
    <glyph glyph-name="udieresis" unicode="&#xfc;" horiz-adv-x="535" 
d="M471 450v-450h-115v55q-54 -66 -144 -66q-70 0 -114 47t-44 139v275h115v-251q0 -103 86 -103q59 0 101 55v299h115zM103 599q0 29 19 46.5t46 17.5q24 0 42 -17.5t18 -46.5q0 -31 -18 -49t-42 -18q-27 0 -46 18t-19 49zM302 599q0 29 18.5 46.5t45.5 17.5q24 0 42 -17.5
t18 -46.5q0 -31 -17.5 -49t-42.5 -18q-27 0 -45.5 18t-18.5 49z" />
    <glyph glyph-name="yacute" unicode="&#xfd;" horiz-adv-x="503" 
d="M498 450l-177 -450q-48 -117 -85.5 -158.5t-88.5 -41.5q-49 0 -97 35l37 87q27 -16 47 -16q41 0 69 70l10 24l-208 450h138l105 -246q6 -15 22 -65q8 44 16 66l81 245h131zM372 662l-126 -145l-69 48l105 165z" />
    <glyph glyph-name="thorn" unicode="&#xfe;" horiz-adv-x="558" 
d="M64 -200v900h115v-286q54 47 139 47q92 0 148 -64t56 -165q0 -105 -66 -174t-172 -69q-67 0 -105 22v-211h-115zM282 353q-59 0 -103 -49v-182q40 -26 95 -26q58 0 92 37.5t34 95.5q0 55 -31 89.5t-87 34.5z" />
    <glyph glyph-name="ydieresis" unicode="&#xff;" horiz-adv-x="503" 
d="M498 450l-177 -450q-48 -117 -85.5 -158.5t-88.5 -41.5q-49 0 -97 35l37 87q27 -16 47 -16q41 0 69 70l10 24l-208 450h138l105 -246q6 -15 22 -65q8 44 16 66l81 245h131zM97 599q0 29 19 46.5t46 17.5q24 0 42 -17.5t18 -46.5q0 -31 -18 -49t-42 -18q-27 0 -46 18
t-19 49zM296 599q0 29 18.5 46.5t45.5 17.5q24 0 42 -17.5t18 -46.5q0 -31 -17.5 -49t-42.5 -18q-27 0 -45.5 18t-18.5 49z" />
    <glyph glyph-name="Amacron" unicode="&#x100;" horiz-adv-x="715" 
d="M7 0l296 702h108l296 -702h-131l-73 179h-299l-73 -179h-124zM354 543l-103 -249h205zM202 760v92h309v-92h-309z" />
    <glyph glyph-name="amacron" unicode="&#x101;" horiz-adv-x="463" 
d="M99 334l-29 84q73 43 159 43q96 0 138 -47t42 -140v-274h-100v52q-41 -58 -133 -58q-63 0 -102 37t-39 101q0 71 46 108.5t118 37.5q62 0 102 -29q2 59 -17 87.5t-67 28.5q-50 0 -118 -31zM214 91q58 0 87 41v46q-29 22 -79 22q-31 0 -51.5 -14.5t-20.5 -41.5
q0 -25 18 -39t46 -14zM96 550v92h279v-92h-279z" />
    <glyph glyph-name="Abreve" unicode="&#x102;" horiz-adv-x="715" 
d="M7 0l296 702h108l296 -702h-131l-73 179h-299l-73 -179h-124zM354 543l-103 -249h205zM169 841l50 59q56 -63 143 -63q85 0 140 63l43 -60q-27 -43 -76.5 -73t-106.5 -30q-64 0 -116 31.5t-77 72.5z" />
    <glyph glyph-name="abreve" unicode="&#x103;" horiz-adv-x="463" 
d="M99 334l-29 84q73 43 159 43q96 0 138 -47t42 -140v-274h-100v52q-41 -58 -133 -58q-63 0 -102 37t-39 101q0 71 46 108.5t118 37.5q62 0 102 -29q2 59 -17 87.5t-67 28.5q-50 0 -118 -31zM214 91q58 0 87 41v46q-29 22 -79 22q-31 0 -51.5 -14.5t-20.5 -41.5
q0 -25 18 -39t46 -14zM69 624l51 57q51 -56 110 -56q69 0 112 55l40 -56q-62 -92 -157 -92q-57 0 -97 29.5t-59 62.5z" />
    <glyph glyph-name="Aogonek" unicode="&#x104;" horiz-adv-x="715" 
d="M669 -98l35 -70q-13 -13 -42.5 -22.5t-60.5 -9.5q-57 0 -95.5 23t-38.5 71q0 75 108 109l-72 176h-299l-73 -179h-124l296 702h108l296 -702h-21q-42 -1 -73 -22t-31 -46q0 -21 13.5 -30.5t31.5 -9.5q21 0 42 10zM354 543l-103 -249h205z" />
    <glyph glyph-name="aogonek" unicode="&#x105;" horiz-adv-x="463" 
d="M387 -98l35 -70q-13 -13 -42.5 -22.5t-60.5 -9.5q-57 0 -95.5 23t-38.5 71q0 42 34.5 70.5t89.5 42.5v45q-41 -58 -133 -58q-63 0 -102 37t-39 101q0 71 46 108.5t118 37.5q62 0 102 -29q2 59 -17 87.5t-67 28.5q-50 0 -118 -31l-29 84q73 43 159 43q96 0 138 -47
t42 -140v-274q-44 0 -76.5 -21t-32.5 -47q0 -21 13.5 -30.5t31.5 -9.5q21 0 42 10zM214 91q58 0 87 41v46q-29 22 -79 22q-31 0 -51.5 -14.5t-20.5 -41.5q0 -25 18 -39t46 -14z" />
    <glyph glyph-name="Cacute" unicode="&#x106;" horiz-adv-x="655" 
d="M583 160l47 -92q-33 -35 -94.5 -57t-129.5 -22q-161 0 -261 99t-100 262q0 157 95 259t263 102q135 0 213 -71l-55 -91q-71 47 -158 47q-99 0 -163.5 -67t-64.5 -179q0 -109 67.5 -177.5t174.5 -68.5q93 0 166 56zM557 812l-225 -81l-32 69l214 111z" />
    <glyph glyph-name="cacute" unicode="&#x107;" horiz-adv-x="487" 
d="M405 151l54 -84q-28 -38 -75.5 -58t-103.5 -20q-110 0 -177 65t-67 171q0 100 66 168t167 68q120 0 181 -61l-54 -91q-45 44 -112 44q-50 0 -87.5 -35.5t-37.5 -92.5q0 -58 38.5 -93.5t91.5 -35.5q66 0 116 55zM391 662l-126 -145l-69 48l105 165z" />
    <glyph glyph-name="Ccircumflex" unicode="&#x108;" horiz-adv-x="655" 
d="M583 160l47 -92q-33 -35 -94.5 -57t-129.5 -22q-161 0 -261 99t-100 262q0 157 95 259t263 102q135 0 213 -71l-55 -91q-71 47 -158 47q-99 0 -163.5 -67t-64.5 -179q0 -109 67.5 -177.5t174.5 -68.5q93 0 166 56zM208 792l175 112h4l179 -111l-45 -65l-136 71l-136 -71z
" />
    <glyph glyph-name="ccircumflex" unicode="&#x109;" horiz-adv-x="487" 
d="M405 151l54 -84q-28 -38 -75.5 -58t-103.5 -20q-110 0 -177 65t-67 171q0 100 66 168t167 68q120 0 181 -61l-54 -91q-45 44 -112 44q-50 0 -87.5 -35.5t-37.5 -92.5q0 -58 38.5 -93.5t91.5 -35.5q66 0 116 55zM279 706l152 -134l-54 -68l-101 81l-102 -79l-52 67
l153 133h4z" />
    <glyph glyph-name="Cdotaccent" unicode="&#x10a;" horiz-adv-x="655" 
d="M583 160l47 -92q-33 -35 -94.5 -57t-129.5 -22q-161 0 -261 99t-100 262q0 157 95 259t263 102q135 0 213 -71l-55 -91q-71 47 -158 47q-99 0 -163.5 -67t-64.5 -179q0 -109 67.5 -177.5t174.5 -68.5q93 0 166 56zM304 831q0 32 23 51.5t56 19.5q30 0 52.5 -19.5
t22.5 -51.5q0 -34 -22.5 -54.5t-52.5 -20.5q-33 0 -56 20t-23 55z" />
    <glyph glyph-name="cdotaccent" unicode="&#x10b;" horiz-adv-x="487" 
d="M405 151l54 -84q-28 -38 -75.5 -58t-103.5 -20q-110 0 -177 65t-67 171q0 100 66 168t167 68q120 0 181 -61l-54 -91q-45 44 -112 44q-50 0 -87.5 -35.5t-37.5 -92.5q0 -58 38.5 -93.5t91.5 -35.5q66 0 116 55zM203 612q0 30 21 48.5t51 18.5q26 0 46 -18.5t20 -48.5
q0 -33 -20 -52.5t-46 -19.5q-31 0 -51.5 19.5t-20.5 52.5z" />
    <glyph glyph-name="Ccaron" unicode="&#x10c;" horiz-adv-x="655" 
d="M583 160l47 -92q-33 -35 -94.5 -57t-129.5 -22q-161 0 -261 99t-100 262q0 157 95 259t263 102q135 0 213 -71l-55 -91q-71 47 -158 47q-99 0 -163.5 -67t-64.5 -179q0 -109 67.5 -177.5t174.5 -68.5q93 0 166 56zM387 735l-179 111l45 65l136 -79l135 79l41 -64
l-174 -112h-4z" />
    <glyph glyph-name="ccaron" unicode="&#x10d;" horiz-adv-x="487" 
d="M405 151l54 -84q-28 -38 -75.5 -58t-103.5 -20q-110 0 -177 65t-67 171q0 100 66 168t167 68q120 0 181 -61l-54 -91q-45 44 -112 44q-50 0 -87.5 -35.5t-37.5 -92.5q0 -58 38.5 -93.5t91.5 -35.5q66 0 116 55zM267 509l-152 134l54 68l101 -92l102 90l52 -67l-153 -133
h-4z" />
    <glyph glyph-name="Dcaron" unicode="&#x10e;" horiz-adv-x="741" 
d="M97 0v700h13q20 0 93 1.5t100 1.5q102 0 179 -27.5t123 -76.5t68.5 -109.5t22.5 -132.5q0 -156 -104.5 -257.5t-296.5 -101.5q-18 0 -83.5 1t-100.5 1h-14zM301 588q-39 0 -81 -3v-470q34 -2 79 -2q125 0 196 66t71 178q0 107 -70.5 169t-194.5 62zM335 735l-179 111
l45 65l136 -79l135 79l41 -64l-174 -112h-4z" />
    <glyph glyph-name="dcaron" unicode="&#x10f;" horiz-adv-x="556" 
d="M377 0v47q-52 -55 -129 -55q-96 0 -154 62.5t-58 165.5q0 106 69 173.5t178 67.5q57 0 94 -22v261h115v-700h-115zM272 99q59 0 105 46v181q-43 27 -89 27q-54 0 -91.5 -34.5t-37.5 -94.5q0 -58 32.5 -91.5t80.5 -33.5zM563 700h112q6 -12 6 -35q0 -119 -99 -174l-53 50
q45 43 45 110q0 25 -11 49z" />
    <glyph glyph-name="Dcroat" unicode="&#x110;" horiz-adv-x="749" 
d="M10 297v108h95v295h13q20 0 93 1.5t100 1.5q102 0 179 -27.5t123 -76.5t68.5 -109.5t22.5 -132.5q0 -156 -104.5 -257.5t-296.5 -101.5q-18 0 -84 1t-100 1h-14v297h-95zM309 588q-40 0 -82 -3v-180h177v-108h-177v-182q34 -2 80 -2q125 0 196 66t71 178q0 107 -70.5 169
t-194.5 62z" />
    <glyph glyph-name="dcroat" unicode="&#x111;" horiz-adv-x="556" 
d="M247 520v93h130v87h115v-87h79v-93h-79v-520h-115v47q-52 -55 -129 -55q-96 0 -154 62.5t-58 165.5q0 106 69 173.5t178 67.5q57 0 94 -22v81h-130zM272 99q59 0 105 46v181q-43 27 -89 27q-54 0 -91.5 -34.5t-37.5 -94.5q0 -58 32.5 -91.5t80.5 -33.5z" />
    <glyph glyph-name="Emacron" unicode="&#x112;" horiz-adv-x="575" 
d="M97 0v700h405v-115h-282v-174h252v-115h-252v-181h292v-115h-415zM145 760v92h309v-92h-309z" />
    <glyph glyph-name="emacron" unicode="&#x113;" horiz-adv-x="516" 
d="M417 126l33 -81q-66 -56 -172 -56q-109 0 -175.5 65t-66.5 171q0 101 65 168.5t173 67.5q89 0 151 -58.5t62 -150.5q0 -38 -7 -62h-325q7 -50 44 -77.5t91 -27.5q76 0 127 41zM269 365q-98 0 -118 -98h221q1 42 -27 70t-76 28zM125 550v92h279v-92h-279z" />
    <glyph glyph-name="Edotaccent" unicode="&#x116;" horiz-adv-x="575" 
d="M97 0v700h405v-115h-282v-174h252v-115h-252v-181h292v-115h-415zM227 831q0 32 23 51.5t56 19.5q30 0 52.5 -19.5t22.5 -51.5q0 -34 -22.5 -54.5t-52.5 -20.5q-33 0 -56 20t-23 55z" />
    <glyph glyph-name="edotaccent" unicode="&#x117;" horiz-adv-x="516" 
d="M417 126l33 -81q-66 -56 -172 -56q-109 0 -175.5 65t-66.5 171q0 101 65 168.5t173 67.5q89 0 151 -58.5t62 -150.5q0 -38 -7 -62h-325q7 -50 44 -77.5t91 -27.5q76 0 127 41zM269 365q-98 0 -118 -98h221q1 42 -27 70t-76 28zM197 612q0 30 21 48.5t51 18.5
q26 0 46 -18.5t20 -48.5q0 -33 -20 -52.5t-46 -19.5q-31 0 -51.5 19.5t-20.5 52.5z" />
    <glyph glyph-name="Eogonek" unicode="&#x118;" horiz-adv-x="575" 
d="M97 0v700h405v-115h-282v-174h252v-115h-252v-181h292v-115h-5q-42 -1 -73 -22t-31 -46q0 -21 13.5 -30.5t31.5 -9.5q21 0 42 10l35 -70q-13 -13 -42.5 -22.5t-60.5 -9.5q-57 0 -95.5 23t-38.5 71q0 72 99 106h-290z" />
    <glyph glyph-name="eogonek" unicode="&#x119;" horiz-adv-x="516" 
d="M417 126l33 -81q-22 -20 -58 -35q-66 -40 -66 -78q0 -21 13.5 -30.5t31.5 -9.5q21 0 42 10l35 -70q-13 -13 -42.5 -22.5t-60.5 -9.5q-57 0 -95.5 23t-38.5 71q0 54 75 95h-8q-109 0 -175.5 65t-66.5 171q0 101 65 168.5t173 67.5q89 0 151 -58.5t62 -150.5q0 -38 -7 -62
h-325q7 -50 44 -77.5t91 -27.5q76 0 127 41zM269 365q-98 0 -118 -98h221q1 42 -27 70t-76 28z" />
    <glyph glyph-name="Ecaron" unicode="&#x11a;" horiz-adv-x="575" 
d="M97 0v700h405v-115h-282v-174h252v-115h-252v-181h292v-115h-415zM307 735l-179 111l45 65l136 -79l135 79l41 -64l-174 -112h-4z" />
    <glyph glyph-name="ecaron" unicode="&#x11b;" horiz-adv-x="516" 
d="M417 126l33 -81q-66 -56 -172 -56q-109 0 -175.5 65t-66.5 171q0 101 65 168.5t173 67.5q89 0 151 -58.5t62 -150.5q0 -38 -7 -62h-325q7 -50 44 -77.5t91 -27.5q76 0 127 41zM269 365q-98 0 -118 -98h221q1 42 -27 70t-76 28zM271 509l-152 134l54 68l101 -92l102 90
l52 -67l-153 -133h-4z" />
    <glyph glyph-name="Gcircumflex" unicode="&#x11c;" horiz-adv-x="727" 
d="M388 262v115h284v-290q-45 -45 -119.5 -71.5t-142.5 -26.5q-170 0 -267.5 98t-97.5 263q0 154 96 257.5t253 103.5q135 0 225 -71l-52 -98q-26 25 -69 39.5t-89 14.5q-104 0 -169 -65.5t-65 -180.5q0 -111 65 -178.5t172 -67.5q40 0 82.5 14.5t62.5 33.5v110h-169z
M208 792l175 112h4l179 -111l-45 -65l-136 71l-136 -71z" />
    <glyph glyph-name="gcircumflex" unicode="&#x11d;" horiz-adv-x="499" 
d="M5 -61q0 54 39.5 89.5t106.5 49.5q-8 14 -8 31q0 19 10 32q-50 20 -78.5 60.5t-28.5 90.5q0 70 53 119.5t139 49.5q65 0 115 -32l136 30l4 -92l-75 -17q11 -28 11 -58q0 -69 -53 -117.5t-138 -48.5h-8q-2 -6 -2 -17q0 -13 6 -23h5q104 0 169 -37t65 -110t-65 -110
t-169 -37q-105 0 -169.5 36.5t-64.5 110.5zM112 -61q0 -26 34 -40.5t93 -14.5q126 0 126 55q0 25 -32.5 40t-93.5 15q-60 0 -93.5 -15t-33.5 -40zM154 292q0 -32 23 -52.5t61 -20.5q37 0 60.5 20t23.5 53t-22.5 54.5t-61.5 21.5q-38 0 -61 -22t-23 -54zM246 706l152 -134
l-54 -68l-101 81l-102 -79l-52 67l153 133h4z" />
    <glyph glyph-name="Gbreve" unicode="&#x11e;" horiz-adv-x="727" 
d="M388 262v115h284v-290q-45 -45 -119.5 -71.5t-142.5 -26.5q-170 0 -267.5 98t-97.5 263q0 154 96 257.5t253 103.5q135 0 225 -71l-52 -98q-26 25 -69 39.5t-89 14.5q-104 0 -169 -65.5t-65 -180.5q0 -111 65 -178.5t172 -67.5q40 0 82.5 14.5t62.5 33.5v110h-169z
M214 841l50 59q56 -63 143 -63q85 0 140 63l43 -60q-27 -43 -76.5 -73t-106.5 -30q-64 0 -116 31.5t-77 72.5z" />
    <glyph glyph-name="gbreve" unicode="&#x11f;" horiz-adv-x="499" 
d="M5 -61q0 54 39.5 89.5t106.5 49.5q-8 14 -8 31q0 19 10 32q-50 20 -78.5 60.5t-28.5 90.5q0 70 53 119.5t139 49.5q65 0 115 -32l136 30l4 -92l-75 -17q11 -28 11 -58q0 -69 -53 -117.5t-138 -48.5h-8q-2 -6 -2 -17q0 -13 6 -23h5q104 0 169 -37t65 -110t-65 -110
t-169 -37q-105 0 -169.5 36.5t-64.5 110.5zM112 -61q0 -26 34 -40.5t93 -14.5q126 0 126 55q0 25 -32.5 40t-93.5 15q-60 0 -93.5 -15t-33.5 -40zM154 292q0 -32 23 -52.5t61 -20.5q37 0 60.5 20t23.5 53t-22.5 54.5t-61.5 21.5q-38 0 -61 -22t-23 -54zM82 624l51 57
q51 -56 110 -56q69 0 112 55l40 -56q-62 -92 -157 -92q-57 0 -97 29.5t-59 62.5z" />
    <glyph glyph-name="Gdotaccent" unicode="&#x120;" horiz-adv-x="727" 
d="M388 262v115h284v-290q-45 -45 -119.5 -71.5t-142.5 -26.5q-170 0 -267.5 98t-97.5 263q0 154 96 257.5t253 103.5q135 0 225 -71l-52 -98q-26 25 -69 39.5t-89 14.5q-104 0 -169 -65.5t-65 -180.5q0 -111 65 -178.5t172 -67.5q40 0 82.5 14.5t62.5 33.5v110h-169z
M299 831q0 32 23 51.5t56 19.5q30 0 52.5 -19.5t22.5 -51.5q0 -34 -22.5 -54.5t-52.5 -20.5q-33 0 -56 20t-23 55z" />
    <glyph glyph-name="gdotaccent" unicode="&#x121;" horiz-adv-x="499" 
d="M5 -61q0 54 39.5 89.5t106.5 49.5q-8 14 -8 31q0 19 10 32q-50 20 -78.5 60.5t-28.5 90.5q0 70 53 119.5t139 49.5q65 0 115 -32l136 30l4 -92l-75 -17q11 -28 11 -58q0 -69 -53 -117.5t-138 -48.5h-8q-2 -6 -2 -17q0 -13 6 -23h5q104 0 169 -37t65 -110t-65 -110
t-169 -37q-105 0 -169.5 36.5t-64.5 110.5zM112 -61q0 -26 34 -40.5t93 -14.5q126 0 126 55q0 25 -32.5 40t-93.5 15q-60 0 -93.5 -15t-33.5 -40zM154 292q0 -32 23 -52.5t61 -20.5q37 0 60.5 20t23.5 53t-22.5 54.5t-61.5 21.5q-38 0 -61 -22t-23 -54zM169 612
q0 30 21 48.5t51 18.5q26 0 46 -18.5t20 -48.5q0 -33 -20 -52.5t-46 -19.5q-31 0 -51.5 19.5t-20.5 52.5z" />
    <glyph glyph-name="Gcommaaccent" unicode="&#x122;" horiz-adv-x="727" 
d="M388 262v115h284v-290q-45 -45 -119.5 -71.5t-142.5 -26.5q-170 0 -267.5 98t-97.5 263q0 154 96 257.5t253 103.5q135 0 225 -71l-52 -98q-26 25 -69 39.5t-89 14.5q-104 0 -169 -65.5t-65 -180.5q0 -111 65 -178.5t172 -67.5q40 0 82.5 14.5t62.5 33.5v110h-169z
M339 -58l112 25q20 -12 20 -49q0 -50 -38 -83t-86 -41l-34 50q43 18 43 60q0 26 -17 38z" />
    <glyph glyph-name="gcommaaccent" unicode="&#x123;" horiz-adv-x="499" 
d="M5 -61q0 54 39.5 89.5t106.5 49.5q-8 14 -8 31q0 19 10 32q-50 20 -78.5 60.5t-28.5 90.5q0 70 53 119.5t139 49.5q65 0 115 -32l136 30l4 -92l-75 -17q11 -28 11 -58q0 -69 -53 -117.5t-138 -48.5h-8q-2 -6 -2 -17q0 -13 6 -23h5q104 0 169 -37t65 -110t-65 -110
t-169 -37q-105 0 -169.5 36.5t-64.5 110.5zM112 -61q0 -26 34 -40.5t93 -14.5q126 0 126 55q0 25 -32.5 40t-93.5 15q-60 0 -93.5 -15t-33.5 -40zM154 292q0 -32 23 -52.5t61 -20.5q37 0 60.5 20t23.5 53t-22.5 54.5t-61.5 21.5q-38 0 -61 -22t-23 -54zM303 555l-112 -25
q-20 12 -20 49q0 50 38 83t86 41l34 -50q-43 -18 -43 -60q0 -26 17 -38z" />
    <glyph glyph-name="Hcircumflex" unicode="&#x124;" horiz-adv-x="760" 
d="M540 0v299h-320v-299h-123v700h123v-286h320v286h122v-700h-122zM202 792l175 112h4l179 -111l-45 -65l-136 71l-136 -71z" />
    <glyph glyph-name="hcircumflex" unicode="&#x125;" horiz-adv-x="546" 
d="M64 0v700h115v-291q51 49 129 49q87 0 136 -47.5t49 -149.5v-261h-115v246q0 50 -26 77t-74 27q-58 0 -99 -41v-309h-115zM-25 792l175 112h4l179 -111l-45 -65l-136 71l-136 -71z" />
    <glyph glyph-name="Hbar" unicode="&#x126;" horiz-adv-x="770" 
d="M22 506v107h80v87h123v-87h320v87h122v-87h80v-107h-80v-506h-122v299h-320v-299h-123v506h-80zM225 414h320v92h-320v-92z" />
    <glyph glyph-name="hbar" unicode="&#x127;" horiz-adv-x="583" 
d="M-5 505v107h106v88h115v-88h148v-107h-148v-96q51 49 129 49q87 0 136 -47.5t49 -149.5v-261h-115v246q0 50 -26 77t-74 27q-58 0 -99 -41v-309h-115v505h-106z" />
    <glyph glyph-name="Imacron" unicode="&#x12a;" horiz-adv-x="347" 
d="M112 0v700h123v-700h-123zM23 760v92h309v-92h-309z" />
    <glyph glyph-name="imacron" unicode="&#x12b;" horiz-adv-x="277" 
d="M81 0v450h115v-450h-115zM-1 550v92h279v-92h-279z" />
    <glyph glyph-name="Iogonek" unicode="&#x12e;" horiz-adv-x="347" 
d="M213 -98l35 -70q-13 -13 -42.5 -22.5t-60.5 -9.5q-57 0 -95.5 23t-38.5 71q0 72 101 106v700h123v-700q-44 0 -76.5 -21t-32.5 -47q0 -21 13.5 -30.5t31.5 -9.5q21 0 42 10z" />
    <glyph glyph-name="iogonek" unicode="&#x12f;" horiz-adv-x="277" 
d="M174 -98l35 -70q-13 -13 -42.5 -22.5t-60.5 -9.5q-57 0 -95.5 23t-38.5 71q0 39 30 67t79 42v447h115v-450h-5q-42 -1 -73 -22t-31 -46q0 -21 13.5 -30.5t31.5 -9.5q21 0 42 10zM66 612q0 30 21 48.5t51 18.5q26 0 46 -18.5t20 -48.5q0 -33 -20 -52.5t-46 -19.5
q-31 0 -51.5 19.5t-20.5 52.5z" />
    <glyph glyph-name="Idotaccent" unicode="&#x130;" horiz-adv-x="347" 
d="M112 0v700h123v-700h-123zM97 831q0 32 23 51.5t56 19.5q30 0 52.5 -19.5t22.5 -51.5q0 -34 -22.5 -54.5t-52.5 -20.5q-33 0 -56 20t-23 55z" />
    <glyph glyph-name="dotlessi" unicode="&#x131;" horiz-adv-x="277" 
d="M81 0v450h115v-450h-115z" />
    <glyph glyph-name="Jcircumflex" unicode="&#x134;" horiz-adv-x="390" 
d="M293 700v-535q0 -85 -42.5 -130.5t-126.5 -45.5q-38 0 -71 13t-48 30l40 94q29 -22 62 -22q63 0 63 82v514h123zM51 792l175 112h4l179 -111l-45 -65l-136 71l-136 -71z" />
    <glyph glyph-name="jcircumflex" unicode="&#x135;" horiz-adv-x="284" 
d="M202 450v-483q0 -175 -141 -175q-74 0 -110 32l31 91q26 -16 51 -16q54 0 54 78v473h115zM147 706l152 -134l-54 -68l-101 81l-102 -79l-52 67l153 133h4z" />
    <glyph glyph-name="Kcommaaccent" unicode="&#x136;" horiz-adv-x="672" 
d="M97 0v700h123v-332l276 332h148l-288 -326l306 -374h-156l-286 361v-361h-123zM269 -58l112 25q20 -12 20 -49q0 -50 -38 -83t-86 -41l-34 50q43 18 43 60q0 26 -17 38z" />
    <glyph glyph-name="kcommaaccent" unicode="&#x137;" horiz-adv-x="514" 
d="M487 450l-169 -206l189 -244h-148l-178 235l161 215h145zM64 0v700h115v-700h-115zM180 -58l112 25q20 -12 20 -49q0 -50 -38 -83t-86 -41l-34 50q43 18 43 60q0 26 -17 38z" />
    <glyph glyph-name="Lacute" unicode="&#x139;" horiz-adv-x="547" 
d="M97 0v700h123v-585h315v-115h-438zM452 812l-225 -81l-32 69l214 111z" />
    <glyph glyph-name="lacute" unicode="&#x13a;" horiz-adv-x="299" 
d="M64 124v576h115v-529q0 -73 39 -73q22 0 47 18l24 -88q-47 -38 -119 -38q-106 0 -106 134zM328 812l-225 -81l-32 69l214 111z" />
    <glyph glyph-name="Lcommaaccent" unicode="&#x13b;" horiz-adv-x="547" 
d="M97 0v700h123v-585h315v-115h-438zM244 -58l112 25q20 -12 20 -49q0 -50 -38 -83t-86 -41l-34 50q43 18 43 60q0 26 -17 38z" />
    <glyph glyph-name="lcommaaccent" unicode="&#x13c;" horiz-adv-x="299" 
d="M64 124v576h115v-529q0 -73 39 -73q22 0 47 18l24 -88q-47 -38 -119 -38q-106 0 -106 134zM110 -58l112 25q20 -12 20 -49q0 -50 -38 -83t-86 -41l-34 50q43 18 43 60q0 26 -17 38z" />
    <glyph glyph-name="Lcaron" unicode="&#x13d;" horiz-adv-x="547" 
d="M97 0v700h123v-585h315v-115h-438zM356 700h112q6 -12 6 -35q0 -119 -99 -174l-53 50q45 43 45 110q0 25 -11 49z" />
    <glyph glyph-name="lcaron" unicode="&#x13e;" horiz-adv-x="299" 
d="M64 124v576h115v-529q0 -73 39 -73q22 0 47 18l24 -88q-47 -38 -119 -38q-106 0 -106 134zM256 700h112q6 -12 6 -35q0 -119 -99 -174l-53 50q45 43 45 110q0 25 -11 49z" />
    <glyph glyph-name="Ldot" unicode="&#x13f;" horiz-adv-x="547" 
d="M97 0v700h123v-585h315v-115h-438zM356 375q0 28 22 51t58 23q31 0 52 -23t21 -51q0 -32 -21 -56t-52 -24q-36 0 -58 24t-22 56z" />
    <glyph glyph-name="ldot" unicode="&#x140;" horiz-adv-x="350" 
d="M64 124v576h115v-529q0 -73 39 -73q22 0 47 18l24 -88q-47 -38 -119 -38q-106 0 -106 134zM228 338q0 30 21 48.5t51 18.5q26 0 46 -18.5t20 -48.5q0 -33 -20 -52.5t-46 -19.5q-31 0 -51.5 19.5t-20.5 52.5z" />
    <glyph glyph-name="Lslash" unicode="&#x141;" horiz-adv-x="557" 
d="M22 204v118l85 39v339h123v-282l163 75v-117l-163 -76v-185h315v-115h-438v243z" />
    <glyph glyph-name="lslash" unicode="&#x142;" horiz-adv-x="329" 
d="M12 202v118l72 33v347h115v-294l94 43v-118l-94 -43v-117q0 -73 39 -73q22 0 47 18l24 -88q-47 -38 -119 -38q-106 0 -106 134v111z" />
    <glyph glyph-name="Nacute" unicode="&#x143;" horiz-adv-x="792" 
d="M695 0h-98l-385 485v-485h-115v700h98l385 -487v487h115v-700zM579 812l-225 -81l-32 69l214 111z" />
    <glyph glyph-name="nacute" unicode="&#x144;" horiz-adv-x="546" 
d="M64 0v450h115v-45q49 53 129 53q185 0 185 -194v-264h-115v244q0 106 -101 106q-55 0 -98 -43v-307h-115zM405 662l-126 -145l-69 48l105 165z" />
    <glyph glyph-name="Ncommaaccent" unicode="&#x145;" horiz-adv-x="792" 
d="M695 0h-98l-385 485v-485h-115v700h98l385 -487v487h115v-700zM331 -58l112 25q20 -12 20 -49q0 -50 -38 -83t-86 -41l-34 50q43 18 43 60q0 26 -17 38z" />
    <glyph glyph-name="ncommaaccent" unicode="&#x146;" horiz-adv-x="546" 
d="M64 0v450h115v-45q49 53 129 53q185 0 185 -194v-264h-115v244q0 106 -101 106q-55 0 -98 -43v-307h-115zM206 -58l112 25q20 -12 20 -49q0 -50 -38 -83t-86 -41l-34 50q43 18 43 60q0 26 -17 38z" />
    <glyph glyph-name="Ncaron" unicode="&#x147;" horiz-adv-x="792" 
d="M695 0h-98l-385 485v-485h-115v700h98l385 -487v487h115v-700zM397 735l-179 111l45 65l136 -79l135 79l41 -64l-174 -112h-4z" />
    <glyph glyph-name="ncaron" unicode="&#x148;" horiz-adv-x="546" 
d="M64 0v450h115v-45q49 53 129 53q185 0 185 -194v-264h-115v244q0 106 -101 106q-55 0 -98 -43v-307h-115zM270 509l-152 134l54 68l101 -92l102 90l52 -67l-153 -133h-4z" />
    <glyph glyph-name="Omacron" unicode="&#x14c;" horiz-adv-x="819" 
d="M45 350q0 154 102.5 257.5t261.5 103.5q158 0 261.5 -100t103.5 -261q0 -157 -104 -259t-261 -102q-158 0 -261 100t-103 261zM175 350q0 -105 67.5 -175.5t166.5 -70.5q108 0 171.5 70t63.5 176q0 108 -67.5 177t-167.5 69q-101 0 -167.5 -69t-66.5 -177zM262 760v92
h309v-92h-309z" />
    <glyph glyph-name="omacron" unicode="&#x14d;" horiz-adv-x="562" 
d="M36 225q0 103 67.5 169.5t177.5 66.5t177.5 -66.5t67.5 -169.5t-67.5 -169.5t-177.5 -66.5t-177.5 66.5t-67.5 169.5zM159 225q0 -56 34.5 -92.5t87.5 -36.5q54 0 88.5 35.5t34.5 93.5q0 56 -35 92t-88 36q-52 0 -87 -35.5t-35 -92.5zM149 550v92h279v-92h-279z" />
    <glyph glyph-name="Ohungarumlaut" unicode="&#x150;" horiz-adv-x="819" 
d="M45 350q0 154 102.5 257.5t261.5 103.5q158 0 261.5 -100t103.5 -261q0 -157 -104 -259t-261 -102q-158 0 -261 100t-103 261zM175 350q0 -105 67.5 -175.5t166.5 -70.5q108 0 171.5 70t63.5 176q0 108 -67.5 177t-167.5 69q-101 0 -167.5 -69t-66.5 -177zM678 839
l-191 -108l-47 49l158 131zM471 860l-164 -129l-49 46l114 134z" />
    <glyph glyph-name="ohungarumlaut" unicode="&#x151;" horiz-adv-x="562" 
d="M36 225q0 103 67.5 169.5t177.5 66.5t177.5 -66.5t67.5 -169.5t-67.5 -169.5t-177.5 -66.5t-177.5 66.5t-67.5 169.5zM159 225q0 -56 34.5 -92.5t87.5 -36.5q54 0 88.5 35.5t34.5 93.5q0 56 -35 92t-88 36q-52 0 -87 -35.5t-35 -92.5zM499 656l-132 -139l-69 48l116 156z
M318 670l-114 -153l-69 48l101 166z" />
    <glyph glyph-name="OE" unicode="&#x152;" horiz-adv-x="1038" 
d="M560 0v20q-72 -31 -154 -31q-161 0 -261 99t-100 262q0 157 95 259t263 102q87 0 157 -34v23h405v-115h-282v-174h252v-115h-252v-181h292v-115h-415zM417 104q79 0 143 40v405q-70 47 -157 47q-99 0 -163.5 -67t-64.5 -179q0 -109 67.5 -177.5t174.5 -68.5z" />
    <glyph glyph-name="oe" unicode="&#x153;" horiz-adv-x="833" 
d="M734 126l32 -81q-65 -56 -172 -56q-94 0 -156 48q-63 -48 -157 -48q-110 0 -177.5 66.5t-67.5 169.5t67.5 169.5t177.5 66.5q93 0 157 -50q63 50 153 50q89 0 151 -58.5t62 -150.5q0 -38 -7 -62h-325q7 -50 43.5 -77.5t90.5 -27.5q77 0 128 41zM281 96q54 0 89 32
q-17 45 -17 97q0 53 18 97q-38 31 -90 31t-87.5 -35.5t-35.5 -92.5q0 -56 35 -92.5t88 -36.5zM586 365q-98 0 -118 -98h221q1 42 -27 70t-76 28z" />
    <glyph glyph-name="Racute" unicode="&#x154;" horiz-adv-x="658" 
d="M220 0h-123v700q22 0 113.5 1t99.5 1q254 0 254 -216q0 -81 -41 -131.5t-94 -68.5l219 -286h-149l-193 262h-86v-262zM304 587q-18 0 -84 -2v-208h80q57 0 95.5 28.5t38.5 79.5q0 102 -130 102zM464 812l-225 -81l-32 69l214 111z" />
    <glyph glyph-name="racute" unicode="&#x155;" horiz-adv-x="354" 
d="M64 0v450h115v-44q38 52 103 52q47 0 70 -17l-41 -108q-29 17 -58 17q-50 0 -74 -48v-302h-115zM317 662l-126 -145l-69 48l105 165z" />
    <glyph glyph-name="Rcommaaccent" unicode="&#x156;" horiz-adv-x="658" 
d="M220 0h-123v700q22 0 113.5 1t99.5 1q254 0 254 -216q0 -81 -41 -131.5t-94 -68.5l219 -286h-149l-193 262h-86v-262zM304 587q-18 0 -84 -2v-208h80q57 0 95.5 28.5t38.5 79.5q0 102 -130 102zM261 -58l112 25q20 -12 20 -49q0 -50 -38 -83t-86 -41l-34 50q43 18 43 60
q0 26 -17 38z" />
    <glyph glyph-name="rcommaaccent" unicode="&#x157;" horiz-adv-x="354" 
d="M64 0v450h115v-44q38 52 103 52q47 0 70 -17l-41 -108q-29 17 -58 17q-50 0 -74 -48v-302h-115zM104 -58l112 25q20 -12 20 -49q0 -50 -38 -83t-86 -41l-34 50q43 18 43 60q0 26 -17 38z" />
    <glyph glyph-name="Rcaron" unicode="&#x158;" horiz-adv-x="658" 
d="M220 0h-123v700q22 0 113.5 1t99.5 1q254 0 254 -216q0 -81 -41 -131.5t-94 -68.5l219 -286h-149l-193 262h-86v-262zM304 587q-18 0 -84 -2v-208h80q57 0 95.5 28.5t38.5 79.5q0 102 -130 102zM302 735l-179 111l45 65l136 -79l135 79l41 -64l-174 -112h-4z" />
    <glyph glyph-name="rcaron" unicode="&#x159;" horiz-adv-x="354" 
d="M64 0v450h115v-44q38 52 103 52q47 0 70 -17l-41 -108q-29 17 -58 17q-50 0 -74 -48v-302h-115zM195 509l-152 134l54 68l101 -92l102 90l52 -67l-153 -133h-4z" />
    <glyph glyph-name="Sacute" unicode="&#x15a;" horiz-adv-x="553" 
d="M378 186q0 28 -17.5 49.5t-45.5 37t-61.5 30t-67.5 33t-62 41t-45.5 59t-17.5 82.5q0 82 59.5 137.5t158.5 55.5q132 0 200 -75l-66 -92q-54 52 -124 52q-45 0 -71.5 -21t-26.5 -56q0 -34 23.5 -59t58.5 -39.5t76.5 -34.5t76.5 -41.5t58.5 -62t23.5 -95.5
q0 -87 -67 -142.5t-167 -55.5q-72 0 -138.5 29.5t-90.5 80.5l70 84q29 -38 73.5 -58.5t87.5 -20.5q45 0 73.5 21.5t28.5 60.5zM466 812l-225 -81l-32 69l214 111z" />
    <glyph glyph-name="sacute" unicode="&#x15b;" horiz-adv-x="444" 
d="M292 127q0 20 -25 32.5t-61 22t-71.5 23t-60.5 43.5t-25 76q0 64 46.5 100.5t118.5 36.5q110 0 171 -57l-43 -82q-55 43 -122 43q-25 0 -40.5 -11.5t-15.5 -27.5q0 -17 18 -29.5t45 -18.5t58.5 -17t58.5 -24t45 -40t18 -64q0 -66 -49.5 -105t-132.5 -39q-58 0 -114.5 25
t-73.5 52l56 75q20 -22 63 -39t77 -17q26 0 42.5 11t16.5 31zM340 662l-126 -145l-69 48l105 165z" />
    <glyph glyph-name="Scircumflex" unicode="&#x15c;" horiz-adv-x="553" 
d="M378 186q0 28 -17.5 49.5t-45.5 37t-61.5 30t-67.5 33t-62 41t-45.5 59t-17.5 82.5q0 82 59.5 137.5t158.5 55.5q132 0 200 -75l-66 -92q-54 52 -124 52q-45 0 -71.5 -21t-26.5 -56q0 -34 23.5 -59t58.5 -39.5t76.5 -34.5t76.5 -41.5t58.5 -62t23.5 -95.5
q0 -87 -67 -142.5t-167 -55.5q-72 0 -138.5 29.5t-90.5 80.5l70 84q29 -38 73.5 -58.5t87.5 -20.5q45 0 73.5 21.5t28.5 60.5zM97 792l175 112h4l179 -111l-45 -65l-136 71l-136 -71z" />
    <glyph glyph-name="scircumflex" unicode="&#x15d;" horiz-adv-x="444" 
d="M292 127q0 20 -25 32.5t-61 22t-71.5 23t-60.5 43.5t-25 76q0 64 46.5 100.5t118.5 36.5q110 0 171 -57l-43 -82q-55 43 -122 43q-25 0 -40.5 -11.5t-15.5 -27.5q0 -17 18 -29.5t45 -18.5t58.5 -17t58.5 -24t45 -40t18 -64q0 -66 -49.5 -105t-132.5 -39q-58 0 -114.5 25
t-73.5 52l56 75q20 -22 63 -39t77 -17q26 0 42.5 11t16.5 31zM225 706l152 -134l-54 -68l-101 81l-102 -79l-52 67l153 133h4z" />
    <glyph glyph-name="Scedilla" unicode="&#x15e;" horiz-adv-x="553" 
d="M136 -163l37 58q40 -33 74 -33q39 0 39 25q0 28 -41 28h-6v76q-65 7 -119 35.5t-75 72.5l70 84q29 -38 73.5 -58.5t87.5 -20.5q45 0 73.5 21.5t28.5 60.5q0 28 -17.5 49.5t-45.5 37t-61.5 30t-67.5 33t-62 41t-45.5 59t-17.5 82.5q0 82 59.5 137.5t158.5 55.5
q132 0 200 -75l-66 -92q-54 52 -124 52q-45 0 -71.5 -21t-26.5 -56q0 -34 23.5 -59t58.5 -39.5t76.5 -34.5t76.5 -41.5t58.5 -62t23.5 -95.5q0 -82 -59.5 -136t-151.5 -61v-25q111 -6 111 -85q0 -39 -35.5 -63.5t-97.5 -24.5q-81 0 -139 45z" />
    <glyph glyph-name="scedilla" unicode="&#x15f;" horiz-adv-x="444" 
d="M84 -166l34 54q33 -26 70 -26q39 0 39 25q0 28 -41 28h-6v79q-48 8 -88.5 29.5t-54.5 42.5l56 75q20 -22 63 -39t77 -17q26 0 42.5 11t16.5 31t-25 32.5t-61 22t-71.5 23t-60.5 43.5t-25 76q0 64 46.5 100.5t118.5 36.5q110 0 171 -57l-43 -82q-55 43 -122 43
q-25 0 -40.5 -11.5t-15.5 -27.5q0 -17 18 -29.5t45 -18.5t58.5 -17t58.5 -24t45 -40t18 -64q0 -64 -46 -102t-123 -41v-25q104 -6 104 -85q0 -40 -36 -64t-102 -24q-63 0 -120 42z" />
    <glyph glyph-name="Scaron" unicode="&#x160;" horiz-adv-x="553" 
d="M378 186q0 28 -17.5 49.5t-45.5 37t-61.5 30t-67.5 33t-62 41t-45.5 59t-17.5 82.5q0 82 59.5 137.5t158.5 55.5q132 0 200 -75l-66 -92q-54 52 -124 52q-45 0 -71.5 -21t-26.5 -56q0 -34 23.5 -59t58.5 -39.5t76.5 -34.5t76.5 -41.5t58.5 -62t23.5 -95.5
q0 -87 -67 -142.5t-167 -55.5q-72 0 -138.5 29.5t-90.5 80.5l70 84q29 -38 73.5 -58.5t87.5 -20.5q45 0 73.5 21.5t28.5 60.5zM279 735l-179 111l45 65l136 -79l135 79l41 -64l-174 -112h-4z" />
    <glyph glyph-name="scaron" unicode="&#x161;" horiz-adv-x="444" 
d="M292 127q0 20 -25 32.5t-61 22t-71.5 23t-60.5 43.5t-25 76q0 64 46.5 100.5t118.5 36.5q110 0 171 -57l-43 -82q-55 43 -122 43q-25 0 -40.5 -11.5t-15.5 -27.5q0 -17 18 -29.5t45 -18.5t58.5 -17t58.5 -24t45 -40t18 -64q0 -66 -49.5 -105t-132.5 -39q-58 0 -114.5 25
t-73.5 52l56 75q20 -22 63 -39t77 -17q26 0 42.5 11t16.5 31zM219 509l-152 134l54 68l101 -92l102 90l52 -67l-153 -133h-4z" />
    <glyph glyph-name="Tcedilla" unicode="&#x162;" horiz-adv-x="597" 
d="M168 -163l37 58q40 -33 74 -33q39 0 39 25q0 28 -41 28h-6v85h-34v585h-227v115h577v-115h-227v-585h-31v-35q111 -6 111 -85q0 -39 -35.5 -63.5t-97.5 -24.5q-81 0 -139 45z" />
    <glyph glyph-name="tcedilla" unicode="&#x163;" horiz-adv-x="360" 
d="M54 -166l34 54q33 -26 70 -26q39 0 39 25q0 28 -41 28h-6v82q-90 26 -90 174v404h115v-125h145v-108h-145v-164q0 -81 54 -81q34 0 69 26l35 -89q-51 -41 -125 -44v-25q104 -6 104 -85q0 -40 -36 -64t-102 -24q-63 0 -120 42z" />
    <glyph glyph-name="Tcaron" unicode="&#x164;" horiz-adv-x="597" 
d="M10 585v115h577v-115h-227v-585h-123v585h-227zM294 735l-179 111l45 65l136 -79l135 79l41 -64l-174 -112h-4z" />
    <glyph glyph-name="tcaron" unicode="&#x165;" horiz-adv-x="360" 
d="M54 171v404h115v-125h145v-108h-145v-164q0 -81 54 -81q34 0 69 26l35 -89q-54 -44 -133 -44q-74 0 -107 45.5t-33 135.5zM251 700h112q6 -12 6 -35q0 -119 -99 -174l-53 50q45 43 45 110q0 25 -11 49z" />
    <glyph glyph-name="Umacron" unicode="&#x16a;" horiz-adv-x="751" 
d="M663 700v-410q0 -151 -79 -226t-199 -75q-135 0 -216.5 79.5t-81.5 228.5v403h123v-377q0 -102 43.5 -160.5t131.5 -58.5q156 0 156 211v385h122zM228 760v92h309v-92h-309z" />
    <glyph glyph-name="umacron" unicode="&#x16b;" horiz-adv-x="535" 
d="M471 450v-450h-115v55q-54 -66 -144 -66q-70 0 -114 47t-44 139v275h115v-251q0 -103 86 -103q59 0 101 55v299h115zM124 550v92h279v-92h-279z" />
    <glyph glyph-name="Ubreve" unicode="&#x16c;" horiz-adv-x="751" 
d="M663 700v-410q0 -151 -79 -226t-199 -75q-135 0 -216.5 79.5t-81.5 228.5v403h123v-377q0 -102 43.5 -160.5t131.5 -58.5q156 0 156 211v385h122zM184 841l50 59q56 -63 143 -63q85 0 140 63l43 -60q-27 -43 -76.5 -73t-106.5 -30q-64 0 -116 31.5t-77 72.5z" />
    <glyph glyph-name="ubreve" unicode="&#x16d;" horiz-adv-x="535" 
d="M471 450v-450h-115v55q-54 -66 -144 -66q-70 0 -114 47t-44 139v275h115v-251q0 -103 86 -103q59 0 101 55v299h115zM106 624l51 57q51 -56 110 -56q69 0 112 55l40 -56q-62 -92 -157 -92q-57 0 -97 29.5t-59 62.5z" />
    <glyph glyph-name="Uring" unicode="&#x16e;" horiz-adv-x="751" 
d="M663 700v-410q0 -151 -79 -226t-199 -75q-135 0 -216.5 79.5t-81.5 228.5v403h123v-377q0 -102 43.5 -160.5t131.5 -58.5q156 0 156 211v385h122zM236 800q0 54 39 81t100 27q63 0 103 -27t40 -81q0 -53 -40.5 -81.5t-102.5 -28.5q-61 0 -100 28.5t-39 81.5zM321 800
q0 -23 15.5 -35t39.5 -12q25 0 41 12t16 35q0 45 -57 45q-55 0 -55 -45z" />
    <glyph glyph-name="uring" unicode="&#x16f;" horiz-adv-x="535" 
d="M471 450v-450h-115v55q-54 -66 -144 -66q-70 0 -114 47t-44 139v275h115v-251q0 -103 86 -103q59 0 101 55v299h115zM137 612q0 50 36 85t90 35q55 0 91.5 -35t36.5 -85q0 -49 -36.5 -83.5t-91.5 -34.5q-54 0 -90 34.5t-36 83.5zM211 613q0 -24 15 -40.5t39 -16.5
q23 0 37.5 16.5t14.5 40.5t-14.5 40t-37.5 16q-24 0 -39 -16t-15 -40z" />
    <glyph glyph-name="Uhungarumlaut" unicode="&#x170;" horiz-adv-x="751" 
d="M663 700v-410q0 -151 -79 -226t-199 -75q-135 0 -216.5 79.5t-81.5 228.5v403h123v-377q0 -102 43.5 -160.5t131.5 -58.5q156 0 156 211v385h122zM630 839l-191 -108l-47 49l158 131zM423 860l-164 -129l-49 46l114 134z" />
    <glyph glyph-name="uhungarumlaut" unicode="&#x171;" horiz-adv-x="535" 
d="M471 450v-450h-115v55q-54 -66 -144 -66q-70 0 -114 47t-44 139v275h115v-251q0 -103 86 -103q59 0 101 55v299h115zM481 656l-132 -139l-69 48l116 156zM300 670l-114 -153l-69 48l101 166z" />
    <glyph glyph-name="Uogonek" unicode="&#x172;" horiz-adv-x="751" 
d="M663 700v-410q0 -122 -52 -194.5t-139 -95.5q-68 -32 -68 -68q0 -21 13.5 -30.5t31.5 -9.5q21 0 42 10l35 -70q-13 -13 -42.5 -22.5t-60.5 -9.5q-57 0 -95.5 23t-38.5 71q0 59 79 95q-128 5 -204.5 84t-76.5 224v403h123v-377q0 -102 43.5 -160.5t131.5 -58.5
q156 0 156 211v385h122z" />
    <glyph glyph-name="uogonek" unicode="&#x173;" horiz-adv-x="535" 
d="M449 -98l35 -70q-13 -13 -42.5 -22.5t-60.5 -9.5q-57 0 -95.5 23t-38.5 71q0 39 30 67t79 42v52q-54 -66 -144 -66q-70 0 -114 47t-44 139v275h115v-251q0 -103 86 -103q59 0 101 55v299h115v-450h-5q-42 -1 -73 -22t-31 -46q0 -21 13.5 -30.5t31.5 -9.5q21 0 42 10z" />
    <glyph glyph-name="Ydieresis" unicode="&#x178;" horiz-adv-x="629" 
d="M624 700l-249 -408v-292h-123v292l-247 408h140l174 -293l172 293h133zM124 825q0 28 22 45t55 17q29 0 50 -17t21 -45q0 -31 -21 -48.5t-50 -17.5q-33 0 -55 17.5t-22 48.5zM356 825q0 28 22 45t55 17q29 0 50 -17t21 -45q0 -31 -21 -48.5t-50 -17.5q-33 0 -55 17.5
t-22 48.5z" />
    <glyph glyph-name="Zacute" unicode="&#x179;" horiz-adv-x="642" 
d="M60 585v115h532v-85l-388 -500h398v-115h-562v84l387 501h-367zM502 812l-225 -81l-32 69l214 111z" />
    <glyph glyph-name="zacute" unicode="&#x17a;" horiz-adv-x="490" 
d="M57 342v108h390v-83l-244 -260h239v-107h-400v83l244 259h-229zM371 662l-126 -145l-69 48l105 165z" />
    <glyph glyph-name="Zdotaccent" unicode="&#x17b;" horiz-adv-x="642" 
d="M60 585v115h532v-85l-388 -500h398v-115h-562v84l387 501h-367zM247 831q0 32 23 51.5t56 19.5q30 0 52.5 -19.5t22.5 -51.5q0 -34 -22.5 -54.5t-52.5 -20.5q-33 0 -56 20t-23 55z" />
    <glyph glyph-name="zdotaccent" unicode="&#x17c;" horiz-adv-x="490" 
d="M57 342v108h390v-83l-244 -260h239v-107h-400v83l244 259h-229zM173 612q0 30 21 48.5t51 18.5q26 0 46 -18.5t20 -48.5q0 -33 -20 -52.5t-46 -19.5q-31 0 -51.5 19.5t-20.5 52.5z" />
    <glyph glyph-name="Zcaron" unicode="&#x17d;" horiz-adv-x="642" 
d="M60 585v115h532v-85l-388 -500h398v-115h-562v84l387 501h-367zM327 735l-179 111l45 65l136 -79l135 79l41 -64l-174 -112h-4z" />
    <glyph glyph-name="zcaron" unicode="&#x17e;" horiz-adv-x="490" 
d="M57 342v108h390v-83l-244 -260h239v-107h-400v83l244 259h-229zM250 509l-152 134l54 68l101 -92l102 90l52 -67l-153 -133h-4z" />
    <glyph glyph-name="longs" unicode="&#x17f;" horiz-adv-x="258" 
d="M69 0v523q0 92 42 140t118 48q86 0 126 -42l-39 -88q-22 22 -66 22q-66 0 -66 -89v-514h-115z" />
    <glyph glyph-name="uni018F" unicode="&#x18f;" horiz-adv-x="781" 
d="M47 414h556q-18 86 -84 134t-164 48q-92 0 -165 -54l-47 92q90 77 241 77q156 0 254 -99t98 -261q0 -164 -96.5 -263t-257.5 -99q-164 0 -260 116t-75 309zM380 104q93 0 152.5 50.5t75.5 144.5h-434q6 -82 61.5 -138.5t144.5 -56.5z" />
    <glyph glyph-name="florin" unicode="&#x192;" 
d="M403 514l-11 -64h115v-108h-134l-66 -375q-17 -89 -51 -132t-105 -43q-74 0 -110 32l31 91q26 -16 52 -16q53 0 68 79l64 364h-117v108h136l13 73q19 99 57 143.5t111 44.5q85 0 125 -42l-39 -88q-22 22 -66 22q-57 0 -73 -89z" />
    <glyph glyph-name="uni01DD" unicode="&#x1dd;" horiz-adv-x="516" 
d="M103 324l-32 81q66 56 174 56t171.5 -64.5t63.5 -171.5q0 -103 -60 -169.5t-168 -66.5q-96 0 -159.5 58t-63.5 151q0 40 7 64h330q-8 47 -44 75t-89 28q-77 0 -130 -41zM253 85q50 0 79 26.5t37 73.5h-221q-1 -44 27.5 -72t77.5 -28z" />
    <glyph glyph-name="Scommaaccent" unicode="&#x218;" horiz-adv-x="553" 
d="M378 186q0 28 -17.5 49.5t-45.5 37t-61.5 30t-67.5 33t-62 41t-45.5 59t-17.5 82.5q0 82 59.5 137.5t158.5 55.5q132 0 200 -75l-66 -92q-54 52 -124 52q-45 0 -71.5 -21t-26.5 -56q0 -34 23.5 -59t58.5 -39.5t76.5 -34.5t76.5 -41.5t58.5 -62t23.5 -95.5
q0 -87 -67 -142.5t-167 -55.5q-72 0 -138.5 29.5t-90.5 80.5l70 84q29 -38 73.5 -58.5t87.5 -20.5q45 0 73.5 21.5t28.5 60.5zM221 -58l112 25q20 -12 20 -49q0 -50 -38 -83t-86 -41l-34 50q43 18 43 60q0 26 -17 38z" />
    <glyph glyph-name="scommaaccent" unicode="&#x219;" horiz-adv-x="444" 
d="M292 127q0 20 -25 32.5t-61 22t-71.5 23t-60.5 43.5t-25 76q0 64 46.5 100.5t118.5 36.5q110 0 171 -57l-43 -82q-55 43 -122 43q-25 0 -40.5 -11.5t-15.5 -27.5q0 -17 18 -29.5t45 -18.5t58.5 -17t58.5 -24t45 -40t18 -64q0 -66 -49.5 -105t-132.5 -39q-58 0 -114.5 25
t-73.5 52l56 75q20 -22 63 -39t77 -17q26 0 42.5 11t16.5 31zM162 -58l112 25q20 -12 20 -49q0 -50 -38 -83t-86 -41l-34 50q43 18 43 60q0 26 -17 38z" />
    <glyph glyph-name="Tcommaaccent" unicode="&#x21a;" horiz-adv-x="597" 
d="M10 585v115h577v-115h-227v-585h-123v585h-227zM229 -58l112 25q20 -12 20 -49q0 -50 -38 -83t-86 -41l-34 50q43 18 43 60q0 26 -17 38z" />
    <glyph glyph-name="tcommaaccent" unicode="&#x21b;" horiz-adv-x="360" 
d="M54 171v404h115v-125h145v-108h-145v-164q0 -81 54 -81q34 0 69 26l35 -89q-54 -44 -133 -44q-74 0 -107 45.5t-33 135.5zM110 -58l112 25q20 -12 20 -49q0 -50 -38 -83t-86 -41l-34 50q43 18 43 60q0 26 -17 38z" />
    <glyph glyph-name="uni0237" unicode="&#x237;" horiz-adv-x="284" 
d="M202 450v-483q0 -175 -141 -175q-74 0 -110 32l31 91q26 -16 51 -16q54 0 54 78v473h115z" />
    <glyph glyph-name="uni0259" unicode="&#x259;" horiz-adv-x="516" 
d="M103 324l-32 81q66 56 174 56t171.5 -64.5t63.5 -171.5q0 -103 -60 -169.5t-168 -66.5q-96 0 -159.5 58t-63.5 151q0 40 7 64h330q-8 47 -44 75t-89 28q-77 0 -130 -41zM253 85q50 0 79 26.5t37 73.5h-221q-1 -44 27.5 -72t77.5 -28z" />
    <glyph glyph-name="afii57929" unicode="&#x2bc;" horiz-adv-x="273" 
d="M82 628l97 57q34 -36 34 -93q0 -63 -30 -106.5t-70 -65.5l-53 49q45 37 45 97q0 39 -23 62z" />
    <glyph glyph-name="circumflex" unicode="&#x2c6;" horiz-adv-x="429" 
d="M217 706l152 -134l-54 -68l-101 81l-102 -79l-52 67l153 133h4z" />
    <glyph glyph-name="caron" unicode="&#x2c7;" horiz-adv-x="429" 
d="M212 509l-152 134l54 68l101 -92l102 90l52 -67l-153 -133h-4z" />
    <glyph glyph-name="breve" unicode="&#x2d8;" horiz-adv-x="433" 
d="M60 624l51 57q51 -56 110 -56q69 0 112 55l40 -56q-62 -92 -157 -92q-57 0 -97 29.5t-59 62.5z" />
    <glyph glyph-name="dotaccent" unicode="&#x2d9;" horiz-adv-x="258" 
d="M60 612q0 30 21 48.5t51 18.5q26 0 46 -18.5t20 -48.5q0 -33 -20 -52.5t-46 -19.5q-31 0 -51.5 19.5t-20.5 52.5z" />
    <glyph glyph-name="ring" unicode="&#x2da;" horiz-adv-x="374" 
d="M60 612q0 50 36 85t90 35q55 0 91.5 -35t36.5 -85q0 -49 -36.5 -83.5t-91.5 -34.5q-54 0 -90 34.5t-36 83.5zM134 613q0 -24 15 -40.5t39 -16.5q23 0 37.5 16.5t14.5 40.5t-14.5 40t-37.5 16q-24 0 -39 -16t-15 -40z" />
    <glyph glyph-name="ogonek" unicode="&#x2db;" horiz-adv-x="357" 
d="M262 -98l35 -70q-13 -13 -42.5 -22.5t-60.5 -9.5q-57 0 -95.5 23t-38.5 71q0 60 68.5 93t155.5 33v-20q-44 0 -76.5 -21t-32.5 -47q0 -21 13.5 -30.5t31.5 -9.5q21 0 42 10z" />
    <glyph glyph-name="tilde" unicode="&#x2dc;" horiz-adv-x="464" 
d="M107 538l-47 52q55 69 121 69q24 0 59.5 -21t55.5 -21q14 0 26 4.5t19 9t24 17.5l39 -58q-59 -65 -117 -65q-22 0 -58 20.5t-59 20.5t-63 -28z" />
    <glyph glyph-name="hungarumlaut" unicode="&#x2dd;" horiz-adv-x="484" 
d="M424 656l-132 -139l-69 48l116 156zM243 670l-114 -153l-69 48l101 166z" />
    <glyph glyph-name="gravecomb" unicode="&#x300;" horiz-adv-x="0" 
d="M-267 517l-127 143l91 68l104 -163z" />
    <glyph glyph-name="acutecomb" unicode="&#x301;" horiz-adv-x="0" 
d="M-115 662l-126 -145l-69 48l105 165z" />
    <glyph glyph-name="uni0394" unicode="&#x394;" horiz-adv-x="741" 
d="M25 0l303 708h78l310 -708h-691zM364 502l-161 -387h330z" />
    <glyph glyph-name="uni0394" unicode="&#x2206;" horiz-adv-x="741" 
d="M25 0l303 708h78l310 -708h-691zM364 502l-161 -387h330z" />
    <glyph glyph-name="uni03A9" unicode="&#x3a9;" horiz-adv-x="823" 
d="M54 0v115h157q-59 19 -107.5 93.5t-48.5 171.5q0 149 102 240t255 91q155 0 256 -90.5t101 -240.5q0 -101 -49 -172.5t-108 -92.5h156v-115h-313v115q83 23 133.5 92.5t50.5 152.5q0 97 -62.5 166.5t-164.5 69.5q-107 0 -167 -69.5t-60 -169.5q0 -77 50 -149.5t133 -92.5
v-115h-314z" />
    <glyph glyph-name="uni03A9" unicode="&#x2126;" horiz-adv-x="823" 
d="M54 0v115h157q-59 19 -107.5 93.5t-48.5 171.5q0 149 102 240t255 91q155 0 256 -90.5t101 -240.5q0 -101 -49 -172.5t-108 -92.5h156v-115h-313v115q83 23 133.5 92.5t50.5 152.5q0 97 -62.5 166.5t-164.5 69.5q-107 0 -167 -69.5t-60 -169.5q0 -77 50 -149.5t133 -92.5
v-115h-314z" />
    <glyph glyph-name="pi" unicode="&#x3c0;" horiz-adv-x="627" 
d="M42 342v108h534v-108h-77v-176q0 -68 33 -68q19 0 46 18l24 -88q-47 -38 -118 -38q-100 0 -100 129v223h-145v-45q0 -121 -24.5 -189t-66.5 -92.5t-113 -24.5l-10 112q43 -3 69.5 35.5t29.5 141.5l1 62h-83z" />
    <glyph glyph-name="afii10023" unicode="&#x401;" horiz-adv-x="575" 
d="M97 0v700h405v-115h-282v-174h252v-115h-252v-181h292v-115h-415zM119 825q0 28 22 45t55 17q29 0 50 -17t21 -45q0 -31 -21 -48.5t-50 -17.5q-33 0 -55 17.5t-22 48.5zM351 825q0 28 22 45t55 17q29 0 50 -17t21 -45q0 -31 -21 -48.5t-50 -17.5q-33 0 -55 17.5t-22 48.5
z" />
    <glyph glyph-name="afii10051" unicode="&#x402;" horiz-adv-x="764" 
d="M719 203q0 -107 -47.5 -160.5t-131.5 -53.5q-38 0 -72 13.5t-47 29.5l41 94q29 -22 62 -22q73 0 73 97q0 107 -111 107q-64 0 -126 -37v-271h-123v585h-227v115h577v-115h-227v-202q66 40 149 40q210 0 210 -220z" />
    <glyph glyph-name="afii10052" unicode="&#x403;" horiz-adv-x="507" 
d="M97 0v700h395v-115h-272v-585h-123zM509 812l-225 -81l-32 69l214 111z" />
    <glyph glyph-name="afii10053" unicode="&#x404;" horiz-adv-x="673" 
d="M486 414v-115h-315q16 -95 86.5 -145t166.5 -50q98 0 177 61l45 -103q-38 -33 -99.5 -53t-132.5 -20q-169 0 -269 97t-100 264q0 160 98.5 260.5t253.5 100.5q151 0 241 -77l-55 -92q-72 54 -164 54q-99 0 -163.5 -48t-82.5 -134h313z" />
    <glyph glyph-name="afii10054" unicode="&#x405;" horiz-adv-x="553" 
d="M378 186q0 28 -17.5 49.5t-45.5 37t-61.5 30t-67.5 33t-62 41t-45.5 59t-17.5 82.5q0 82 59.5 137.5t158.5 55.5q132 0 200 -75l-66 -92q-54 52 -124 52q-45 0 -71.5 -21t-26.5 -56q0 -34 23.5 -59t58.5 -39.5t76.5 -34.5t76.5 -41.5t58.5 -62t23.5 -95.5
q0 -87 -67 -142.5t-167 -55.5q-72 0 -138.5 29.5t-90.5 80.5l70 84q29 -38 73.5 -58.5t87.5 -20.5q45 0 73.5 21.5t28.5 60.5z" />
    <glyph glyph-name="afii10055" unicode="&#x406;" horiz-adv-x="347" 
d="M112 0v700h123v-700h-123z" />
    <glyph glyph-name="afii10056" unicode="&#x407;" horiz-adv-x="347" 
d="M26 825q0 28 19 45t47 17q26 0 44.5 -17t18.5 -45q0 -31 -18.5 -48.5t-44.5 -17.5q-28 0 -47 17.5t-19 48.5zM193 825q0 28 19.5 45t47.5 17q25 0 43.5 -17.5t18.5 -44.5q0 -31 -18 -48.5t-44 -17.5q-29 0 -48 17.5t-19 48.5zM112 0v700h123v-700h-123z" />
    <glyph glyph-name="afii10057" unicode="&#x408;" horiz-adv-x="390" 
d="M293 700v-535q0 -85 -42.5 -130.5t-126.5 -45.5q-38 0 -71 13t-48 30l40 94q29 -22 62 -22q63 0 63 82v514h123z" />
    <glyph glyph-name="afii10058" unicode="&#x409;" horiz-adv-x="1011" 
d="M510 0v585h-204l-14 -132q-12 -120 -31 -205t-42 -136t-54.5 -78t-65 -33.5t-77.5 -0.5l3 122q20 -3 34.5 1.5t34.5 28.5t34.5 69t29 131.5t23.5 207.5l10 140h441v-240q39 5 77 5q127 0 192 -60t65 -166q0 -113 -74.5 -177t-208.5 -64q-37 0 -96.5 1t-76.5 1zM699 350
q-22 0 -67 -5v-229q1 0 26 -1.5t39 -1.5q139 0 139 123q0 56 -36 85t-101 29z" />
    <glyph glyph-name="afii10059" unicode="&#x40a;" horiz-adv-x="1032" 
d="M97 0v700h123v-262h310v262h122v-257q43 4 78 4q127 0 192 -58t65 -159q0 -107 -75 -169.5t-208 -62.5q-37 0 -96.5 1t-76.5 1h-1v323h-310v-323h-123zM652 327v-211q3 0 27.5 -1.5t38.5 -1.5q139 0 139 114q0 51 -36 78t-101 27q-33 0 -68 -5z" />
    <glyph glyph-name="afii10060" unicode="&#x40b;" horiz-adv-x="765" 
d="M10 585v115h577v-115h-227v-202q63 40 150 40q42 0 78 -12t66.5 -37t48 -69.5t17.5 -104.5v-200h-122v164q0 144 -120 144q-60 0 -118 -38v-270h-123v585h-227z" />
    <glyph glyph-name="afii10061" unicode="&#x40c;" horiz-adv-x="672" 
d="M97 0v700h123v-332l276 332h148l-288 -326l306 -374h-156l-286 361v-361h-123zM554 812l-225 -81l-32 69l214 111z" />
    <glyph glyph-name="afii10062" unicode="&#x40e;" horiz-adv-x="683" 
d="M671 700l-238 -537q-37 -83 -82 -123t-108 -40q-61 0 -96 28l43 104q25 -17 52 -17q46 0 69 49l10 24l-309 512h139l229 -391l167 391h124zM156 870h115q12 -58 85 -58q75 0 80 58h115q-2 -64 -57 -103.5t-138 -39.5q-89 0 -142 39t-58 104z" />
    <glyph glyph-name="afii10145" unicode="&#x40f;" horiz-adv-x="742" 
d="M97 0v700h123v-585h302v585h123v-700h-217v-153h-115v153h-216z" />
    <glyph glyph-name="afii10017" unicode="&#x410;" horiz-adv-x="715" 
d="M7 0l296 702h108l296 -702h-131l-73 179h-299l-73 -179h-124zM354 543l-103 -249h205z" />
    <glyph glyph-name="afii10018" unicode="&#x411;" horiz-adv-x="614" 
d="M97 0v700h409v-115h-286v-156q40 6 94 6q109 0 172 -57t63 -154q0 -109 -70.5 -168.5t-199.5 -59.5q-45 0 -106 2t-76 2zM304 320q-38 0 -84 -6v-199q56 -4 78 -4q129 0 129 104q0 48 -30.5 76.5t-92.5 28.5z" />
    <glyph glyph-name="afii10019" unicode="&#x412;" horiz-adv-x="617" 
d="M97 1v697q98 5 202 5q119 0 174.5 -47.5t55.5 -125.5q0 -112 -100 -159v-2q55 -14 89 -55t34 -108q0 -104 -71.5 -157t-188.5 -53q-127 0 -195 5zM307 301h-87v-185q42 -5 81 -5q128 0 128 101q0 44 -32 66.5t-90 22.5zM297 588q-44 0 -77 -3v-177h83q46 0 75 23.5
t29 69.5q0 42 -29.5 64.5t-80.5 22.5z" />
    <glyph glyph-name="afii10020" unicode="&#x413;" horiz-adv-x="507" 
d="M97 0v700h395v-115h-272v-585h-123z" />
    <glyph glyph-name="afii10021" unicode="&#x414;" horiz-adv-x="756" 
d="M12 -125v240h75q31 38 65.5 155.5t42.5 289.5l7 140h434v-585h95v-240h-115v125h-489v-125h-115zM310 463q-9 -123 -37 -221t-51 -127h292v470h-193z" />
    <glyph glyph-name="afii10022" unicode="&#x415;" horiz-adv-x="575" 
d="M97 0v700h405v-115h-282v-174h252v-115h-252v-181h292v-115h-415z" />
    <glyph glyph-name="afii10024" unicode="&#x416;" horiz-adv-x="954" 
d="M284 365l-263 335h141l254 -334v334h122v-334l253 334h142l-263 -334l274 -366h-142l-264 363v-363h-122v363l-265 -363h-141z" />
    <glyph glyph-name="afii10025" unicode="&#x417;" horiz-adv-x="585" 
d="M275 -11q-85 0 -146.5 34.5t-93.5 83.5l67 83q33 -38 79 -62t88 -24q55 0 92 26.5t37 77.5q0 42 -32 67t-92 25h-72v115h68q41 0 71 25t30 67q0 43 -28 66t-74 23q-85 0 -142 -76l-71 82q35 49 96 79t131 30q95 0 152.5 -50.5t57.5 -141.5q0 -43 -24 -85t-70 -69v-3
q61 -15 91 -59t30 -107q0 -93 -72.5 -150t-172.5 -57z" />
    <glyph glyph-name="afii10026" unicode="&#x418;" horiz-adv-x="792" 
d="M205 0h-108v700h123v-498l367 498h108v-700h-123v497z" />
    <glyph glyph-name="afii10027" unicode="&#x419;" horiz-adv-x="792" 
d="M205 0h-108v700h123v-498l367 498h108v-700h-123v497zM208 870h115q12 -58 85 -58q75 0 80 58h115q-2 -64 -57 -103.5t-138 -39.5q-89 0 -142 39t-58 104z" />
    <glyph glyph-name="afii10028" unicode="&#x41a;" horiz-adv-x="672" 
d="M97 0v700h123v-332l276 332h148l-288 -326l306 -374h-156l-286 361v-361h-123z" />
    <glyph glyph-name="afii10029" unicode="&#x41b;" horiz-adv-x="729" 
d="M510 0v585h-204l-14 -132q-12 -120 -31 -205t-42 -136t-54.5 -78t-65 -33.5t-77.5 -0.5l3 122q20 -3 34.5 1.5t34.5 28.5t34.5 69t29 131.5t23.5 207.5l10 140h441v-700h-122z" />
    <glyph glyph-name="afii10030" unicode="&#x41c;" horiz-adv-x="901" 
d="M97 0v700h124l239 -327l228 327h116v-700h-122v506l-221 -311h-18l-223 308v-503h-123z" />
    <glyph glyph-name="afii10031" unicode="&#x41d;" horiz-adv-x="759" 
d="M540 0v299h-320v-299h-123v700h123v-286h320v286h122v-700h-122z" />
    <glyph glyph-name="afii10032" unicode="&#x41e;" horiz-adv-x="819" 
d="M45 350q0 154 102.5 257.5t261.5 103.5q158 0 261.5 -100t103.5 -261q0 -157 -104 -259t-261 -102q-158 0 -261 100t-103 261zM175 350q0 -105 67.5 -175.5t166.5 -70.5q108 0 171.5 70t63.5 176q0 108 -67.5 177t-167.5 69q-101 0 -167.5 -69t-66.5 -177z" />
    <glyph glyph-name="afii10033" unicode="&#x41f;" horiz-adv-x="752" 
d="M532 0v585h-312v-585h-123v700h558v-700h-123z" />
    <glyph glyph-name="afii10034" unicode="&#x420;" horiz-adv-x="612" 
d="M220 0h-123v700q18 0 95.5 1t103.5 1q74 0 128.5 -18.5t84.5 -51t44 -71t14 -84.5q0 -95 -68 -161t-188 -66q-61 0 -91 3v-253zM308 587q-22 0 -88 -2v-215q48 -5 87 -5q58 0 94 28.5t36 84.5q0 109 -129 109z" />
    <glyph glyph-name="afii10035" unicode="&#x421;" horiz-adv-x="655" 
d="M583 160l47 -92q-33 -35 -94.5 -57t-129.5 -22q-161 0 -261 99t-100 262q0 157 95 259t263 102q135 0 213 -71l-55 -91q-71 47 -158 47q-99 0 -163.5 -67t-64.5 -179q0 -109 67.5 -177.5t174.5 -68.5q93 0 166 56z" />
    <glyph glyph-name="afii10036" unicode="&#x422;" horiz-adv-x="597" 
d="M10 585v115h577v-115h-227v-585h-123v585h-227z" />
    <glyph glyph-name="afii10037" unicode="&#x423;" horiz-adv-x="683" 
d="M671 700l-238 -537q-37 -83 -82 -123t-108 -40q-61 0 -96 28l43 104q25 -17 52 -17q46 0 69 49l10 24l-309 512h139l229 -391l167 391h124z" />
    <glyph glyph-name="afii10038" unicode="&#x424;" horiz-adv-x="839" 
d="M358 -8v93q-147 0 -235 72.5t-88 202.5q0 129 88 201t235 74v73h123v-73q146 -2 234.5 -75t88.5 -200q0 -129 -88.5 -201.5t-234.5 -73.5v-93h-123zM674 360q0 73 -49 117t-144 45v-324q193 2 193 162zM165 360q0 -78 50 -119.5t143 -42.5v324q-94 -1 -143.5 -45
t-49.5 -117z" />
    <glyph glyph-name="afii10039" unicode="&#x425;" horiz-adv-x="669" 
d="M650 700l-236 -343l245 -357h-144l-181 263l-180 -263h-144l245 357l-234 343h144l172 -253l169 253h144z" />
    <glyph glyph-name="afii10040" unicode="&#x426;" horiz-adv-x="770" 
d="M97 0v700h123v-585h307v585h123v-585h95v-240h-115v125h-533z" />
    <glyph glyph-name="afii10041" unicode="&#x427;" horiz-adv-x="667" 
d="M570 700v-700h-123v287q-66 -48 -167 -48q-90 0 -151.5 54t-61.5 170v237h123v-202q0 -144 123 -144q68 0 134 45v301h123z" />
    <glyph glyph-name="afii10042" unicode="&#x428;" horiz-adv-x="997" 
d="M97 0v700h123v-585h217v585h123v-585h217v585h123v-700h-803z" />
    <glyph glyph-name="afii10043" unicode="&#x429;" horiz-adv-x="1020" 
d="M97 0v700h123v-585h217v585h123v-585h217v585h123v-585h95v-240h-115v125h-783z" />
    <glyph glyph-name="afii10044" unicode="&#x42a;" horiz-adv-x="673" 
d="M7 585v115h276v-240q40 5 81 5q132 0 198 -60t66 -166q0 -112 -76 -176.5t-215 -64.5q-36 0 -97.5 1t-78.5 1v585h-154zM354 350q-24 0 -71 -5v-229q8 0 21.5 -1t25 -1.5t22.5 -0.5q146 0 146 123q0 57 -38.5 85.5t-105.5 28.5z" />
    <glyph glyph-name="afii10045" unicode="&#x42b;" horiz-adv-x="864" 
d="M645 0v700h122v-700h-122zM288 350q-21 0 -68 -5v-229l66 -3q138 0 138 123q0 56 -35.5 85t-100.5 29zM220 700v-240q39 5 78 5q127 0 191.5 -60t64.5 -166q0 -112 -75 -176.5t-208 -64.5q-36 0 -96.5 1t-77.5 1v700h123z" />
    <glyph glyph-name="afii10046" unicode="&#x42c;" horiz-adv-x="609" 
d="M290 350q-23 0 -70 -5v-229q66 -3 68 -3q146 0 146 123q0 57 -38.5 85.5t-105.5 28.5zM220 700v-240q39 5 80 5q132 0 198 -60t66 -166q0 -112 -76 -176.5t-214 -64.5q-37 0 -98.5 1t-78.5 1v700h123z" />
    <glyph glyph-name="afii10047" unicode="&#x42d;" horiz-adv-x="673" 
d="M187 299v115h312q-18 87 -85 134.5t-167 47.5q-92 0 -164 -54l-48 92q90 77 241 77q156 0 254 -99t98 -261q0 -165 -99 -263.5t-267 -98.5q-71 0 -134 20.5t-101 52.5l53 103q79 -61 180 -61q94 0 160.5 50.5t81.5 144.5h-315z" />
    <glyph glyph-name="afii10048" unicode="&#x42e;" horiz-adv-x="1081" 
d="M97 0v700h123v-286h119q20 131 112.5 214t229.5 83q157 0 256 -99.5t99 -261.5q0 -158 -99.5 -259.5t-255.5 -101.5q-135 0 -231.5 85t-112.5 225h-117v-299h-123zM464 350q0 -104 64 -175t157 -71q106 0 163.5 69t57.5 177q0 109 -61 177.5t-160 68.5q-95 0 -158 -69
t-63 -177z" />
    <glyph glyph-name="afii10049" unicode="&#x42f;" horiz-adv-x="632" 
d="M413 0v242h-101l-157 -242h-138l179 267q-54 27 -88.5 76.5t-34.5 117.5q0 105 72 173.5t216 68.5q23 0 88.5 -1.5t85.5 -1.5v-700h-122zM301 357h112v228q-51 3 -77 3q-60 0 -96.5 -33t-36.5 -86q0 -45 28.5 -74.5t69.5 -37.5z" />
    <glyph glyph-name="afii10065" unicode="&#x430;" horiz-adv-x="463" 
d="M99 334l-29 84q73 43 159 43q96 0 138 -47t42 -140v-274h-100v52q-41 -58 -133 -58q-63 0 -102 37t-39 101q0 71 46 108.5t118 37.5q62 0 102 -29q2 59 -17 87.5t-67 28.5q-50 0 -118 -31zM214 91q58 0 87 41v46q-29 22 -79 22q-31 0 -51.5 -14.5t-20.5 -41.5
q0 -25 18 -39t46 -14z" />
    <glyph glyph-name="afii10066" unicode="&#x431;" horiz-adv-x="548" 
d="M402 711l60 -94q-26 -31 -60 -43.5t-79.5 -22t-78.5 -25.5q-84 -39 -97 -168h2q21 37 65 60.5t93 23.5q93 0 149 -60t56 -161q0 -97 -66 -164.5t-170 -67.5q-113 0 -178.5 77t-65.5 208q0 289 170 362q38 16 82 24.5t70.5 17.5t47.5 33zM155 250q1 -67 33 -110.5
t85 -43.5t84.5 34.5t31.5 85.5q0 52 -29 85.5t-82 33.5q-46 0 -78.5 -24t-44.5 -61z" />
    <glyph glyph-name="afii10067" unicode="&#x432;" horiz-adv-x="502" 
d="M64 0v450q12 0 44.5 1.5t67 2.5t65.5 1q204 0 204 -118q0 -39 -24.5 -67t-59.5 -33v-2q96 -23 96 -104q0 -136 -214 -136q-30 0 -95 2.5t-84 2.5zM251 191h-72v-100q68 -4 76 -4q38 0 59.5 14t21.5 38q0 52 -85 52zM251 362q-48 0 -72 -2v-99h75q30 0 49.5 13.5
t19.5 38.5q0 49 -72 49z" />
    <glyph glyph-name="afii10068" unicode="&#x433;" horiz-adv-x="374" 
d="M64 0v450h302v-108h-187v-342h-115z" />
    <glyph glyph-name="afii10069" unicode="&#x434;" horiz-adv-x="556" 
d="M10 -105v212h57q53 70 63 235l7 108h332v-343h75v-212h-108v105h-319v-105h-107zM241 296q-12 -131 -54 -189h167v235h-110z" />
    <glyph glyph-name="afii10070" unicode="&#x435;" horiz-adv-x="516" 
d="M417 126l33 -81q-66 -56 -172 -56q-109 0 -175.5 65t-66.5 171q0 101 65 168.5t173 67.5q89 0 151 -58.5t62 -150.5q0 -38 -7 -62h-325q7 -50 44 -77.5t91 -27.5q76 0 127 41zM269 365q-98 0 -118 -98h221q1 42 -27 70t-76 28z" />
    <glyph glyph-name="afii10072" unicode="&#x436;" horiz-adv-x="709" 
d="M689 450l-149 -218l161 -232h-136l-150 232l138 218h136zM295 0v450h115v-450h-115zM166 232l-150 218h140l134 -218l-146 -232h-137z" />
    <glyph glyph-name="afii10073" unicode="&#x437;" horiz-adv-x="472" 
d="M223 -11q-59 0 -115 21.5t-81 53.5l59 72q20 -23 57.5 -39t69.5 -16q44 0 68 15t24 40q0 23 -18 37t-50 14h-84v77h79q27 0 43.5 16t16.5 39q0 49 -79 49q-62 0 -123 -52l-48 69q65 76 193 76q88 0 134 -34t46 -94q0 -33 -22 -60t-61 -40v-2q46 -9 70.5 -37.5t24.5 -68.5
q0 -63 -56 -99.5t-148 -36.5z" />
    <glyph glyph-name="afii10074" unicode="&#x438;" horiz-adv-x="568" 
d="M179 0h-115v450h115v-285l210 285h115v-450h-115v285z" />
    <glyph glyph-name="afii10075" unicode="&#x439;" horiz-adv-x="568" 
d="M179 0h-115v450h115v-285l210 285h115v-450h-115v285zM131 675h105q0 -31 12.5 -52t39.5 -21q24 0 36 21t12 52h105q0 -68 -40 -111.5t-113 -43.5q-80 0 -118.5 42.5t-38.5 112.5z" />
    <glyph glyph-name="afii10076" unicode="&#x43a;" horiz-adv-x="515" 
d="M490 450l-173 -214l194 -236h-150l-178 227l162 223h145zM64 0v450h115v-450h-115z" />
    <glyph glyph-name="afii10077" unicode="&#x43b;" horiz-adv-x="539" 
d="M360 0v335h-119l-3 -48q-11 -121 -36.5 -186t-64 -87.5t-102.5 -22.5l-10 112q22 -2 41.5 12.5t37.5 64t23 130.5l7 140h341v-450h-115z" />
    <glyph glyph-name="afii10078" unicode="&#x43c;" horiz-adv-x="631" 
d="M64 0v450h104l153 -188l145 188h101v-450h-115v275l-133 -168h-3l-137 168v-275h-115z" />
    <glyph glyph-name="afii10079" unicode="&#x43d;" horiz-adv-x="555" 
d="M376 0v172h-197v-172h-115v450h115v-170h197v170h115v-450h-115z" />
    <glyph glyph-name="afii10080" unicode="&#x43e;" horiz-adv-x="562" 
d="M36 225q0 103 67.5 169.5t177.5 66.5t177.5 -66.5t67.5 -169.5t-67.5 -169.5t-177.5 -66.5t-177.5 66.5t-67.5 169.5zM159 225q0 -56 34.5 -92.5t87.5 -36.5q54 0 88.5 35.5t34.5 93.5q0 56 -35 92t-88 36q-52 0 -87 -35.5t-35 -92.5z" />
    <glyph glyph-name="afii10081" unicode="&#x43f;" horiz-adv-x="550" 
d="M371 0v342h-192v-342h-115v450h422v-450h-115z" />
    <glyph glyph-name="afii10082" unicode="&#x440;" horiz-adv-x="558" 
d="M64 -200v650h115v-43q22 23 59.5 38.5t79.5 15.5q92 0 148 -64t56 -165q0 -105 -66 -174t-172 -69q-67 0 -105 22v-211h-115zM282 353q-59 0 -103 -49v-182q40 -26 95 -26q58 0 92 37.5t34 95.5q0 55 -31 89.5t-87 34.5z" />
    <glyph glyph-name="afii10083" unicode="&#x441;" horiz-adv-x="487" 
d="M405 151l54 -84q-28 -38 -75.5 -58t-103.5 -20q-110 0 -177 65t-67 171q0 100 66 168t167 68q120 0 181 -61l-54 -91q-45 44 -112 44q-50 0 -87.5 -35.5t-37.5 -92.5q0 -58 38.5 -93.5t91.5 -35.5q66 0 116 55z" />
    <glyph glyph-name="afii10084" unicode="&#x442;" horiz-adv-x="445" 
d="M17 335v115h410v-115h-147v-335h-115v335h-148z" />
    <glyph glyph-name="afii10085" unicode="&#x443;" horiz-adv-x="503" 
d="M498 450l-177 -450q-48 -117 -85.5 -158.5t-88.5 -41.5q-49 0 -97 35l37 87q27 -16 47 -16q41 0 69 70l10 24l-208 450h138l105 -246q6 -15 22 -65q8 44 16 66l81 245h131z" />
    <glyph glyph-name="afii10086" unicode="&#x444;" horiz-adv-x="687" 
d="M286 -200v189h-6q-115 0 -179.5 66t-64.5 170q0 97 65.5 166.5t177.5 69.5h7v239h115v-239h8q113 0 177.5 -66.5t64.5 -169.5q0 -105 -62 -170.5t-180 -65.5h-8v-189h-115zM409 353h-8v-257h4q60 0 91.5 35t31.5 94q0 54 -30.5 91t-88.5 37zM159 225q0 -58 32 -93.5
t92 -35.5h3v257h-8q-60 0 -89.5 -36t-29.5 -92z" />
    <glyph glyph-name="afii10087" unicode="&#x445;" horiz-adv-x="522" 
d="M494 450l-150 -215l160 -235h-140l-105 162l-109 -162h-133l160 229l-150 221h141l95 -149l98 149h133z" />
    <glyph glyph-name="afii10088" unicode="&#x446;" horiz-adv-x="566" 
d="M64 0v450h115v-343h185v343h115v-343h75v-212h-108v105h-382z" />
    <glyph glyph-name="afii10089" unicode="&#x447;" horiz-adv-x="491" 
d="M427 450v-450h-115v155q-49 -26 -112 -26q-85 0 -124 44.5t-39 132.5v144h123v-130q0 -83 73 -83q48 0 79 18v195h115z" />
    <glyph glyph-name="afii10090" unicode="&#x448;" horiz-adv-x="728" 
d="M64 0v450h115v-343h127v343h115v-343h128v343h115v-450h-600z" />
    <glyph glyph-name="afii10091" unicode="&#x449;" horiz-adv-x="751" 
d="M64 0v450h115v-343h127v343h115v-343h128v343h115v-343h75v-212h-108v105h-567z" />
    <glyph glyph-name="afii10092" unicode="&#x44a;" horiz-adv-x="536" 
d="M15 342v108h232v-123h63q106 0 152 -44t46 -112q0 -73 -50 -122t-157 -49h-169v342h-117zM300 235h-53v-135h52q86 0 86 67q0 68 -85 68z" />
    <glyph glyph-name="afii10093" unicode="&#x44b;" horiz-adv-x="676" 
d="M64 0v450h115v-123h56q106 0 152 -44t46 -112q0 -73 -50 -122t-157 -49h-162zM497 0v450h115v-450h-115zM225 235h-46v-135h45q87 0 87 67q0 68 -86 68z" />
    <glyph glyph-name="afii10094" unicode="&#x44c;" horiz-adv-x="467" 
d="M64 0v450h115v-123h62q106 0 152 -44t46 -112q0 -73 -50 -122t-157 -49h-168zM231 235h-52v-135h51q87 0 87 67q0 68 -86 68z" />
    <glyph glyph-name="afii10095" unicode="&#x44d;" horiz-adv-x="496" 
d="M140 189v77h200q-11 47 -46 71t-83 24q-65 0 -129 -47l-47 80q30 33 79 50t95 17q115 0 183 -64t68 -172q0 -102 -64.5 -169t-175.5 -67q-122 0 -187 67l54 76q49 -43 126 -43q52 0 85.5 25.5t42.5 74.5h-201z" />
    <glyph glyph-name="afii10096" unicode="&#x44e;" horiz-adv-x="772" 
d="M64 0v450h122v-163h80q18 79 78.5 126.5t149.5 47.5q108 0 175 -66.5t67 -169.5q0 -102 -67.5 -169t-174.5 -67q-92 0 -153 50t-77 133h-78v-172h-122zM389 225q0 -56 30 -88.5t78 -32.5q49 0 79 32.5t30 88.5t-29.5 88.5t-79.5 32.5q-48 0 -78 -33t-30 -88z" />
    <glyph glyph-name="afii10097" unicode="&#x44f;" horiz-adv-x="495" 
d="M284 450h147v-450h-115v135h-64l-93 -135h-132l120 160q-34 12 -60.5 45.5t-26.5 84.5q0 71 54.5 115.5t169.5 44.5zM183 282q0 -27 22.5 -44.5t50.5 -17.5h60v130h-51q-39 0 -60.5 -20t-21.5 -48z" />
    <glyph glyph-name="afii10071" unicode="&#x451;" horiz-adv-x="516" 
d="M417 126l33 -81q-66 -56 -172 -56q-109 0 -175.5 65t-66.5 171q0 101 65 168.5t173 67.5q89 0 151 -58.5t62 -150.5q0 -38 -7 -62h-325q7 -50 44 -77.5t91 -27.5q76 0 127 41zM269 365q-98 0 -118 -98h221q1 42 -27 70t-76 28zM109 599q0 29 19 46.5t46 17.5
q24 0 42 -17.5t18 -46.5q0 -31 -18 -49t-42 -18q-27 0 -46 18t-19 49zM308 599q0 29 18.5 46.5t45.5 17.5q24 0 42 -17.5t18 -46.5q0 -31 -17.5 -49t-42.5 -18q-27 0 -45.5 18t-18.5 49z" />
    <glyph glyph-name="afii10099" unicode="&#x452;" horiz-adv-x="590" 
d="M7 432v93h118v175h115v-175h158v-93h-158v-118q51 49 129 49q87 0 136 -47t49 -146q0 -126 -46 -222.5t-119 -147.5h-123q83 67 127.5 157t44.5 185q0 113 -98 113q-59 0 -100 -41v-214h-115v432h-118z" />
    <glyph glyph-name="afii10100" unicode="&#x453;" horiz-adv-x="374" 
d="M64 0v450h302v-108h-187v-342h-115zM361 662l-126 -145l-69 48l105 165z" />
    <glyph glyph-name="afii10101" unicode="&#x454;" horiz-adv-x="495" 
d="M356 266v-77h-202q10 -48 47 -74t90 -26q70 0 119 43l54 -76q-67 -67 -180 -67q-114 0 -181 67t-67 169q0 108 68 172t183 64q46 0 95 -17t79 -50l-47 -80q-54 47 -129 47q-48 0 -83 -24t-47 -71h201z" />
    <glyph glyph-name="afii10102" unicode="&#x455;" horiz-adv-x="444" 
d="M292 127q0 20 -25 32.5t-61 22t-71.5 23t-60.5 43.5t-25 76q0 64 46.5 100.5t118.5 36.5q110 0 171 -57l-43 -82q-55 43 -122 43q-25 0 -40.5 -11.5t-15.5 -27.5q0 -17 18 -29.5t45 -18.5t58.5 -17t58.5 -24t45 -40t18 -64q0 -66 -49.5 -105t-132.5 -39q-58 0 -114.5 25
t-73.5 52l56 75q20 -22 63 -39t77 -17q26 0 42.5 11t16.5 31z" />
    <glyph glyph-name="afii10103" unicode="&#x456;" horiz-adv-x="277" 
d="M81 0v450h115v-450h-115zM69 612q0 30 21 48.5t51 18.5q26 0 46 -18.5t20 -48.5q0 -33 -20 -52.5t-46 -19.5q-31 0 -51.5 19.5t-20.5 52.5z" />
    <glyph glyph-name="afii10104" unicode="&#x457;" horiz-adv-x="315" 
d="M25 597q0 26 17 41t42 15q21 0 37.5 -15.5t16.5 -40.5q0 -27 -16 -43t-38 -16q-26 0 -42.5 15.5t-16.5 43.5zM177 597q0 25 17 40.5t42 15.5q22 0 38 -15.5t16 -40.5q0 -27 -16 -43t-38 -16q-25 0 -42 16t-17 43zM113 0v450h115v-450h-115z" />
    <glyph glyph-name="afii10105" unicode="&#x458;" horiz-adv-x="284" 
d="M202 450v-483q0 -175 -141 -175q-74 0 -110 32l31 91q26 -16 51 -16q54 0 54 78v473h115zM76 612q0 30 21 48.5t51 18.5q26 0 46 -18.5t20 -48.5q0 -33 -20 -52.5t-46 -19.5q-31 0 -51.5 19.5t-20.5 52.5z" />
    <glyph glyph-name="afii10106" unicode="&#x459;" horiz-adv-x="742" 
d="M360 0v335h-119l-3 -48q-11 -121 -36.5 -186t-64 -87.5t-102.5 -22.5l-10 112q22 -2 41.5 12.5t37.5 64t23 130.5l7 140h341v-123h42q106 0 152 -44t46 -112q0 -73 -50 -122t-157 -49h-148zM507 235h-32v-135h31q86 0 86 67q0 68 -85 68z" />
    <glyph glyph-name="afii10107" unicode="&#x45a;" horiz-adv-x="759" 
d="M376 0v177h-197v-177h-115v450h115v-165h197v165h115v-128h42q106 0 152 -42.5t46 -110.5q0 -73 -50 -121t-157 -48h-148zM523 230h-32v-130h31q87 0 87 65t-86 65z" />
    <glyph glyph-name="afii10108" unicode="&#x45b;" horiz-adv-x="590" 
d="M7 432v93h118v175h115v-175h158v-93h-158v-118q51 49 129 49q87 0 136 -47.5t49 -149.5v-166h-115v151q0 50 -26 77t-73 27q-59 0 -100 -41v-214h-115v432h-118z" />
    <glyph glyph-name="afii10109" unicode="&#x45c;" horiz-adv-x="515" 
d="M490 450l-173 -214l194 -236h-150l-178 227l162 223h145zM64 0v450h115v-450h-115zM384 662l-126 -145l-69 48l105 165z" />
    <glyph glyph-name="afii10110" unicode="&#x45e;" horiz-adv-x="503" 
d="M498 450l-177 -450q-48 -117 -85.5 -158.5t-88.5 -41.5q-49 0 -97 35l37 87q27 -16 47 -16q41 0 69 70l10 24l-208 450h138l105 -246q6 -15 22 -65q8 44 16 66l81 245h131zM103 675h105q0 -31 12.5 -52t39.5 -21q24 0 36 21t12 52h105q0 -68 -40 -111.5t-113 -43.5
q-80 0 -118.5 42.5t-38.5 112.5z" />
    <glyph glyph-name="afii10193" unicode="&#x45f;" horiz-adv-x="540" 
d="M64 0v450h115v-343h182v343h115v-450h-152v-118h-108v118h-152z" />
    <glyph glyph-name="afii10146" unicode="&#x462;" horiz-adv-x="648" 
d="M258 700v-80h148v-115h-148v-75q40 5 81 5q264 0 264 -211q0 -110 -75 -168t-216 -58q-36 0 -97.5 1t-78.5 1v505h-121v115h121v80h122zM329 320q-24 0 -71 -5v-199l69 -3q73 0 109.5 23.5t36.5 84.5q0 56 -36.5 77.5t-107.5 21.5z" />
    <glyph glyph-name="afii10194" unicode="&#x463;" horiz-adv-x="517" 
d="M7 357v93h118v250h115v-250h136v-93h-136v-60h51q198 0 198 -141q0 -70 -49.5 -113t-157.5 -43h-157v357h-118zM281 212h-41v-120h40q46 0 66.5 14.5t20.5 45.5t-20 45.5t-66 14.5z" />
    <glyph glyph-name="afii10147" unicode="&#x472;" horiz-adv-x="819" 
d="M45 350q0 154 102.5 257.5t261.5 103.5q158 0 261.5 -100t103.5 -261q0 -157 -104 -259t-261 -102q-158 0 -261 100t-103 261zM304 339q-59 0 -122 -54q20 -81 82.5 -131t144.5 -50q94 0 155 54.5t76 142.5q-63 -36 -116 -36q-47 0 -113.5 37t-106.5 37zM533 373
q53 0 104 41q-19 82 -82 132t-146 50q-87 0 -149.5 -52.5t-79.5 -138.5q64 41 124 41q48 0 116.5 -36.5t112.5 -36.5z" />
    <glyph glyph-name="afii10195" unicode="&#x473;" horiz-adv-x="577" 
d="M36 225q0 103 68.5 169.5t184.5 66.5q115 0 183.5 -66.5t68.5 -169.5t-68.5 -169.5t-183.5 -66.5q-116 0 -184.5 66.5t-68.5 169.5zM217 211q-32 0 -61 -29q11 -49 48 -75t85 -26q49 0 86 27.5t47 80.5q-32 -28 -71 -28q-32 0 -72.5 25t-61.5 25zM366 239q33 0 56 24
q-11 51 -48.5 78t-84.5 27q-49 0 -87 -27.5t-48 -80.5q35 28 68 28q34 0 80 -24.5t64 -24.5z" />
    <glyph glyph-name="afii10148" unicode="&#x474;" horiz-adv-x="661" 
d="M563 499l-185 -501h-93l-288 702h131l207 -518l130 378q33 97 78.5 130t137.5 9l-16 -107q-40 13 -59 -7.5t-43 -85.5z" />
    <glyph glyph-name="afii10196" unicode="&#x475;" horiz-adv-x="492" 
d="M402 268l-110 -270h-86l-209 452h137l85 -193q21 -43 34 -101q13 56 31 103l30 79q12 32 22.5 52.5t26.5 37.5t36 23.5t48 6t65 -9.5l-17 -108q-35 14 -53 -3t-40 -69z" />
    <glyph glyph-name="afii10050" unicode="&#x490;" horiz-adv-x="507" 
d="M97 0v700h280v117h115v-232h-272v-585h-123z" />
    <glyph glyph-name="afii10098" unicode="&#x491;" horiz-adv-x="374" 
d="M64 0v450h195v97h107v-205h-187v-342h-115z" />
    <glyph glyph-name="uni1E9E" unicode="&#x1e9e;" horiz-adv-x="674" 
d="M491 184q0 26 -15 50.5t-51.5 52.5t-60.5 43l-79 48l132 181q-11 16 -36 26.5t-54 10.5q-49 0 -78 -30t-29 -91v-476h-123v468q0 124 63.5 184t171.5 60q64 0 127 -32t106 -92l-135 -172q82 -44 136.5 -107.5t54.5 -142.5q0 -77 -55.5 -126.5t-123.5 -49.5
q-103 0 -173 64l53 96q28 -24 47.5 -34.5t45.5 -10.5q32 0 54 22t22 58z" />
    <glyph glyph-name="uni2010" unicode="&#x2010;" horiz-adv-x="376" 
d="M62 220v107h252v-107h-252z" />
    <glyph glyph-name="uni2011" unicode="&#x2011;" horiz-adv-x="376" 
d="M62 220v107h252v-107h-252z" />
    <glyph glyph-name="figuredash" unicode="&#x2012;" horiz-adv-x="599" 
d="M85 304v100h429v-100h-429z" />
    <glyph glyph-name="endash" unicode="&#x2013;" horiz-adv-x="599" 
d="M85 220v100h429v-100h-429z" />
    <glyph glyph-name="emdash" unicode="&#x2014;" horiz-adv-x="814" 
d="M85 220v100h644v-100h-644z" />
    <glyph glyph-name="afii00208" unicode="&#x2015;" horiz-adv-x="814" 
d="M85 220v100h644v-100h-644z" />
    <glyph glyph-name="quoteleft" unicode="&#x2018;" horiz-adv-x="241" 
d="M178 550l-97 -56q-34 36 -34 93q0 63 30 105.5t70 66.5l53 -49q-45 -37 -45 -98q0 -39 23 -62z" />
    <glyph glyph-name="quoteright" unicode="&#x2019;" horiz-adv-x="241" 
d="M63 698l97 57q34 -36 34 -93q0 -63 -30 -106.5t-70 -65.5l-53 49q45 37 45 97q0 39 -23 62z" />
    <glyph glyph-name="quotesinglbase" unicode="&#x201a;" horiz-adv-x="241" 
d="M63 33l97 57q34 -36 34 -93q0 -63 -30 -106.5t-70 -65.5l-53 49q45 37 45 97q0 39 -23 62z" />
    <glyph glyph-name="quotedblleft" unicode="&#x201c;" horiz-adv-x="404" 
d="M340 550l-97 -56q-34 36 -34 93q0 63 30 105.5t70 66.5l53 -49q-45 -37 -45 -98q0 -39 23 -62zM178 550l-97 -56q-34 36 -34 93q0 63 30 105.5t70 66.5l53 -49q-45 -37 -45 -98q0 -39 23 -62z" />
    <glyph glyph-name="quotedblright" unicode="&#x201d;" horiz-adv-x="404" 
d="M225 698l97 57q34 -36 34 -93q0 -63 -30 -106.5t-70 -65.5l-53 49q45 37 45 97q0 39 -23 62zM63 698l97 57q34 -36 34 -93q0 -63 -30 -106.5t-70 -65.5l-53 49q45 37 45 97q0 39 -23 62z" />
    <glyph glyph-name="quotedblbase" unicode="&#x201e;" horiz-adv-x="404" 
d="M225 33l97 57q34 -36 34 -93q0 -63 -30 -106.5t-70 -65.5l-53 49q45 37 45 97q0 39 -23 62zM63 33l97 57q34 -36 34 -93q0 -63 -30 -106.5t-70 -65.5l-53 49q45 37 45 97q0 39 -23 62z" />
    <glyph glyph-name="dagger" unicode="&#x2020;" horiz-adv-x="491" 
d="M40 395v100h152v205h107v-205h152v-100h-152v-495h-107v495h-152z" />
    <glyph glyph-name="daggerdbl" unicode="&#x2021;" horiz-adv-x="491" 
d="M40 395v100h152v205h107v-205h152v-100h-152v-160h152v-100h-152v-235h-107v235h-152v100h152v160h-152z" />
    <glyph glyph-name="bullet" unicode="&#x2022;" horiz-adv-x="285" 
d="M25 264q0 49 34.5 83.5t82.5 34.5t83 -34.5t35 -83.5q0 -47 -35 -82t-83 -35t-82.5 35t-34.5 82z" />
    <glyph glyph-name="ellipsis" unicode="&#x2026;" horiz-adv-x="863" 
d="M655 75q0 28 22 51t58 23q31 0 52 -23t21 -51q0 -32 -21 -56t-52 -24q-36 0 -58 24t-22 56zM355 75q0 28 22 51t58 23q31 0 52 -23t21 -51q0 -32 -21 -56t-52 -24q-36 0 -58 24t-22 56zM55 75q0 28 22 51t58 23q31 0 52 -23t21 -51q0 -32 -21 -56t-52 -24q-36 0 -58 24
t-22 56z" />
    <glyph glyph-name="perthousand" unicode="&#x2030;" horiz-adv-x="1345" 
d="M913 169q0 80 55.5 129t141.5 49t141.5 -49t55.5 -129t-55.5 -129.5t-141.5 -49.5t-141.5 49.5t-55.5 129.5zM1021 169q0 -39 25.5 -62.5t63.5 -23.5q40 0 65 23.5t25 62.5q0 38 -25.5 61.5t-64.5 23.5q-38 0 -63.5 -23.5t-25.5 -61.5zM170 35l505 676l65 -49l-504 -673z
M37 531q0 80 55.5 129t141.5 49t141.5 -49t55.5 -129t-55.5 -129.5t-141.5 -49.5t-141.5 49.5t-55.5 129.5zM145 531q0 -39 25.5 -62.5t63.5 -23.5q40 0 65 23.5t25 62.5q0 38 -25.5 61.5t-64.5 23.5q-38 0 -63.5 -23.5t-25.5 -61.5zM479 169q0 80 55.5 129t141.5 49
t141.5 -49t55.5 -129t-55.5 -129.5t-141.5 -49.5t-141.5 49.5t-55.5 129.5zM587 169q0 -39 25.5 -62.5t63.5 -23.5q40 0 65 23.5t25 62.5q0 38 -25.5 61.5t-64.5 23.5q-38 0 -63.5 -23.5t-25.5 -61.5z" />
    <glyph glyph-name="guilsinglleft" unicode="&#x2039;" horiz-adv-x="351" 
d="M230 22l-193 226v4l197 226l75 -67l-139 -161l138 -163z" />
    <glyph glyph-name="guilsinglright" unicode="&#x203a;" horiz-adv-x="351" 
d="M314 248l-193 -226l-78 65l138 163l-139 161l75 67l197 -226v-4z" />
    <glyph glyph-name="fraction" unicode="&#x2044;" horiz-adv-x="210" 
d="M-180 35l505 676l65 -49l-504 -673z" />
    <glyph glyph-name="uni2070" unicode="&#x2070;" horiz-adv-x="398" 
d="M35 525q0 78 43 128.5t121 50.5t121 -51t43 -128t-42.5 -128t-120.5 -51q-79 0 -122 49t-43 130zM142 525q0 -94 58 -94q29 0 42 22t13 72t-13.5 72t-42.5 22q-57 0 -57 -94z" />
    <glyph glyph-name="uni2074" unicode="&#x2074;" horiz-adv-x="373" 
d="M205 350v70h-193v67l155 213h95l-148 -202h91v77h92v-77h56v-78h-56v-70h-92z" />
    <glyph glyph-name="uni2075" unicode="&#x2075;" horiz-adv-x="347" 
d="M58 498l20 202h226v-78h-156l-8 -54q21 8 48 8q57 0 91.5 -29t34.5 -78q0 -59 -42 -92t-110 -33q-107 0 -146 57l51 54q29 -34 78 -34q62 0 62 43q0 42 -76 42q-47 0 -73 -8z" />
    <glyph glyph-name="uni2076" unicode="&#x2076;" horiz-adv-x="395" 
d="M31 484q0 90 74 154t184 68l20 -68q-130 -14 -170 -101q38 32 96 32q59 0 94.5 -29t35.5 -78q0 -52 -45.5 -85t-113.5 -33q-84 0 -129.5 38t-45.5 102zM139 469q1 -19 18.5 -33.5t48.5 -14.5q24 0 38 11.5t14 27.5q0 17 -14 28t-40 11q-41 0 -65 -30z" />
    <glyph glyph-name="uni2077" unicode="&#x2077;" horiz-adv-x="329" 
d="M14 615v85h302v-61l-153 -289h-109l146 265h-186z" />
    <glyph glyph-name="uni2078" unicode="&#x2078;" horiz-adv-x="412" 
d="M202 565h9q22 0 34.5 9t12.5 23t-14.5 23t-38.5 9q-23 0 -37 -9t-14 -24q0 -14 13 -22.5t35 -8.5zM211 495h-8q-26 0 -43.5 -10t-17.5 -27q0 -37 64 -37q29 0 46 10t17 27t-16 27t-42 10zM206 344q-74 0 -119 26t-45 71q0 65 66 88v2q-54 23 -54 83q0 41 42.5 66.5
t109.5 25.5t109.5 -25.5t42.5 -66.5q0 -60 -62 -83v-1q33 -7 53 -28t20 -54q0 -50 -44 -77t-119 -27z" />
    <glyph glyph-name="uni2079" unicode="&#x2079;" horiz-adv-x="395" 
d="M364 553q0 -94 -72 -150.5t-188 -58.5l-16 70q71 6 117.5 33t50.5 66q-33 -40 -96 -40q-57 0 -93.5 32t-36.5 78q0 55 45 89t114 34q85 0 130 -40.5t45 -112.5zM256 573q-2 26 -19 41t-48 15q-24 0 -38 -11.5t-14 -27.5q0 -18 14.5 -32.5t39.5 -14.5q41 0 65 30z" />
    <glyph glyph-name="uni207A" unicode="&#x207a;" horiz-adv-x="360" 
d="M42 491v78h98v94h78v-94h99v-78h-99v-96h-78v96h-98z" />
    <glyph glyph-name="uni207B" unicode="&#x207b;" horiz-adv-x="360" 
d="M42 491v78h275v-78h-275z" />
    <glyph glyph-name="uni207C" unicode="&#x207c;" horiz-adv-x="360" 
d="M42 416v78h275v-78h-275zM42 566v78h275v-78h-275z" />
    <glyph glyph-name="uni207D" unicode="&#x207d;" horiz-adv-x="235" 
d="M225 365l-59 -58q-71 36 -103.5 94.5t-32.5 121.5q0 59 33.5 115.5t103.5 99.5l52 -57q-46 -31 -67.5 -68t-21.5 -90q0 -95 95 -158z" />
    <glyph glyph-name="uni207E" unicode="&#x207e;" horiz-adv-x="235" 
d="M10 679l59 59q71 -36 103.5 -94.5t32.5 -121.5q0 -59 -33.5 -115.5t-103.5 -99.5l-53 57q46 31 68 68t22 90q0 96 -95 157z" />
    <glyph glyph-name="uni2080" unicode="&#x2080;" horiz-adv-x="398" 
d="M35 175q0 78 43 128.5t121 50.5t121 -51t43 -128t-42.5 -128t-120.5 -51q-79 0 -122 49t-43 130zM142 175q0 -94 58 -94q29 0 42 22t13 72t-13.5 72t-42.5 22q-57 0 -57 -94z" />
    <glyph glyph-name="uni2081" unicode="&#x2081;" horiz-adv-x="269" 
d="M16 274l113 75h72v-349h-100v234l-48 -28z" />
    <glyph glyph-name="uni2082" unicode="&#x2082;" horiz-adv-x="363" 
d="M30 0v73q118 70 152 104q30 29 30 53q0 18 -11.5 28.5t-31.5 10.5t-35.5 -15.5t-18.5 -34.5l-83 29q8 49 47 77.5t100 28.5q67 0 103.5 -30.5t36.5 -80.5q0 -92 -159 -158h175v-85h-305z" />
    <glyph glyph-name="uni2083" unicode="&#x2083;" horiz-adv-x="361" 
d="M175 -6q-52 0 -95 19t-63 55l58 53q10 -19 34 -32.5t49 -13.5q61 0 61 35q0 32 -59 32h-30v70h28q22 0 35 9.5t13 24.5q0 29 -45 29q-52 0 -85 -41l-48 55q44 67 153 67q59 0 96 -24t37 -65q0 -32 -20.5 -53t-56.5 -29v-1q43 -3 66 -26t23 -57q0 -48 -44 -77.5
t-107 -29.5z" />
    <glyph glyph-name="uni2084" unicode="&#x2084;" horiz-adv-x="373" 
d="M205 0v70h-193v67l155 213h95l-148 -202h91v77h92v-77h56v-78h-56v-70h-92z" />
    <glyph glyph-name="uni2085" unicode="&#x2085;" horiz-adv-x="347" 
d="M58 148l20 202h226v-78h-156l-8 -54q21 8 48 8q57 0 91.5 -29t34.5 -78q0 -59 -42 -92t-110 -33q-107 0 -146 57l51 54q29 -34 78 -34q62 0 62 43q0 42 -76 42q-47 0 -73 -8z" />
    <glyph glyph-name="uni2086" unicode="&#x2086;" horiz-adv-x="395" 
d="M31 134q0 90 74 154t184 68l20 -68q-130 -14 -170 -101q38 32 96 32q59 0 94.5 -29t35.5 -78q0 -52 -45.5 -85t-113.5 -33q-84 0 -129.5 38t-45.5 102zM139 119q1 -19 18.5 -33.5t48.5 -14.5q24 0 38 11.5t14 27.5q0 17 -14 28t-40 11q-41 0 -65 -30z" />
    <glyph glyph-name="uni2087" unicode="&#x2087;" horiz-adv-x="329" 
d="M14 265v85h302v-61l-153 -289h-109l146 265h-186z" />
    <glyph glyph-name="uni2088" unicode="&#x2088;" horiz-adv-x="412" 
d="M202 215h9q22 0 34.5 9t12.5 23t-14.5 23t-38.5 9q-23 0 -37 -9t-14 -24q0 -14 13 -22.5t35 -8.5zM211 145h-8q-26 0 -43.5 -10t-17.5 -27q0 -37 64 -37q29 0 46 10t17 27t-16 27t-42 10zM206 -6q-74 0 -119 26t-45 71q0 65 66 88v2q-54 23 -54 83q0 41 42.5 66.5
t109.5 25.5t109.5 -25.5t42.5 -66.5q0 -60 -62 -83v-1q33 -7 53 -28t20 -54q0 -50 -44 -77t-119 -27z" />
    <glyph glyph-name="uni2089" unicode="&#x2089;" horiz-adv-x="395" 
d="M364 203q0 -94 -72 -150.5t-188 -58.5l-16 70q71 6 117.5 33t50.5 66q-33 -40 -96 -40q-57 0 -93.5 32t-36.5 78q0 55 45 89t114 34q85 0 130 -40.5t45 -112.5zM256 223q-2 26 -19 41t-48 15q-24 0 -38 -11.5t-14 -27.5q0 -18 14.5 -32.5t39.5 -14.5q41 0 65 30z" />
    <glyph glyph-name="uni208A" unicode="&#x208a;" horiz-adv-x="360" 
d="M42 141v78h98v94h78v-94h99v-78h-99v-96h-78v96h-98z" />
    <glyph glyph-name="uni208B" unicode="&#x208b;" horiz-adv-x="360" 
d="M42 141v78h275v-78h-275z" />
    <glyph glyph-name="uni208C" unicode="&#x208c;" horiz-adv-x="360" 
d="M42 66v78h275v-78h-275zM42 216v78h275v-78h-275z" />
    <glyph glyph-name="uni208D" unicode="&#x208d;" horiz-adv-x="235" 
d="M225 15l-59 -58q-71 36 -103.5 94.5t-32.5 121.5q0 59 33.5 115.5t103.5 99.5l52 -57q-46 -31 -67.5 -68t-21.5 -90q0 -95 95 -158z" />
    <glyph glyph-name="uni208E" unicode="&#x208e;" horiz-adv-x="235" 
d="M10 329l59 59q71 -36 103.5 -94.5t32.5 -121.5q0 -59 -33.5 -115.5t-103.5 -99.5l-53 57q46 31 68 68t22 90q0 96 -95 157z" />
    <glyph glyph-name="Euro" unicode="&#x20ac;" 
d="M18 397l35 93h75q35 101 119 161t204 60q81 0 132 -28l-43 -106q-36 19 -90 19q-58 0 -106 -27.5t-77 -78.5h250l-35 -93h-244q-3 -23 -3 -47t2 -35h222l-31 -93h-163q29 -56 82 -87t119 -31q55 0 87 15l19 -111q-44 -19 -116 -19q-121 0 -209 62t-123 171h-105l35 93h52
q-1 11 -1 35q0 15 2 47h-89z" />
    <glyph glyph-name="uni20B4" unicode="&#x20b4;" horiz-adv-x="600" 
d="M68 401v93h292q3 15 3 28q-1 39 -20 56.5t-47 17.5q-64 0 -115 -44l-59 86q63 73 181 73q83 0 133.5 -43.5t50.5 -113.5q0 -40 -16 -60h61v-93h-117q-19 -20 -53 -47t-43 -35h213v-93h-295q-17 -22 -17 -48q0 -34 27 -54t71 -20q73 0 131 58l60 -79q-69 -94 -207 -94
q-78 0 -137.5 45.5t-59.5 122.5q0 39 19 69h-56v93h122q16 16 50 43t48 39h-220z" />
    <glyph glyph-name="uni20B6" unicode="&#x20b6;" horiz-adv-x="600" 
d="M13 298v92h98v310q18 0 95 1t103 1q271 0 271 -205q0 -92 -66.5 -145.5t-188.5 -53.5h-92v-83h164v-92h-164v-123h-122v123h-98v92h98v83h-98zM322 587q-23 0 -89 -2v-195h88q129 0 129 96q0 53 -32 77t-96 24z" />
    <glyph glyph-name="uni20B6" unicode="&#x20cf;" horiz-adv-x="600" 
d="M13 298v92h98v310q18 0 95 1t103 1q271 0 271 -205q0 -92 -66.5 -145.5t-188.5 -53.5h-92v-83h164v-92h-164v-123h-122v123h-98v92h98v83h-98zM322 587q-23 0 -89 -2v-195h88q129 0 129 96q0 53 -32 77t-96 24z" />
    <glyph glyph-name="uni20B6" unicode="&#x20ce;" horiz-adv-x="600" 
d="M13 298v92h98v310q18 0 95 1t103 1q271 0 271 -205q0 -92 -66.5 -145.5t-188.5 -53.5h-92v-83h164v-92h-164v-123h-122v123h-98v92h98v83h-98zM322 587q-23 0 -89 -2v-195h88q129 0 129 96q0 53 -32 77t-96 24z" />
    <glyph glyph-name="uni20B6" unicode="&#x20cd;" horiz-adv-x="600" 
d="M13 298v92h98v310q18 0 95 1t103 1q271 0 271 -205q0 -92 -66.5 -145.5t-188.5 -53.5h-92v-83h164v-92h-164v-123h-122v123h-98v92h98v83h-98zM322 587q-23 0 -89 -2v-195h88q129 0 129 96q0 53 -32 77t-96 24z" />
    <glyph glyph-name="uni20B6" unicode="&#x20cc;" horiz-adv-x="600" 
d="M13 298v92h98v310q18 0 95 1t103 1q271 0 271 -205q0 -92 -66.5 -145.5t-188.5 -53.5h-92v-83h164v-92h-164v-123h-122v123h-98v92h98v83h-98zM322 587q-23 0 -89 -2v-195h88q129 0 129 96q0 53 -32 77t-96 24z" />
    <glyph glyph-name="uni20B6" unicode="&#x20cb;" horiz-adv-x="600" 
d="M13 298v92h98v310q18 0 95 1t103 1q271 0 271 -205q0 -92 -66.5 -145.5t-188.5 -53.5h-92v-83h164v-92h-164v-123h-122v123h-98v92h98v83h-98zM322 587q-23 0 -89 -2v-195h88q129 0 129 96q0 53 -32 77t-96 24z" />
    <glyph glyph-name="uni20B6" unicode="&#x20ca;" horiz-adv-x="600" 
d="M13 298v92h98v310q18 0 95 1t103 1q271 0 271 -205q0 -92 -66.5 -145.5t-188.5 -53.5h-92v-83h164v-92h-164v-123h-122v123h-98v92h98v83h-98zM322 587q-23 0 -89 -2v-195h88q129 0 129 96q0 53 -32 77t-96 24z" />
    <glyph glyph-name="uni20B6" unicode="&#x20c9;" horiz-adv-x="600" 
d="M13 298v92h98v310q18 0 95 1t103 1q271 0 271 -205q0 -92 -66.5 -145.5t-188.5 -53.5h-92v-83h164v-92h-164v-123h-122v123h-98v92h98v83h-98zM322 587q-23 0 -89 -2v-195h88q129 0 129 96q0 53 -32 77t-96 24z" />
    <glyph glyph-name="uni20B6" unicode="&#x20c8;" horiz-adv-x="600" 
d="M13 298v92h98v310q18 0 95 1t103 1q271 0 271 -205q0 -92 -66.5 -145.5t-188.5 -53.5h-92v-83h164v-92h-164v-123h-122v123h-98v92h98v83h-98zM322 587q-23 0 -89 -2v-195h88q129 0 129 96q0 53 -32 77t-96 24z" />
    <glyph glyph-name="uni20B6" unicode="&#x20c7;" horiz-adv-x="600" 
d="M13 298v92h98v310q18 0 95 1t103 1q271 0 271 -205q0 -92 -66.5 -145.5t-188.5 -53.5h-92v-83h164v-92h-164v-123h-122v123h-98v92h98v83h-98zM322 587q-23 0 -89 -2v-195h88q129 0 129 96q0 53 -32 77t-96 24z" />
    <glyph glyph-name="uni20B6" unicode="&#x20c6;" horiz-adv-x="600" 
d="M13 298v92h98v310q18 0 95 1t103 1q271 0 271 -205q0 -92 -66.5 -145.5t-188.5 -53.5h-92v-83h164v-92h-164v-123h-122v123h-98v92h98v83h-98zM322 587q-23 0 -89 -2v-195h88q129 0 129 96q0 53 -32 77t-96 24z" />
    <glyph glyph-name="uni20B6" unicode="&#x20c5;" horiz-adv-x="600" 
d="M13 298v92h98v310q18 0 95 1t103 1q271 0 271 -205q0 -92 -66.5 -145.5t-188.5 -53.5h-92v-83h164v-92h-164v-123h-122v123h-98v92h98v83h-98zM322 587q-23 0 -89 -2v-195h88q129 0 129 96q0 53 -32 77t-96 24z" />
    <glyph glyph-name="uni20B6" unicode="&#x20c4;" horiz-adv-x="600" 
d="M13 298v92h98v310q18 0 95 1t103 1q271 0 271 -205q0 -92 -66.5 -145.5t-188.5 -53.5h-92v-83h164v-92h-164v-123h-122v123h-98v92h98v83h-98zM322 587q-23 0 -89 -2v-195h88q129 0 129 96q0 53 -32 77t-96 24z" />
    <glyph glyph-name="uni20B6" unicode="&#x20c3;" horiz-adv-x="600" 
d="M13 298v92h98v310q18 0 95 1t103 1q271 0 271 -205q0 -92 -66.5 -145.5t-188.5 -53.5h-92v-83h164v-92h-164v-123h-122v123h-98v92h98v83h-98zM322 587q-23 0 -89 -2v-195h88q129 0 129 96q0 53 -32 77t-96 24z" />
    <glyph glyph-name="uni20B6" unicode="&#x20c2;" horiz-adv-x="600" 
d="M13 298v92h98v310q18 0 95 1t103 1q271 0 271 -205q0 -92 -66.5 -145.5t-188.5 -53.5h-92v-83h164v-92h-164v-123h-122v123h-98v92h98v83h-98zM322 587q-23 0 -89 -2v-195h88q129 0 129 96q0 53 -32 77t-96 24z" />
    <glyph glyph-name="uni20B6" unicode="&#x20c1;" horiz-adv-x="600" 
d="M13 298v92h98v310q18 0 95 1t103 1q271 0 271 -205q0 -92 -66.5 -145.5t-188.5 -53.5h-92v-83h164v-92h-164v-123h-122v123h-98v92h98v83h-98zM322 587q-23 0 -89 -2v-195h88q129 0 129 96q0 53 -32 77t-96 24z" />
    <glyph glyph-name="uni20B6" unicode="&#x20c0;" horiz-adv-x="600" 
d="M13 298v92h98v310q18 0 95 1t103 1q271 0 271 -205q0 -92 -66.5 -145.5t-188.5 -53.5h-92v-83h164v-92h-164v-123h-122v123h-98v92h98v83h-98zM322 587q-23 0 -89 -2v-195h88q129 0 129 96q0 53 -32 77t-96 24z" />
    <glyph glyph-name="uni20B6" unicode="&#x20bf;" horiz-adv-x="600" 
d="M13 298v92h98v310q18 0 95 1t103 1q271 0 271 -205q0 -92 -66.5 -145.5t-188.5 -53.5h-92v-83h164v-92h-164v-123h-122v123h-98v92h98v83h-98zM322 587q-23 0 -89 -2v-195h88q129 0 129 96q0 53 -32 77t-96 24z" />
    <glyph glyph-name="uni20B6" unicode="&#x20be;" horiz-adv-x="600" 
d="M13 298v92h98v310q18 0 95 1t103 1q271 0 271 -205q0 -92 -66.5 -145.5t-188.5 -53.5h-92v-83h164v-92h-164v-123h-122v123h-98v92h98v83h-98zM322 587q-23 0 -89 -2v-195h88q129 0 129 96q0 53 -32 77t-96 24z" />
    <glyph glyph-name="uni20B6" unicode="&#x20bd;" horiz-adv-x="600" 
d="M13 298v92h98v310q18 0 95 1t103 1q271 0 271 -205q0 -92 -66.5 -145.5t-188.5 -53.5h-92v-83h164v-92h-164v-123h-122v123h-98v92h98v83h-98zM322 587q-23 0 -89 -2v-195h88q129 0 129 96q0 53 -32 77t-96 24z" />
    <glyph glyph-name="uni20B6" unicode="&#x20bc;" horiz-adv-x="600" 
d="M13 298v92h98v310q18 0 95 1t103 1q271 0 271 -205q0 -92 -66.5 -145.5t-188.5 -53.5h-92v-83h164v-92h-164v-123h-122v123h-98v92h98v83h-98zM322 587q-23 0 -89 -2v-195h88q129 0 129 96q0 53 -32 77t-96 24z" />
    <glyph glyph-name="uni20B6" unicode="&#x20bb;" horiz-adv-x="600" 
d="M13 298v92h98v310q18 0 95 1t103 1q271 0 271 -205q0 -92 -66.5 -145.5t-188.5 -53.5h-92v-83h164v-92h-164v-123h-122v123h-98v92h98v83h-98zM322 587q-23 0 -89 -2v-195h88q129 0 129 96q0 53 -32 77t-96 24z" />
    <glyph glyph-name="uni20B6" unicode="&#x20ba;" horiz-adv-x="600" 
d="M13 298v92h98v310q18 0 95 1t103 1q271 0 271 -205q0 -92 -66.5 -145.5t-188.5 -53.5h-92v-83h164v-92h-164v-123h-122v123h-98v92h98v83h-98zM322 587q-23 0 -89 -2v-195h88q129 0 129 96q0 53 -32 77t-96 24z" />
    <glyph glyph-name="uni20B6" unicode="&#x20b9;" horiz-adv-x="600" 
d="M13 298v92h98v310q18 0 95 1t103 1q271 0 271 -205q0 -92 -66.5 -145.5t-188.5 -53.5h-92v-83h164v-92h-164v-123h-122v123h-98v92h98v83h-98zM322 587q-23 0 -89 -2v-195h88q129 0 129 96q0 53 -32 77t-96 24z" />
    <glyph glyph-name="uni20B6" unicode="&#x20b7;" horiz-adv-x="600" 
d="M13 298v92h98v310q18 0 95 1t103 1q271 0 271 -205q0 -92 -66.5 -145.5t-188.5 -53.5h-92v-83h164v-92h-164v-123h-122v123h-98v92h98v83h-98zM322 587q-23 0 -89 -2v-195h88q129 0 129 96q0 53 -32 77t-96 24z" />
    <glyph glyph-name="afii61352" unicode="&#x2116;" horiz-adv-x="1189" 
d="M675 0h-98l-365 485v-485h-115v700h98l365 -487v487h115v-700zM730 480q0 80 55.5 129t141.5 49t141.5 -49t55.5 -129t-55.5 -129.5t-141.5 -49.5t-141.5 49.5t-55.5 129.5zM837 480q0 -39 26 -62.5t64 -23.5q39 0 64 23.5t25 62.5q0 38 -25.5 61.5t-63.5 23.5t-64 -23.5
t-26 -61.5zM767 146v107h319v-107h-319z" />
    <glyph glyph-name="trademark" unicode="&#x2122;" horiz-adv-x="865" 
d="M379 385v315h97l119 -108l113 108h94v-315h-109v179l-100 -97h-2l-104 97v-179h-108zM17 596v104h323v-104h-107v-211h-108v211h-108z" />
    <glyph glyph-name="arrowleft" unicode="&#x2190;" horiz-adv-x="643" 
d="M323 556l81 -82l-144 -143h343v-115h-343l144 -145l-81 -81l-283 283z" />
    <glyph glyph-name="arrowup" unicode="&#x2191;" horiz-adv-x="646" 
d="M121 199l-81 81l283 283l283 -283l-82 -81l-144 144v-343h-115v343z" />
    <glyph glyph-name="arrowright" unicode="&#x2192;" horiz-adv-x="643" 
d="M239 474l81 82l283 -283l-283 -283l-81 81l144 145h-343v115h343z" />
    <glyph glyph-name="arrowdown" unicode="&#x2193;" horiz-adv-x="646" 
d="M40 263l81 81l144 -144v343h115v-343l144 144l82 -81l-283 -283z" />
    <glyph glyph-name="partialdiff" unicode="&#x2202;" horiz-adv-x="594" 
d="M36 201q0 108 70 184t182 76q102 0 148 -66q0 98 -60.5 153t-176.5 60l17 103q163 -3 252.5 -86.5t89.5 -235.5q0 -173 -77 -286.5t-220 -113.5q-102 0 -163.5 61t-61.5 151zM159 211q0 -48 31.5 -81.5t83.5 -33.5q63 0 103 55t50 137q-53 65 -134 65q-58 0 -96 -41.5
t-38 -100.5z" />
    <glyph glyph-name="product" unicode="&#x220f;" horiz-adv-x="882" 
d="M662 -200v785h-442v-785h-123v900h688v-900h-123z" />
    <glyph glyph-name="summation" unicode="&#x2211;" horiz-adv-x="642" 
d="M323 250l-283 365v85h562v-115h-390l253 -335l-261 -335h398v-115h-562v84z" />
    <glyph glyph-name="minus" unicode="&#x2212;" 
d="M66 310v100h464v-100h-464z" />
    <glyph glyph-name="uni2215" unicode="&#x2215;" horiz-adv-x="359" 
d="M-30 -175l330 886l89 -33l-330 -886z" />
    <glyph glyph-name="radical" unicode="&#x221a;" horiz-adv-x="623" 
d="M7 335v115h179l152 -256l122 506h293v-115h-193l-146 -587h-100l-207 337h-100z" />
    <glyph glyph-name="infinity" unicode="&#x221e;" horiz-adv-x="756" 
d="M552 168q-99 0 -176 92q-70 -92 -164 -92q-66 0 -116.5 48t-50.5 125q0 71 47.5 123t122.5 52q87 0 162 -97q69 97 174 97q72 0 116 -50t44 -129q0 -69 -44.5 -119t-114.5 -50zM224 268q51 0 97 66q-28 41 -49.5 61.5t-46.5 20.5q-33 0 -53 -21.5t-20 -53.5
q0 -34 20.5 -53.5t51.5 -19.5zM531 416q-28 0 -50 -19t-47 -55q56 -74 104 -74q29 0 47 21t18 52t-19 53t-53 22z" />
    <glyph glyph-name="integral" unicode="&#x222b;" horiz-adv-x="325" 
d="M184 -8q0 -97 -28.5 -146.5t-102.5 -52.5q-24 -1 -49 3q-49 6 -72 28l31 91q26 -16 51 -16q34 0 44.5 25.5t10.5 74.5v524q0 88 39 135.5t110 51.5q28 0 51 -4q56 -7 86 -37l-39 -88q-18 16 -44 19q-21 4 -42 -1q-46 -13 -46 -85v-522z" />
    <glyph glyph-name="approxequal" unicode="&#x2248;" 
d="M92 193l-50 74q70 80 146 80q42 0 118 -34t115 -34q48 0 88 45l45 -79q-70 -66 -134 -66q-41 0 -116 34t-109 34q-49 0 -103 -54zM92 383l-50 74q70 80 146 80q42 0 118 -34t115 -34q48 0 88 45l45 -79q-70 -66 -134 -66q-41 0 -116 34t-109 34q-49 0 -103 -54z" />
    <glyph glyph-name="notequal" unicode="&#x2260;" 
d="M66 405v100h234l78 206l88 -33l-65 -173h129v-100h-166l-33 -90h199v-100h-237l-84 -226l-90 33l72 193h-125v100h163l34 90h-197z" />
    <glyph glyph-name="lessequal" unicode="&#x2264;" 
d="M49 242v105l464 -266v-110zM513 161l-464 271v49l464 269v-124l-306 -169l306 -171v-125z" />
    <glyph glyph-name="greaterequal" unicode="&#x2265;" 
d="M547 347v-105l-465 -271v110zM547 432l-465 -271v125l307 171l-307 169v124l465 -269v-49z" />
    <glyph glyph-name="lozenge" unicode="&#x25ca;" horiz-adv-x="488" 
d="M197 -2l-167 251l168 267h93l167 -256l-168 -262h-93zM146 250l98 -147l98 157l-98 144z" />
    <glyph glyph-name="spade" unicode="&#x2660;" horiz-adv-x="632" 
d="M316 510q88 -55 172 -151t84 -160q0 -42 -30 -73t-87 -31q-79 0 -131 72q28 -119 107 -167h-230q73 52 105 164q-51 -69 -129 -69q-58 0 -87.5 31t-29.5 74q0 63 84 159t172 151z" />
    <glyph glyph-name="club" unicode="&#x2663;" horiz-adv-x="612" 
d="M177 381q0 53 38 91t91 38t91 -38t38 -91q0 -7 -2 -19q50 -4 84.5 -41t34.5 -87q0 -53 -38 -91t-91 -38q-66 0 -104 53q31 -115 102 -158h-230q63 44 100 156q-40 -51 -102 -51q-53 0 -91 38t-38 91q0 50 34 87t84 41q-1 6 -1 19z" />
    <glyph glyph-name="heart" unicode="&#x2665;" horiz-adv-x="649" 
d="M325 0q-93 70 -179 181.5t-86 188.5q0 53 30.5 91.5t90.5 38.5q88 0 144 -104q54 104 143 104q59 0 90 -38t31 -91q0 -77 -85.5 -188.5t-178.5 -182.5z" />
    <glyph glyph-name="diamond" unicode="&#x2666;" horiz-adv-x="583" 
d="M523 249q-109 -109 -232 -268q-103 136 -231 268q108 113 231 269q120 -153 232 -269z" />
    <glyph glyph-name="uniF350" unicode="&#xf350;" horiz-adv-x="611" 
d="M6 0l245 526h109l245 -526h-131l-49 108h-247l-49 -108h-123zM302 383l-73 -161h145z" />
    <glyph glyph-name="uniF351" unicode="&#xf351;" horiz-adv-x="539" 
d="M450 525v-115h-250v-80q25 4 86 4q95 0 148 -41.5t53 -120.5q0 -176 -228 -176q-41 0 -105 2t-76 2v525h372zM271 220q-49 0 -71 -4v-103q46 -2 72 -2q51 0 72 13.5t21 41.5q0 54 -94 54z" />
    <glyph glyph-name="uniF352" unicode="&#xf352;" horiz-adv-x="540" 
d="M78 1v522q80 5 197 5q99 0 147 -36t48 -94q0 -42 -21 -74t-60 -48v-1q99 -18 99 -116q0 -80 -61 -121.5t-160 -41.5q-132 0 -189 5zM282 210h-82v-94q27 -5 77 -5q88 0 88 51q0 48 -83 48zM273 413q-47 0 -73 -3v-92h76q32 0 52 12t20 36q0 47 -75 47z" />
    <glyph glyph-name="uniF353" unicode="&#xf353;" horiz-adv-x="441" 
d="M78 0v525h348v-115h-226v-410h-122z" />
    <glyph glyph-name="uniF354" unicode="&#xf354;" horiz-adv-x="638" 
d="M9 -90v205h63q25 28 52.5 110.5t34.5 194.5l5 105h376v-410h80v-205h-115v90h-381v-90h-115zM273 335q-8 -80 -28 -140.5t-38 -79.5h210v295h-134z" />
    <glyph glyph-name="uniF355" unicode="&#xf355;" horiz-adv-x="498" 
d="M78 0v525h359v-115h-237v-88h213v-115h-213v-92h246v-115h-368z" />
    <glyph glyph-name="uniF356" unicode="&#xf356;" horiz-adv-x="818" 
d="M223 274l-206 251h148l183 -237v237h123v-237l183 237h148l-206 -249l215 -276h-148l-192 259v-259h-123v259l-192 -259h-148z" />
    <glyph glyph-name="uniF357" unicode="&#xf357;" horiz-adv-x="516" 
d="M247 -11q-79 0 -136 28.5t-85 66.5l67 83q65 -63 155 -63q93 0 93 53q0 52 -95 52h-78v115h74q32 0 54.5 12.5t22.5 33.5q0 47 -72 47q-88 0 -132 -54l-71 83q31 39 84.5 62.5t122.5 23.5q83 0 136.5 -39t53.5 -109q0 -81 -68 -111v-3q45 -10 68 -44t23 -81
q0 -72 -59.5 -114t-157.5 -42z" />
    <glyph glyph-name="uniF358" unicode="&#xf358;" horiz-adv-x="663" 
d="M185 0h-107v525h122v-330l278 330h107v-525h-122v330z" />
    <glyph glyph-name="uniF359" unicode="&#xf359;" horiz-adv-x="663" 
d="M185 0h-107v525h122v-330l278 330h107v-525h-122v330zM166 700h107q0 -53 60 -53q55 0 55 53h108q0 -64 -43.5 -101t-119.5 -37q-83 0 -125 36t-42 102z" />
    <glyph glyph-name="uniF35A" unicode="&#xf35a;" horiz-adv-x="586" 
d="M78 0v525h122v-238l203 238h159l-224 -242l240 -283h-166l-212 260v-260h-122z" />
    <glyph glyph-name="uniF35B" unicode="&#xf35b;" horiz-adv-x="613" 
d="M412 0v410h-146l-12 -99q-11 -101 -31 -166.5t-50.5 -99.5t-67.5 -43.5t-88 -1.5l2 118q17 -3 29.5 0t28.5 20t27.5 48.5t22.5 91t18 142.5l9 105h381v-525h-123z" />
    <glyph glyph-name="uniF35C" unicode="&#xf35c;" horiz-adv-x="761" 
d="M78 0v525h123l188 -219l178 219h116v-525h-122v338l-172 -202h-17l-172 199v-335h-122z" />
    <glyph glyph-name="uniF35D" unicode="&#xf35d;" horiz-adv-x="649" 
d="M449 0v210h-249v-210h-122v525h122v-200h249v200h122v-525h-122z" />
    <glyph glyph-name="uniF35E" unicode="&#xf35e;" horiz-adv-x="659" 
d="M35 261q0 116 82 193.5t212 77.5t212.5 -74t82.5 -197q0 -119 -83.5 -195.5t-211.5 -76.5q-129 0 -211.5 74t-82.5 198zM165 261q0 -67 47.5 -112t116.5 -45q78 0 121.5 44t43.5 113q0 70 -47 113t-118 43q-72 0 -118 -43t-46 -113z" />
    <glyph glyph-name="uniF35F" unicode="&#xf35f;" horiz-adv-x="649" 
d="M449 0v410h-249v-410h-122v525h493v-525h-122z" />
    <glyph glyph-name="uniF360" unicode="&#xf360;" horiz-adv-x="521" 
d="M200 0h-122v525q15 0 83 1t91 1q124 0 179 -51t55 -135q0 -83 -58 -136t-158 -53q-36 0 -70 3v-155zM265 412q-25 0 -65 -2v-139q42 -4 66 -4q41 0 65.5 19t24.5 55q0 71 -91 71z" />
    <glyph glyph-name="uniF361" unicode="&#xf361;" horiz-adv-x="549" 
d="M476 142l47 -92q-27 -27 -79.5 -44t-109.5 -17q-136 0 -217.5 74.5t-81.5 197.5q0 115 76.5 193t219.5 78q113 0 180 -54l-55 -92q-64 31 -124 31q-75 0 -121 -41t-46 -115q0 -70 49 -113.5t131 -43.5q74 0 131 38z" />
    <glyph glyph-name="uniF362" unicode="&#xf362;" horiz-adv-x="503" 
d="M9 410v115h485v-115h-182v-410h-122v410h-181z" />
    <glyph glyph-name="uniF363" unicode="&#xf363;" horiz-adv-x="567" 
d="M560 525l-198 -397q-62 -128 -169 -128q-45 0 -78 23l43 104q21 -12 41 -12q28 0 45 30l9 14l-244 366h154l152 -245l119 245h126z" />
    <glyph glyph-name="uniF364" unicode="&#xf364;" horiz-adv-x="705" 
d="M290 -6v56q-121 2 -192.5 59.5t-71.5 160.5q0 101 72.5 159.5t191.5 60.5v41h123v-41q121 -2 193 -59t72 -161q0 -103 -72.5 -161t-192.5 -59v-56h-123zM548 270q0 41 -34 74t-101 34v-216q68 1 101.5 30.5t33.5 77.5zM156 270q0 -46 34.5 -76.5t99.5 -31.5v216
q-65 -1 -99.5 -34t-34.5 -74z" />
    <glyph glyph-name="uniF365" unicode="&#xf365;" horiz-adv-x="563" 
d="M552 525l-191 -257l199 -268h-152l-128 174l-125 -174h-152l199 268l-190 257h152l120 -167l117 167h151z" />
    <glyph glyph-name="uniF366" unicode="&#xf366;" horiz-adv-x="657" 
d="M78 0v525h122v-410h237v410h123v-410h79v-205h-114v90h-447z" />
    <glyph glyph-name="uniF367" unicode="&#xf367;" horiz-adv-x="576" 
d="M498 525v-525h-122v201q-49 -32 -132 -32q-34 0 -65 8.5t-59.5 27t-45 52.5t-16.5 80v188h122v-144q0 -97 90 -97q61 0 106 28v213h122z" />
    <glyph glyph-name="uniF368" unicode="&#xf368;" horiz-adv-x="837" 
d="M78 0v525h122v-410h157v410h123v-410h157v410h122v-525h-681z" />
    <glyph glyph-name="uniF369" unicode="&#xf369;" horiz-adv-x="857" 
d="M78 0v525h122v-410h157v410h123v-410h157v410h122v-410h80v-205h-115v90h-646z" />
    <glyph glyph-name="uniF36A" unicode="&#xf36a;" horiz-adv-x="565" 
d="M7 410v115h244v-163q23 3 58 3q111 0 166 -47t55 -131q0 -86 -64.5 -137.5t-182.5 -51.5q-33 0 -87 1t-68 1v410h-121zM298 250q-18 0 -47 -3v-132q17 -2 55 -2q94 0 94 71q0 66 -102 66z" />
    <glyph glyph-name="uniF36B" unicode="&#xf36b;" horiz-adv-x="736" 
d="M535 0v525h123v-525h-123zM247 250q-28 0 -47 -2v-133q17 -2 46 -2q95 0 95 71q0 66 -94 66zM200 525v-163q23 3 57 3q106 0 160 -47.5t54 -130.5q0 -86 -63.5 -137.5t-176.5 -51.5q-33 0 -86 1t-67 1v525h122z" />
    <glyph glyph-name="uniF36C" unicode="&#xf36c;" horiz-adv-x="515" 
d="M248 250q-10 0 -48 -2v-133q34 -2 46 -2q104 0 104 71q0 66 -102 66zM200 525v-163q23 3 58 3q111 0 166.5 -47t55.5 -131q0 -86 -65.5 -137.5t-183.5 -51.5q-32 0 -85.5 1t-67.5 1v525h122z" />
    <glyph glyph-name="uniF36D" unicode="&#xf36d;" horiz-adv-x="562" 
d="M154 210v115h240q-33 94 -167 94q-98 0 -156 -38l-47 92q81 61 208 61q129 0 212 -75t83 -197q0 -126 -84 -198.5t-227 -72.5q-60 0 -114 16t-83 39l52 103q65 -43 160 -43q139 0 167 104h-244z" />
    <glyph glyph-name="uniF36E" unicode="&#xf36e;" horiz-adv-x="877" 
d="M78 0v525h122v-200h83q19 94 90.5 151.5t182.5 57.5q133 0 209.5 -73t76.5 -198q0 -122 -77.5 -197t-208.5 -75q-109 0 -183.5 58.5t-90.5 160.5h-82v-210h-122zM408 263q0 -68 42 -112.5t110 -44.5q74 0 113 44t39 113q0 71 -41.5 113.5t-110.5 42.5q-68 0 -110 -43
t-42 -113z" />
    <glyph glyph-name="uniF36F" unicode="&#xf36f;" horiz-adv-x="559" 
d="M358 0v160h-92l-110 -160h-145l136 187q-89 51 -89 147q0 82 60 138t180 56q38 0 104 -1.5t79 -1.5v-525h-123zM256 275h102v135q-33 3 -72 3q-47 0 -72.5 -19t-25.5 -52q0 -27 20 -44.5t48 -22.5z" />
    <glyph glyph-name="uniF371" unicode="&#xf371;" horiz-adv-x="498" 
d="M78 0v525h359v-115h-237v-88h213v-115h-213v-92h246v-115h-368zM108 645q0 27 18.5 43.5t46.5 16.5q22 0 40 -17t18 -43q0 -28 -17.5 -45t-40.5 -17q-28 0 -46.5 16.5t-18.5 45.5zM287 645q0 27 19 43.5t45 16.5q24 0 42 -16.5t18 -43.5q0 -29 -18 -45.5t-42 -16.5
q-27 0 -45.5 16.5t-18.5 45.5z" />
    <glyph glyph-name="uniF372" unicode="&#xf372;" horiz-adv-x="642" 
d="M607 160q0 -84 -40.5 -126.5t-113.5 -42.5q-34 0 -64.5 11.5t-41.5 25.5l40 94q25 -16 50 -16q47 0 47 49q0 54 -77 54q-40 0 -95 -25v-184h-122v410h-181v115h485v-115h-182v-107q57 21 118 21q79 0 128 -39.5t49 -124.5z" />
    <glyph glyph-name="uniF373" unicode="&#xf373;" horiz-adv-x="441" 
d="M78 0v525h348v-115h-226v-410h-122zM380 688l-149 -118l-55 64l133 142z" />
    <glyph glyph-name="uniF374" unicode="&#xf374;" horiz-adv-x="562" 
d="M409 322v-115h-243q32 -101 178 -101q91 0 155 43l44 -103q-29 -24 -82 -39.5t-114 -15.5q-144 0 -228 72.5t-84 199.5q0 121 83 196t213 75q126 0 207 -61l-54 -92q-58 38 -149 38q-145 0 -171 -97h245z" />
    <glyph glyph-name="uniF375" unicode="&#xf375;" horiz-adv-x="500" 
d="M335 151q0 20 -29.5 35t-71.5 27.5t-84.5 30t-72 52t-29.5 84.5q0 67 52 109.5t163 42.5q49 0 109 -21.5t88 -51.5l-56 -91q-28 21 -71.5 35t-74.5 14q-80 0 -80 -43q0 -19 29.5 -32t72 -25t84.5 -29.5t71.5 -53.5t29.5 -89q0 -70 -59 -113t-153 -43q-66 0 -131 25
t-95 66l70 83q25 -24 74 -41.5t91 -17.5q32 0 52.5 12.5t20.5 34.5z" />
    <glyph glyph-name="uniF376" unicode="&#xf376;" horiz-adv-x="297" 
d="M87 0v525h123v-525h-123z" />
    <glyph glyph-name="uniF377" unicode="&#xf377;" horiz-adv-x="322" 
d="M29 645q0 25 17 40.5t42 15.5q21 0 37.5 -15.5t16.5 -40.5q0 -27 -16 -43.5t-38 -16.5q-26 0 -42.5 16t-16.5 44zM181 645q0 25 17 40.5t42 15.5q22 0 38 -15.5t16 -40.5q0 -27 -16 -43.5t-38 -16.5q-25 0 -42 16t-17 44zM100 0v525h123v-525h-123z" />
    <glyph glyph-name="uniF378" unicode="&#xf378;" horiz-adv-x="336" 
d="M258 525v-396q0 -67 -38 -102.5t-111 -35.5q-35 0 -65.5 11.5t-41.5 25.5l40 94q23 -16 49 -16q45 0 45 44v375h122z" />
    <glyph glyph-name="uniF379" unicode="&#xf379;" horiz-adv-x="840" 
d="M412 0v410h-143l-14 -99q-13 -102 -33 -167t-50.5 -99t-67 -43.5t-87.5 -1.5l2 122q17 -2 29.5 0.5t28.5 18.5t27.5 47t22.5 90t18 142l9 105h381v-163q22 3 56 3q106 0 160 -47.5t54 -130.5q0 -87 -63.5 -138t-176.5 -51q-33 0 -86 1t-67 1zM580 250q-18 0 -45 -3v-131
q23 -3 44 -3q96 0 96 71q0 66 -95 66z" />
    <glyph glyph-name="uniF37A" unicode="&#xf37a;" horiz-adv-x="869" 
d="M78 0v525h122v-183h241v183h122v-178q23 2 57 2q105 0 159.5 -45.5t54.5 -123.5q0 -81 -64 -131.5t-176 -50.5q-25 0 -69.5 1t-59.5 1h-24v227h-241v-227h-122zM563 232v-116q24 -3 45 -3q96 0 96 63q0 28 -25.5 43.5t-69.5 15.5q-17 0 -46 -3z" />
    <glyph glyph-name="uniF37B" unicode="&#xf37b;" horiz-adv-x="642" 
d="M9 410v115h485v-115h-182v-116q50 23 116 23q75 0 127 -39.5t52 -127.5v-150h-123v113q0 89 -82 89q-51 0 -90 -21v-181h-122v410h-181z" />
    <glyph glyph-name="uniF37C" unicode="&#xf37c;" horiz-adv-x="586" 
d="M78 0v525h122v-238l203 238h159l-224 -242l240 -283h-166l-212 260v-260h-122zM415 688l-149 -118l-55 64l133 142z" />
    <glyph glyph-name="uniF37E" unicode="&#xf37e;" horiz-adv-x="567" 
d="M560 525l-198 -397q-62 -128 -169 -128q-45 0 -78 23l43 104q21 -12 41 -12q28 0 45 30l9 14l-244 366h154l152 -245l119 245h126zM122 700h107q0 -53 60 -53q55 0 55 53h108q0 -64 -43.5 -101t-119.5 -37q-83 0 -125 36t-42 102z" />
    <glyph glyph-name="uniF37F" unicode="&#xf37f;" horiz-adv-x="641" 
d="M78 0v525h122v-410h241v410h122v-525h-185v-113h-115v113h-185z" />
    <glyph glyph-name="uniF381" unicode="&#xf381;" horiz-adv-x="527" 
d="M7 375v100h83v50h123v-50h123v-100h-123v-43q23 3 57 3q222 0 222 -163q0 -84 -64 -129t-184 -45q-32 0 -86 1t-68 1v375h-83zM260 227q-6 0 -21.5 -0.5t-25.5 -0.5v-119q8 0 23 -1t22 -1q104 0 104 64q0 58 -102 58z" />
    <glyph glyph-name="uniF389" unicode="&#xf389;" horiz-adv-x="659" 
d="M35 261q0 116 82 193.5t212 77.5t212.5 -74t82.5 -197q0 -119 -83.5 -195.5t-211.5 -76.5q-129 0 -211.5 74t-82.5 198zM242 247q-40 0 -72 -28q14 -51 58 -83t101 -32q103 0 144 74q-25 -12 -50 -12q-34 0 -67 20t-62 40.5t-52 20.5zM433 274q30 0 57 21
q-11 56 -55.5 89t-105.5 33q-101 0 -144 -76q31 14 58 14q36 0 70.5 -20.5t64.5 -40.5t55 -20z" />
    <glyph glyph-name="uniF38A" unicode="&#xf38a;" horiz-adv-x="548" 
d="M468 354l-143 -354h-94l-237 525h139l149 -358l87 239q30 85 71.5 111.5t122.5 7.5v-100q-32 6 -54 -10t-41 -61z" />
    <glyph glyph-name="uniF393" unicode="&#xf393;" horiz-adv-x="449" 
d="M78 0v525h241v82h115v-197h-234v-410h-122z" />
    <glyph glyph-name="uniF3CF" unicode="&#xf3cf;" horiz-adv-x="1003" 
d="M569 0h-99l-277 326v-326h-115v525h98l278 -327v327h115v-525zM606 361q0 63 48.5 101.5t124.5 38.5t124 -38.5t48 -101.5q0 -64 -48 -103t-124 -39t-124.5 39t-48.5 103zM714 361q0 -23 18 -36.5t47 -13.5t47 13t18 37q0 22 -18 35t-47 13t-47 -13t-18 -35zM639 77v107
h279v-107h-279z" />
    <glyph glyph-name="uniF3D0" unicode="&#xf3d0;" horiz-adv-x="450" 
d="M60 700h107q0 -53 60 -53q55 0 55 53h108q0 -64 -43.5 -101t-119.5 -37q-83 0 -125 36t-42 102z" />
    <glyph glyph-name="uniF400" unicode="&#xf400;" horiz-adv-x="0" 
d="M-126 662l-126 -145l-69 48l105 165z" />
    <glyph glyph-name="uniF401" unicode="&#xf401;" horiz-adv-x="0" 
d="M-235 812l-225 -81l-32 69l214 111z" />
    <glyph glyph-name="uniF406" unicode="&#xf406;" horiz-adv-x="496" 
d="M60 841l50 59q56 -63 143 -63q85 0 140 63l43 -60q-27 -43 -76.5 -73t-106.5 -30q-64 0 -116 31.5t-77 72.5z" />
    <glyph glyph-name="uniF407" unicode="&#xf407;" horiz-adv-x="392" 
d="M60 -163l37 58q40 -33 74 -33q39 0 39 25q0 28 -41 28h-6v85h58v-35q111 -6 111 -85q0 -39 -35.5 -63.5t-97.5 -24.5q-81 0 -139 45z" />
    <glyph glyph-name="uniF408" unicode="&#xf408;" horiz-adv-x="478" 
d="M60 792l175 112h4l179 -111l-45 -65l-136 71l-136 -71z" />
    <glyph glyph-name="uniF409" unicode="&#xf409;" horiz-adv-x="278" 
d="M86 -58l112 25q20 -12 20 -49q0 -50 -38 -83t-86 -41l-34 50q43 18 43 60q0 26 -17 38z" />
    <glyph glyph-name="uniF40A" unicode="&#xf40a;" horiz-adv-x="273" 
d="M82 716l97 57q34 -36 34 -93q0 -63 -30 -106.5t-70 -65.5l-53 49q45 37 45 97q0 39 -23 62z" />
    <glyph glyph-name="uniF40B" unicode="&#xf40b;" horiz-adv-x="274" 
d="M60 831q0 32 23 51.5t56 19.5q30 0 52.5 -19.5t22.5 -51.5q0 -34 -22.5 -54.5t-52.5 -20.5q-33 0 -56 20t-23 55z" />
    <glyph glyph-name="uniF40C" unicode="&#xf40c;" horiz-adv-x="402" 
d="M60 800q0 54 39 81t100 27q63 0 103 -27t40 -81q0 -53 -40.5 -81.5t-102.5 -28.5q-61 0 -100 28.5t-39 81.5zM145 800q0 -23 15.5 -35t39.5 -12q25 0 41 12t16 35q0 45 -57 45q-55 0 -55 -45z" />
    <glyph glyph-name="uniF40D" unicode="&#xf40d;" horiz-adv-x="482" 
d="M96 753l-36 73q47 54 112 54q31 0 74 -17.5t69 -17.5q46 0 76 32l31 -73q-41 -59 -115 -59q-25 0 -70.5 17.5t-74.5 17.5q-33 0 -66 -27z" />
    <glyph glyph-name="uniF40E" unicode="&#xf40e;" horiz-adv-x="357" 
d="M262 -98l35 -70q-13 -13 -42.5 -22.5t-60.5 -9.5q-57 0 -95.5 23t-38.5 71q0 60 68.5 93t155.5 33v-20q-44 0 -76.5 -21t-32.5 -47q0 -21 13.5 -30.5t31.5 -9.5q21 0 42 10z" />
    <glyph glyph-name="uniF410" unicode="&#xf410;" horiz-adv-x="0" 
d="M-287 731l-225 81l43 99l214 -111z" />
    <glyph glyph-name="uniF416" unicode="&#xf416;" horiz-adv-x="278" 
d="M86 -58l112 25q20 -12 20 -49q0 -50 -38 -83t-86 -41l-34 50q43 18 43 60q0 26 -17 38z" />
    <glyph glyph-name="uniF418" unicode="&#xf418;" horiz-adv-x="273" 
d="M82 519l97 57q34 -36 34 -93q0 -63 -30 -106.5t-70 -65.5l-53 49q45 37 45 97q0 39 -23 62z" />
    <glyph glyph-name="uniF447" unicode="&#xf447;" horiz-adv-x="503" 
d="M125 -166l34 54q33 -26 70 -26q39 0 39 25q0 28 -41 28h-6v85h-31v410h-181v115h485v-115h-182v-410h-33v-35q104 -6 104 -85q0 -40 -36 -64t-102 -24q-63 0 -120 42z" />
    <glyph glyph-name="uniF44E" unicode="&#xf44e;" horiz-adv-x="624" 
d="M38 324h418q-12 45 -55 69t-104 24q-77 0 -133 -37l-48 91q79 61 193 61q128 0 204 -74.5t76 -197.5q0 -125 -79 -198t-206 -73q-137 0 -211.5 89t-54.5 246zM303 104q140 0 158 105h-296q1 -43 39 -74t99 -31z" />
    <glyph glyph-name="uniF639" unicode="&#xf639;" 
d="M63 350q0 166 59 262t176 96q116 0 175 -96t59 -262q0 -167 -58 -262.5t-174 -95.5q-117 0 -177 96t-60 262zM186 350q0 -251 114 -251q59 0 84.5 59.5t25.5 191.5q0 131 -26 190.5t-86 59.5q-59 0 -85.5 -61t-26.5 -189z" />
    <glyph glyph-name="uniF63A" unicode="&#xf63a;" 
d="M81 0v92q128 125 170 175q120 140 120 235q0 43 -23 67t-66 24q-37 0 -63.5 -25t-37.5 -69l-96 43q15 77 71.5 121.5t138.5 44.5q95 0 147 -54t52 -129q0 -198 -264 -418h290v-107h-439z" />
    <glyph glyph-name="uniF63B" unicode="&#xf63b;" 
d="M292 -11q-78 0 -136 31.5t-86 86.5l65 84q59 -87 150 -87q54 0 83.5 27.5t29.5 69.5q0 48 -34.5 73.5t-95.5 25.5h-50v115h45q45 0 76.5 26.5t31.5 69.5q0 39 -22.5 62t-66.5 23q-81 0 -132 -75l-64 81q58 109 207 109q91 0 146 -48t55 -130q0 -119 -107 -166v-3
q64 -11 99 -57t35 -110q0 -95 -65 -151.5t-164 -56.5z" />
    <glyph glyph-name="uniF63C" unicode="&#xf63c;" 
d="M355 0v162h-321v85l270 453h132l-253 -423h172v173h115v-173h89v-115h-89v-162h-115z" />
    <glyph glyph-name="uniF63D" unicode="&#xf63d;" 
d="M126 328l46 372h331v-115h-230l-20 -139q22 4 40 4q95 0 157.5 -61t62.5 -162q0 -110 -69 -174t-172 -64q-59 0 -116.5 26.5t-88.5 73.5l66 87q22 -32 62 -52t80 -20q50 0 82.5 33t32.5 85q0 54 -40 89t-109 35q-73 0 -115 -18z" />
    <glyph glyph-name="uniF63E" unicode="&#xf63e;" 
d="M50 248q0 92 32 174.5t83 140t110.5 95.5t118.5 53l47 -87q-90 -27 -159.5 -93t-95.5 -163q47 65 144 65q82 0 139 -60t57 -154q0 -105 -68 -167.5t-158 -62.5q-114 0 -182 75t-68 184zM172 247q0 -62 34 -102.5t95 -40.5q46 0 74.5 31.5t28.5 75.5q0 50 -29.5 82.5
t-83.5 32.5q-43 0 -73 -23t-46 -56z" />
    <glyph glyph-name="uniF63F" unicode="&#xf63f;" 
d="M86 585v115h440v-77l-247 -623h-126l235 585h-302z" />
    <glyph glyph-name="uniF640" unicode="&#xf640;" 
d="M289 417h20q39 0 64.5 27t25.5 63q0 42 -28 65.5t-74 23.5q-45 0 -72 -24.5t-27 -64.5q0 -36 26 -63t65 -27zM308 302h-17q-46 0 -79.5 -27t-33.5 -72q0 -43 32.5 -71t87.5 -28q60 0 90.5 27.5t29.5 71.5q0 47 -31 73t-79 26zM299 -11q-105 0 -174 52.5t-69 139.5
q0 65 33.5 112t85.5 65v3q-42 18 -71 62.5t-29 103.5q0 81 64 132.5t159 51.5q94 0 158.5 -51.5t64.5 -132.5q0 -52 -28.5 -98t-78.5 -67v-3q54 -11 90.5 -56.5t36.5 -111.5q0 -94 -68.5 -148t-173.5 -54z" />
    <glyph glyph-name="uniF641" unicode="&#xf641;" 
d="M542 444q0 -195 -101.5 -315.5t-257.5 -139.5l-38 91q218 44 261 244q-46 -63 -133 -63q-89 0 -150 62t-61 155q0 105 71 169t161 64q115 0 181.5 -74t66.5 -193zM420 445q0 64 -33 107.5t-93 43.5q-47 0 -78.5 -33t-31.5 -77q0 -48 32 -82.5t85 -34.5q83 0 119 76z" />
    <glyph glyph-name="uniF643" unicode="&#xf643;" 
d="M33 250q0 107 72 184t193 77t193 -77t72 -184t-72 -184t-193 -77t-193 77t-72 184zM155 250q0 -62 39 -104t104 -42q67 0 104.5 41.5t37.5 104.5q0 65 -38.5 105.5t-103.5 40.5t-104 -41t-39 -105z" />
    <glyph glyph-name="uniF644" unicode="&#xf644;" 
d="M117 415l170 93h80v-508h-123v362l-89 -51z" />
    <glyph glyph-name="uniF645" unicode="&#xf645;" 
d="M81 0v85q291 120 291 227q0 38 -22 61.5t-62 23.5q-83 0 -118 -84l-74 74q21 55 76 90t120 35q97 0 146 -48.5t49 -124.5q0 -77 -53.5 -137.5t-110.5 -86.5h198v-115h-440z" />
    <glyph glyph-name="uniF646" unicode="&#xf646;" 
d="M292 -211q-78 0 -136 31.5t-86 86.5l65 84q59 -87 150 -87q54 0 83.5 27.5t29.5 69.5q0 48 -34.5 73.5t-95.5 25.5h-50v115h45q45 0 76.5 26.5t31.5 69.5q0 39 -22.5 62t-66.5 23q-81 0 -132 -75l-64 81q58 109 207 109q91 0 146 -48t55 -130q0 -119 -107 -166v-3
q64 -11 99 -57t35 -110q0 -95 -65 -151.5t-164 -56.5z" />
    <glyph glyph-name="uniF647" unicode="&#xf647;" 
d="M354 -200v200h-320v84l250 416h132l-233 -385h171v172h115v-172h90v-115h-90v-200h-115z" />
    <glyph glyph-name="uniF648" unicode="&#xf648;" 
d="M126 128l46 372h331v-115h-230l-20 -139q22 4 40 4q95 0 157.5 -61t62.5 -162q0 -110 -69 -174t-172 -64q-59 0 -116.5 26.5t-88.5 73.5l66 87q22 -32 62 -52t80 -20q50 0 82.5 33t32.5 85q0 54 -40 89t-109 35q-73 0 -115 -18z" />
    <glyph glyph-name="uniF649" unicode="&#xf649;" 
d="M50 248q0 92 32 174.5t83 140t110.5 95.5t118.5 53l47 -87q-90 -27 -159.5 -93t-95.5 -163q47 65 144 65q82 0 139 -60t57 -154q0 -105 -68 -167.5t-158 -62.5q-114 0 -182 75t-68 184zM172 247q0 -62 34 -102.5t95 -40.5q46 0 74.5 31.5t28.5 75.5q0 50 -29.5 82.5
t-83.5 32.5q-43 0 -73 -23t-46 -56z" />
    <glyph glyph-name="uniF64A" unicode="&#xf64a;" 
d="M86 385v115h440v-77l-248 -623h-126l236 585h-302z" />
    <glyph glyph-name="uniF64B" unicode="&#xf64b;" 
d="M290 417h19q39 0 64.5 27t25.5 63q0 42 -28 65.5t-74 23.5q-45 0 -72 -25t-27 -64q0 -36 26 -63t66 -27zM309 302h-17q-46 0 -79.5 -27t-33.5 -72q0 -43 32 -71t87 -28q60 0 91 27.5t30 71.5q-1 47 -31.5 73t-78.5 26zM299 -11q-105 0 -174 52.5t-69 139.5q0 65 33.5 112
t86.5 65v3q-43 18 -71.5 62.5t-28.5 103.5q0 81 64 132.5t158 51.5q95 0 159.5 -51.5t64.5 -132.5q0 -52 -29 -98t-79 -67v-3q54 -11 90.5 -56.5t36.5 -111.5q0 -94 -68.5 -148t-173.5 -54z" />
    <glyph glyph-name="uniF64C" unicode="&#xf64c;" 
d="M542 244q0 -195 -101.5 -315.5t-257.5 -139.5l-38 91q218 44 261 244q-46 -63 -133 -63q-89 0 -150 62t-61 155q0 105 71 169t161 64q115 0 181.5 -74t66.5 -193zM420 245q0 64 -33 107.5t-93 43.5q-47 0 -78.5 -33t-31.5 -77q0 -48 32 -82.5t85 -34.5q83 0 119 76z" />
    <glyph glyph-name="uniF66D" unicode="&#xf66d;" horiz-adv-x="611" 
d="M6 0l245 526h109l245 -526h-131l-49 108h-247l-49 -108h-123zM302 383l-73 -161h145zM149 671l51 58q50 -57 110 -57q68 0 112 55l40 -55q-61 -92 -157 -92q-57 0 -97 29t-59 62z" />
    <glyph glyph-name="uniF66E" unicode="&#xf66e;" horiz-adv-x="611" 
d="M6 0l245 526h109l245 -526h-131l-49 108h-247l-49 -108h-123zM302 383l-73 -161h145zM166 597v93h279v-93h-279z" />
    <glyph glyph-name="uniF66F" unicode="&#xf66f;" horiz-adv-x="611" 
d="M563 -98l35 -70q-13 -13 -42.5 -22.5t-60.5 -9.5q-57 0 -95.5 23t-38.5 71q0 76 111 110l-47 104h-247l-49 -108h-123l245 526h109l245 -526h-25q-42 -1 -73 -22t-31 -46q0 -21 13.5 -30.5t31.5 -9.5q21 0 42 10zM302 383l-73 -161h145z" />
    <glyph glyph-name="uniF671" unicode="&#xf671;" horiz-adv-x="549" 
d="M476 142l47 -92q-27 -27 -79.5 -44t-109.5 -17q-136 0 -217.5 74.5t-81.5 197.5q0 115 76.5 193t219.5 78q113 0 180 -54l-55 -92q-64 31 -124 31q-75 0 -121 -41t-46 -115q0 -70 49 -113.5t131 -43.5q74 0 131 38zM443 688l-149 -118l-55 64l133 142z" />
    <glyph glyph-name="uniF672" unicode="&#xf672;" horiz-adv-x="549" 
d="M476 142l47 -92q-27 -27 -79.5 -44t-109.5 -17q-136 0 -217.5 74.5t-81.5 197.5q0 115 76.5 193t219.5 78q113 0 180 -54l-55 -92q-64 31 -124 31q-75 0 -121 -41t-46 -115q0 -70 49 -113.5t131 -43.5q74 0 131 38zM311 564l-155 122l54 67l104 -79l104 78l53 -67
l-156 -121h-4z" />
    <glyph glyph-name="uniF673" unicode="&#xf673;" horiz-adv-x="549" 
d="M476 142l47 -92q-27 -27 -79.5 -44t-109.5 -17q-136 0 -217.5 74.5t-81.5 197.5q0 115 76.5 193t219.5 78q113 0 180 -54l-55 -92q-64 31 -124 31q-75 0 -121 -41t-46 -115q0 -70 49 -113.5t131 -43.5q74 0 131 38zM318 749l157 -122l-54 -68l-106 80l-107 -78l-52 67
l158 121h4z" />
    <glyph glyph-name="uniF674" unicode="&#xf674;" horiz-adv-x="549" 
d="M476 142l47 -92q-27 -27 -79.5 -44t-109.5 -17q-136 0 -217.5 74.5t-81.5 197.5q0 115 76.5 193t219.5 78q113 0 180 -54l-55 -92q-64 31 -124 31q-75 0 -121 -41t-46 -115q0 -70 49 -113.5t131 -43.5q74 0 131 38zM240 659q0 31 21 49t51 18q26 0 46 -18.5t20 -48.5
q0 -33 -19.5 -52t-46.5 -19q-31 0 -51.5 19t-20.5 52z" />
    <glyph glyph-name="uniF675" unicode="&#xf675;" horiz-adv-x="622" 
d="M78 0v525h12q15 0 81 1t87 1q168 0 248.5 -70.5t80.5 -190.5t-86.5 -194t-248.5 -74q-14 0 -72.5 1t-88.5 1h-13zM257 412q-38 0 -57 -2v-295q22 -2 56 -2q95 0 148 39t53 114q0 72 -51.5 109t-148.5 37zM279 564l-155 122l54 67l104 -79l104 78l53 -67l-156 -121h-4z
" />
    <glyph glyph-name="uniF676" unicode="&#xf676;" horiz-adv-x="625" 
d="M9 212v107h71v206h12q13 0 83 1t102 1q155 0 234 -73.5t79 -187.5t-83.5 -191t-228.5 -77q-28 0 -92.5 1t-91.5 1h-14v212h-71zM280 412q-51 0 -78 -4v-89h142v-107h-142v-97q44 -2 66 -2q91 0 141.5 40t50.5 113q0 71 -48 108.5t-132 37.5z" />
    <glyph glyph-name="uniF678" unicode="&#xf678;" horiz-adv-x="498" 
d="M78 0v525h359v-115h-237v-88h213v-115h-213v-92h246v-115h-368zM259 564l-155 122l54 67l104 -79l104 78l53 -67l-156 -121h-4z" />
    <glyph glyph-name="uniF679" unicode="&#xf679;" horiz-adv-x="498" 
d="M78 0v525h359v-115h-237v-88h213v-115h-213v-92h246v-115h-368zM187 659q0 31 21 49t51 18q26 0 46 -18.5t20 -48.5q0 -33 -19.5 -52t-46.5 -19q-31 0 -51.5 19t-20.5 52z" />
    <glyph glyph-name="uniF67A" unicode="&#xf67a;" horiz-adv-x="498" 
d="M78 0v525h359v-115h-237v-88h213v-115h-213v-92h246v-115h-368zM116 597v93h279v-93h-279z" />
    <glyph glyph-name="uniF67C" unicode="&#xf67c;" horiz-adv-x="498" 
d="M423 -98l35 -70q-13 -13 -42.5 -22.5t-60.5 -9.5q-57 0 -95.5 23t-38.5 71q0 72 99 106h-242v525h359v-115h-237v-88h213v-115h-213v-92h246v-115h-6q-42 -1 -73 -22t-31 -46q0 -21 13.5 -30.5t31.5 -9.5q21 0 42 10z" />
    <glyph glyph-name="uniF67D" unicode="&#xf67d;" horiz-adv-x="609" 
d="M320 191v108h246v-236q-38 -33 -100.5 -53.5t-119.5 -20.5q-146 0 -228.5 73.5t-82.5 198.5q0 116 81 193.5t215 77.5q111 0 190 -54l-52 -96q-52 35 -124 35q-81 0 -130.5 -39.5t-49.5 -116.5q0 -72 50 -114.5t133 -42.5q62 0 103 26v61h-131zM161 671l51 58
q50 -57 110 -57q68 0 112 55l40 -55q-61 -92 -157 -92q-57 0 -97 29t-59 62z" />
    <glyph glyph-name="uniF67E" unicode="&#xf67e;" horiz-adv-x="609" 
d="M320 191v108h246v-236q-38 -33 -100.5 -53.5t-119.5 -20.5q-146 0 -228.5 73.5t-82.5 198.5q0 116 81 193.5t215 77.5q111 0 190 -54l-52 -96q-52 35 -124 35q-81 0 -130.5 -39.5t-49.5 -116.5q0 -72 50 -114.5t133 -42.5q62 0 103 26v61h-131zM328 749l157 -122l-54 -68
l-106 80l-107 -78l-52 67l158 121h4z" />
    <glyph glyph-name="uniF67F" unicode="&#xf67f;" horiz-adv-x="609" 
d="M320 191v108h246v-236q-38 -33 -100.5 -53.5t-119.5 -20.5q-146 0 -228.5 73.5t-82.5 198.5q0 116 81 193.5t215 77.5q111 0 190 -54l-52 -96q-52 35 -124 35q-81 0 -130.5 -39.5t-49.5 -116.5q0 -72 50 -114.5t133 -42.5q62 0 103 26v61h-131zM266 -58l112 25
q20 -12 20 -49q0 -50 -38 -83t-86 -41l-34 50q43 18 43 60q0 26 -17 38z" />
    <glyph glyph-name="uniF680" unicode="&#xf680;" horiz-adv-x="609" 
d="M320 191v108h246v-236q-38 -33 -100.5 -53.5t-119.5 -20.5q-146 0 -228.5 73.5t-82.5 198.5q0 116 81 193.5t215 77.5q111 0 190 -54l-52 -96q-52 35 -124 35q-81 0 -130.5 -39.5t-49.5 -116.5q0 -72 50 -114.5t133 -42.5q62 0 103 26v61h-131zM255 659q0 31 21 49t51 18
q26 0 46 -18.5t20 -48.5q0 -33 -19.5 -52t-46.5 -19q-31 0 -51.5 19t-20.5 52z" />
    <glyph glyph-name="uniF681" unicode="&#xf681;" horiz-adv-x="649" 
d="M30 373v107h48v45h122v-45h249v45h122v-45h48v-107h-48v-373h-122v210h-249v-210h-122v373h-48zM200 325h249v48h-249v-48z" />
    <glyph glyph-name="uniF682" unicode="&#xf682;" horiz-adv-x="649" 
d="M449 0v210h-249v-210h-122v525h122v-200h249v200h122v-525h-122zM327 749l157 -122l-54 -68l-106 80l-107 -78l-52 67l158 121h4z" />
    <glyph glyph-name="uniF685" unicode="&#xf685;" horiz-adv-x="297" 
d="M87 0v525h123v-525h-123zM9 597v93h279v-93h-279z" />
    <glyph glyph-name="uniF686" unicode="&#xf686;" horiz-adv-x="297" 
d="M180 -98l35 -70q-13 -13 -42.5 -22.5t-60.5 -9.5q-57 0 -95.5 23t-38.5 71q0 39 30 67t79 42v522h123v-525h-13q-42 -1 -73 -22t-31 -46q0 -21 13.5 -30.5t31.5 -9.5q21 0 42 10z" />
    <glyph glyph-name="uniF688" unicode="&#xf688;" horiz-adv-x="336" 
d="M258 525v-396q0 -67 -38 -102.5t-111 -35.5q-35 0 -65.5 11.5t-41.5 25.5l40 94q23 -16 49 -16q45 0 45 44v375h122zM193 749l157 -122l-54 -68l-106 80l-107 -78l-52 67l158 121h4z" />
    <glyph glyph-name="uniF689" unicode="&#xf689;" horiz-adv-x="586" 
d="M78 0v525h122v-238l203 238h159l-224 -242l240 -283h-166l-212 260v-260h-122zM211 -58l112 25q20 -12 20 -49q0 -50 -38 -83t-86 -41l-34 50q43 18 43 60q0 26 -17 38z" />
    <glyph glyph-name="uniF68A" unicode="&#xf68a;" horiz-adv-x="467" 
d="M78 0v525h122v-403h248v-122h-370zM353 688l-149 -118l-55 64l133 142z" />
    <glyph glyph-name="uniF68B" unicode="&#xf68b;" horiz-adv-x="467" 
d="M78 0v525h122v-403h248v-122h-370zM298 525h112q6 -12 6 -35q0 -119 -99 -174l-53 50q45 43 45 110q0 25 -11 49z" />
    <glyph glyph-name="uniF68C" unicode="&#xf68c;" horiz-adv-x="467" 
d="M78 0v525h122v-403h248v-122h-370zM206 -58l112 25q20 -12 20 -49q0 -50 -38 -83t-86 -41l-34 50q43 18 43 60q0 26 -17 38z" />
    <glyph glyph-name="uniF68D" unicode="&#xf68d;" horiz-adv-x="467" 
d="M78 0v525h122v-403h248v-122h-370zM297 307q0 28 22 51t58 23q31 0 52 -23t21 -51q0 -32 -21 -56t-52 -24q-36 0 -58 24t-22 56z" />
    <glyph glyph-name="uniF68E" unicode="&#xf68e;" horiz-adv-x="663" 
d="M585 0h-98l-294 326v-326h-115v525h98l294 -327v327h115v-525zM470 688l-149 -118l-55 64l133 142z" />
    <glyph glyph-name="uniF68F" unicode="&#xf68f;" horiz-adv-x="663" 
d="M585 0h-98l-294 326v-326h-115v525h98l294 -327v327h115v-525zM329 564l-155 122l54 67l104 -79l104 78l53 -67l-156 -121h-4z" />
    <glyph glyph-name="uniF690" unicode="&#xf690;" horiz-adv-x="663" 
d="M585 0h-98l-294 326v-326h-115v525h98l294 -327v327h115v-525zM264 -58l112 25q20 -12 20 -49q0 -50 -38 -83t-86 -41l-34 50q43 18 43 60q0 26 -17 38z" />
    <glyph glyph-name="uniF692" unicode="&#xf692;" horiz-adv-x="659" 
d="M35 261q0 116 82 193.5t212 77.5t212.5 -74t82.5 -197q0 -119 -83.5 -195.5t-211.5 -76.5q-129 0 -211.5 74t-82.5 198zM165 261q0 -67 47.5 -112t116.5 -45q78 0 121.5 44t43.5 113q0 70 -47 113t-118 43q-72 0 -118 -43t-46 -113zM551 704l-158 -131l-51 42l124 153z
M370 717l-124 -144l-59 40l101 166z" />
    <glyph glyph-name="uniF693" unicode="&#xf693;" horiz-adv-x="659" 
d="M35 261q0 116 82 193.5t212 77.5t212.5 -74t82.5 -197q0 -119 -83.5 -195.5t-211.5 -76.5q-129 0 -211.5 74t-82.5 198zM165 261q0 -67 47.5 -112t116.5 -45q78 0 121.5 44t43.5 113q0 70 -47 113t-118 43q-72 0 -118 -43t-46 -113zM190 597v93h279v-93h-279z" />
    <glyph glyph-name="uniF695" unicode="&#xf695;" horiz-adv-x="556" 
d="M200 0h-122v525q13 0 79.5 1t98.5 1q229 0 229 -177q0 -116 -94 -153l150 -197h-156l-119 167h-66v-167zM263 412q-35 0 -63 -2v-128h64q40 0 65.5 17.5t25.5 49.5q0 25 -21.5 44t-70.5 19zM398 688l-149 -118l-55 64l133 142z" />
    <glyph glyph-name="uniF696" unicode="&#xf696;" horiz-adv-x="556" 
d="M200 0h-122v525q13 0 79.5 1t98.5 1q229 0 229 -177q0 -116 -94 -153l150 -197h-156l-119 167h-66v-167zM263 412q-35 0 -63 -2v-128h64q40 0 65.5 17.5t25.5 49.5q0 25 -21.5 44t-70.5 19zM256 564l-155 122l54 67l104 -79l104 78l53 -67l-156 -121h-4z" />
    <glyph glyph-name="uniF697" unicode="&#xf697;" horiz-adv-x="556" 
d="M200 0h-122v525q13 0 79.5 1t98.5 1q229 0 229 -177q0 -116 -94 -153l150 -197h-156l-119 167h-66v-167zM263 412q-35 0 -63 -2v-128h64q40 0 65.5 17.5t25.5 49.5q0 25 -21.5 44t-70.5 19zM206 -58l112 25q20 -12 20 -49q0 -50 -38 -83t-86 -41l-34 50q43 18 43 60
q0 26 -17 38z" />
    <glyph glyph-name="uniF698" unicode="&#xf698;" horiz-adv-x="500" 
d="M335 151q0 20 -29.5 35t-71.5 27.5t-84.5 30t-72 52t-29.5 84.5q0 67 52 109.5t163 42.5q49 0 109 -21.5t88 -51.5l-56 -91q-28 21 -71.5 35t-74.5 14q-80 0 -80 -43q0 -19 29.5 -32t72 -25t84.5 -29.5t71.5 -53.5t29.5 -89q0 -70 -59 -113t-153 -43q-66 0 -131 25
t-95 66l70 83q25 -24 74 -41.5t91 -17.5q32 0 52.5 12.5t20.5 34.5zM395 688l-149 -118l-55 64l133 142z" />
    <glyph glyph-name="uniF699" unicode="&#xf699;" horiz-adv-x="500" 
d="M122 -166l34 54q33 -26 70 -26q39 0 39 25q0 28 -41 28h-6v76q-60 6 -113 30t-78 59l70 83q25 -24 74 -41.5t91 -17.5q32 0 52.5 12.5t20.5 34.5q0 20 -29.5 35t-71.5 27.5t-84.5 30t-72 52t-29.5 84.5q0 67 52 109.5t163 42.5q49 0 109 -21.5t88 -51.5l-56 -91
q-28 21 -71.5 35t-74.5 14q-80 0 -80 -43q0 -19 29.5 -32t72 -25t84.5 -29.5t71.5 -53.5t29.5 -89q0 -65 -52 -107t-137 -48v-25q104 -6 104 -85q0 -40 -36 -64t-102 -24q-63 0 -120 42z" />
    <glyph glyph-name="uniF69A" unicode="&#xf69a;" horiz-adv-x="500" 
d="M335 151q0 20 -29.5 35t-71.5 27.5t-84.5 30t-72 52t-29.5 84.5q0 67 52 109.5t163 42.5q49 0 109 -21.5t88 -51.5l-56 -91q-28 21 -71.5 35t-74.5 14q-80 0 -80 -43q0 -19 29.5 -32t72 -25t84.5 -29.5t71.5 -53.5t29.5 -89q0 -70 -59 -113t-153 -43q-66 0 -131 25
t-95 66l70 83q25 -24 74 -41.5t91 -17.5q32 0 52.5 12.5t20.5 34.5zM253 749l157 -122l-54 -68l-106 80l-107 -78l-52 67l158 121h4z" />
    <glyph glyph-name="uniF69B" unicode="&#xf69b;" horiz-adv-x="500" 
d="M335 151q0 20 -29.5 35t-71.5 27.5t-84.5 30t-72 52t-29.5 84.5q0 67 52 109.5t163 42.5q49 0 109 -21.5t88 -51.5l-56 -91q-28 21 -71.5 35t-74.5 14q-80 0 -80 -43q0 -19 29.5 -32t72 -25t84.5 -29.5t71.5 -53.5t29.5 -89q0 -70 -59 -113t-153 -43q-66 0 -131 25
t-95 66l70 83q25 -24 74 -41.5t91 -17.5q32 0 52.5 12.5t20.5 34.5zM194 -58l112 25q20 -12 20 -49q0 -50 -38 -83t-86 -41l-34 50q43 18 43 60q0 26 -17 38z" />
    <glyph glyph-name="uniF69D" unicode="&#xf69d;" horiz-adv-x="503" 
d="M9 410v115h485v-115h-182v-410h-122v410h-181zM249 564l-155 122l54 67l104 -79l104 78l53 -67l-156 -121h-4z" />
    <glyph glyph-name="uniF69E" unicode="&#xf69e;" horiz-adv-x="503" 
d="M9 410v115h485v-115h-182v-410h-122v410h-181zM189 -58l112 25q20 -12 20 -49q0 -50 -38 -83t-86 -41l-34 50q43 18 43 60q0 26 -17 38z" />
    <glyph glyph-name="uniF69F" unicode="&#xf69f;" horiz-adv-x="629" 
d="M560 525v-309q0 -113 -68 -169.5t-170 -56.5q-115 0 -184 59.5t-69 171.5v304h123v-277q0 -65 31 -104t99 -39q115 0 115 136v284h123zM158 671l51 58q50 -57 110 -57q68 0 112 55l40 -55q-61 -92 -157 -92q-57 0 -97 29t-59 62z" />
    <glyph glyph-name="uniF6A0" unicode="&#xf6a0;" horiz-adv-x="629" 
d="M560 525v-309q0 -113 -68 -169.5t-170 -56.5q-115 0 -184 59.5t-69 171.5v304h123v-277q0 -65 31 -104t99 -39q115 0 115 136v284h123zM539 704l-158 -131l-51 42l124 153zM358 717l-124 -144l-59 40l101 166z" />
    <glyph glyph-name="uniF6A1" unicode="&#xf6a1;" horiz-adv-x="629" 
d="M560 525v-309q0 -113 -68 -169.5t-170 -56.5q-115 0 -184 59.5t-69 171.5v304h123v-277q0 -65 31 -104t99 -39q115 0 115 136v284h123zM175 597v93h279v-93h-279z" />
    <glyph glyph-name="uniF6A2" unicode="&#xf6a2;" horiz-adv-x="629" 
d="M560 525v-309q0 -159 -135 -209q-63 -39 -63 -75q0 -20 14 -30t32 -10q21 0 42 10l34 -70q-13 -13 -42 -22.5t-61 -9.5q-57 0 -95.5 23t-38.5 71q0 34 22.5 55.5t65.5 40.5h-13q-115 0 -184 59.5t-69 171.5v304h123v-277q0 -65 31 -104t99 -39q115 0 115 136v284h123z
" />
    <glyph glyph-name="uniF6A3" unicode="&#xf6a3;" horiz-adv-x="629" 
d="M560 525v-309q0 -113 -68 -169.5t-170 -56.5q-115 0 -184 59.5t-69 171.5v304h123v-277q0 -65 31 -104t99 -39q115 0 115 136v284h123zM187 653q0 50 36 85t90 35q55 0 91.5 -35t36.5 -85t-36.5 -84.5t-91.5 -34.5q-54 0 -90 34.5t-36 84.5zM261 654q0 -24 15 -40.5
t39 -16.5q23 0 37.5 16.5t14.5 40.5t-14.5 40t-37.5 16q-24 0 -39 -16t-15 -40z" />
    <glyph glyph-name="uniF6AB" unicode="&#xf6ab;" horiz-adv-x="542" 
d="M50 410v115h450v-86l-288 -324h296v-115h-475v85l288 325h-271zM408 688l-149 -118l-55 64l133 142z" />
    <glyph glyph-name="uniF6AC" unicode="&#xf6ac;" horiz-adv-x="542" 
d="M50 410v115h450v-86l-288 -324h296v-115h-475v85l288 325h-271zM201 659q0 31 21 49t51 18q26 0 46 -18.5t20 -48.5q0 -33 -19.5 -52t-46.5 -19q-31 0 -51.5 19t-20.5 52z" />
    <glyph glyph-name="uniF6AD" unicode="&#xf6ad;" horiz-adv-x="297" 
d="M87 0v525h123v-525h-123zM79 659q0 31 21 49t51 18q26 0 46 -18.5t20 -48.5q0 -33 -19.5 -52t-46.5 -19q-31 0 -51.5 19t-20.5 52z" />
    <glyph glyph-name="uniF6BA" unicode="&#xf6ba;" horiz-adv-x="376" 
d="M62 300v107h252v-107h-252z" />
    <glyph glyph-name="uniF6BB" unicode="&#xf6bb;" horiz-adv-x="599" 
d="M85 304v100h429v-100h-429z" />
    <glyph glyph-name="uniF6BC" unicode="&#xf6bc;" horiz-adv-x="814" 
d="M85 304v100h644v-100h-644z" />
    <glyph glyph-name="uniF6C3" unicode="&#xf6c3;" horiz-adv-x="278" 
d="M86 -58l112 25q20 -12 20 -49q0 -50 -38 -83t-86 -41l-34 50q43 18 43 60q0 26 -17 38z" />
    <glyph glyph-name="uniF6C9" unicode="&#xf6c9;" horiz-adv-x="377" 
d="M317 812l-225 -81l-32 69l214 111z" />
    <glyph glyph-name="uniF6CA" unicode="&#xf6ca;" horiz-adv-x="477" 
d="M239 735l-179 111l45 65l136 -79l135 79l41 -64l-174 -112h-4z" />
    <glyph glyph-name="uniF6CB" unicode="&#xf6cb;" horiz-adv-x="500" 
d="M60 825q0 28 22 45t55 17q29 0 50 -17t21 -45q0 -31 -21 -48.5t-50 -17.5q-33 0 -55 17.5t-22 48.5zM292 825q0 28 22 45t55 17q29 0 50 -17t21 -45q0 -31 -21 -48.5t-50 -17.5q-33 0 -55 17.5t-22 48.5z" />
    <glyph glyph-name="uniF6CE" unicode="&#xf6ce;" horiz-adv-x="377" 
d="M285 731l-225 81l43 99l214 -111z" />
    <glyph glyph-name="uniF6CF" unicode="&#xf6cf;" horiz-adv-x="540" 
d="M480 839l-191 -108l-47 49l158 131zM273 860l-164 -129l-49 46l114 134z" />
    <glyph glyph-name="uniF6D0" unicode="&#xf6d0;" horiz-adv-x="429" 
d="M60 760v92h309v-92h-309z" />
    <glyph glyph-name="uniF6D1" unicode="&#xf6d1;" horiz-adv-x="515" 
d="M60 870h115q12 -58 85 -58q75 0 80 58h115q-2 -64 -57 -103.5t-138 -39.5q-89 0 -142 39t-58 104z" />
    <glyph glyph-name="uniF6D4" unicode="&#xf6d4;" horiz-adv-x="430" 
d="M60 675h105q0 -31 12.5 -52t39.5 -21q24 0 36 21t12 52h105q0 -68 -40 -111.5t-113 -43.5q-80 0 -118.5 42.5t-38.5 112.5z" />
    <glyph glyph-name="uniF6DC" unicode="&#xf6dc;" 
d="M117 568l179 134h82v-702h-115v538l-86 -65z" />
    <glyph glyph-name="uniF6DE" unicode="&#xf6de;" horiz-adv-x="610" 
d="M64 220v100h483v-100h-483z" />
    <glyph glyph-name="uniF6F4" unicode="&#xf6f4;" horiz-adv-x="433" 
d="M60 671l51 58q50 -57 110 -57q68 0 112 55l40 -55q-61 -92 -157 -92q-57 0 -97 29t-59 62z" />
    <glyph glyph-name="uniF6F5" unicode="&#xf6f5;" horiz-adv-x="435" 
d="M215 564l-155 122l54 67l104 -79l104 78l53 -67l-156 -121h-4z" />
    <glyph glyph-name="uniF6F6" unicode="&#xf6f6;" horiz-adv-x="439" 
d="M222 749l157 -122l-54 -68l-106 80l-107 -78l-52 67l158 121h4z" />
    <glyph glyph-name="uniF6F7" unicode="&#xf6f7;" horiz-adv-x="258" 
d="M60 659q0 31 21 49t51 18q26 0 46 -18.5t20 -48.5q0 -33 -19.5 -52t-46.5 -19q-31 0 -51.5 19t-20.5 52z" />
    <glyph glyph-name="uniF6F8" unicode="&#xf6f8;" horiz-adv-x="484" 
d="M424 704l-158 -131l-51 42l124 153zM243 717l-124 -144l-59 40l101 166z" />
    <glyph glyph-name="uniF6F9" unicode="&#xf6f9;" horiz-adv-x="467" 
d="M20 141v119l58 26v239h122v-183l101 47v-118l-101 -47v-102h248v-122h-370v168z" />
    <glyph glyph-name="uniF6FA" unicode="&#xf6fa;" horiz-adv-x="868" 
d="M448 0v18q-60 -29 -128 -29q-127 0 -206 75t-79 197q0 118 75 194.5t212 76.5q67 0 126 -27v20h360v-115h-237v-88h212v-115h-212v-92h245v-115h-368zM330 104q64 0 118 37v241q-51 35 -116 35q-75 0 -121 -41t-46 -115q0 -69 46.5 -113t118.5 -44z" />
    <glyph glyph-name="uniF6FB" unicode="&#xf6fb;" horiz-adv-x="357" 
d="M262 -98l35 -70q-13 -13 -42.5 -22.5t-60.5 -9.5q-57 0 -95.5 23t-38.5 71q0 60 68.5 93t155.5 33v-20q-44 0 -76.5 -21t-32.5 -47q0 -21 13.5 -30.5t31.5 -9.5q21 0 42 10z" />
    <glyph glyph-name="uniF6FC" unicode="&#xf6fc;" horiz-adv-x="374" 
d="M60 653q0 50 36 85t90 35q55 0 91.5 -35t36.5 -85t-36.5 -84.5t-91.5 -34.5q-54 0 -90 34.5t-36 84.5zM134 654q0 -24 15 -40.5t39 -16.5q23 0 37.5 16.5t14.5 40.5t-14.5 40t-37.5 16q-24 0 -39 -16t-15 -40z" />
    <glyph glyph-name="uniF6FD" unicode="&#xf6fd;" horiz-adv-x="500" 
d="M335 151q0 20 -29.5 35t-71.5 27.5t-84.5 30t-72 52t-29.5 84.5q0 67 52 109.5t163 42.5q49 0 109 -21.5t88 -51.5l-56 -91q-28 21 -71.5 35t-74.5 14q-80 0 -80 -43q0 -19 29.5 -32t72 -25t84.5 -29.5t71.5 -53.5t29.5 -89q0 -70 -59 -113t-153 -43q-66 0 -131 25
t-95 66l70 83q25 -24 74 -41.5t91 -17.5q32 0 52.5 12.5t20.5 34.5zM246 564l-155 122l54 67l104 -79l104 78l53 -67l-156 -121h-4z" />
    <glyph glyph-name="uniF6FE" unicode="&#xf6fe;" horiz-adv-x="464" 
d="M107 586l-47 52q54 68 121 68q24 0 59.5 -20.5t55.5 -20.5q14 0 26 4.5t19 9t24 17.5l39 -58q-60 -66 -117 -66q-22 0 -58 21t-59 21q-20 0 -63 -28z" />
    <glyph glyph-name="uniF6FF" unicode="&#xf6ff;" horiz-adv-x="542" 
d="M50 410v115h450v-86l-288 -324h296v-115h-475v85l288 325h-271zM266 564l-155 122l54 67l104 -79l104 78l53 -67l-156 -121h-4z" />
    <glyph glyph-name="uniF730" unicode="&#xf730;" horiz-adv-x="620" 
d="M45 250q0 107 72 184t193 77t193 -77t72 -184t-72 -184t-193 -77t-193 77t-72 184zM167 250q0 -62 39 -104t104 -42q67 0 104.5 41.5t37.5 104.5q0 65 -38.5 105.5t-103.5 40.5t-104 -41t-39 -105z" />
    <glyph glyph-name="uniF731" unicode="&#xf731;" horiz-adv-x="377" 
d="M30 415l170 93h80v-508h-123v362l-89 -51z" />
    <glyph glyph-name="uniF732" unicode="&#xf732;" horiz-adv-x="517" 
d="M37 0v85q291 120 291 227q0 38 -22 61.5t-62 23.5q-83 0 -118 -84l-74 74q21 55 76 90t120 35q97 0 146 -48.5t49 -124.5q0 -77 -53.5 -137.5t-110.5 -86.5h198v-115h-440z" />
    <glyph glyph-name="uniF733" unicode="&#xf733;" horiz-adv-x="530" 
d="M244 -211q-78 0 -136 31.5t-86 86.5l65 84q59 -87 150 -87q54 0 83.5 27.5t29.5 69.5q0 48 -34.5 73.5t-95.5 25.5h-50v115h45q45 0 76.5 26.5t31.5 69.5q0 39 -22.5 62t-66.5 23q-81 0 -132 -75l-64 81q58 109 207 109q91 0 146 -48t55 -130q0 -119 -107 -166v-3
q64 -11 99 -57t35 -110q0 -95 -65 -151.5t-164 -56.5z" />
    <glyph glyph-name="uniF734" unicode="&#xf734;" horiz-adv-x="565" 
d="M335 -200v200h-320v84l250 416h132l-233 -385h171v172h115v-172h90v-115h-90v-200h-115z" />
    <glyph glyph-name="uniF735" unicode="&#xf735;" horiz-adv-x="514" 
d="M81 128l46 372h331v-115h-230l-20 -139q22 4 40 4q95 0 157.5 -61t62.5 -162q0 -110 -69 -174t-172 -64q-59 0 -116.5 26.5t-88.5 73.5l66 87q22 -32 62 -52t80 -20q50 0 82.5 33t32.5 85q0 54 -40 89t-109 35q-73 0 -115 -18z" />
    <glyph glyph-name="uniF736" unicode="&#xf736;" horiz-adv-x="559" 
d="M45 248q0 92 32 174.5t83 140t110.5 95.5t118.5 53l47 -87q-90 -27 -159.5 -93t-95.5 -163q47 65 144 65q82 0 139 -60t57 -154q0 -105 -68 -167.5t-158 -62.5q-114 0 -182 75t-68 184zM167 247q0 -62 34 -102.5t95 -40.5q46 0 74.5 31.5t28.5 75.5q0 50 -29.5 82.5
t-83.5 32.5q-43 0 -73 -23t-46 -56z" />
    <glyph glyph-name="uniF737" unicode="&#xf737;" horiz-adv-x="497" 
d="M25 385v115h440v-77l-248 -623h-126l236 585h-302z" />
    <glyph glyph-name="uniF738" unicode="&#xf738;" horiz-adv-x="600" 
d="M291 417h19q39 0 64.5 27t25.5 63q0 42 -28 65.5t-74 23.5q-45 0 -72 -25t-27 -64q0 -36 26 -63t66 -27zM310 302h-17q-46 0 -79.5 -27t-33.5 -72q0 -43 32 -71t87 -28q60 0 91 27.5t30 71.5q-1 47 -31.5 73t-78.5 26zM300 -11q-105 0 -174 52.5t-69 139.5q0 65 33.5 112
t86.5 65v3q-43 18 -71.5 62.5t-28.5 103.5q0 81 64 132.5t158 51.5q95 0 159.5 -51.5t64.5 -132.5q0 -52 -29 -98t-79 -67v-3q54 -11 90.5 -56.5t36.5 -111.5q0 -94 -68.5 -148t-173.5 -54z" />
    <glyph glyph-name="uniF739" unicode="&#xf739;" horiz-adv-x="555" 
d="M510 244q0 -195 -101.5 -315.5t-257.5 -139.5l-38 91q218 44 261 244q-46 -63 -133 -63q-89 0 -150 62t-61 155q0 105 71 169t161 64q115 0 181.5 -74t66.5 -193zM388 245q0 64 -33 107.5t-93 43.5q-47 0 -78.5 -33t-31.5 -77q0 -48 32 -82.5t85 -34.5q83 0 119 76z" />
    <glyph glyph-name="uniF760" unicode="&#xf760;" horiz-adv-x="324" 
d="M208 570l-148 118l70 88l134 -142z" />
    <glyph glyph-name="uniF761" unicode="&#xf761;" horiz-adv-x="611" 
d="M6 0l245 526h109l245 -526h-131l-49 108h-247l-49 -108h-123zM302 383l-73 -161h145z" />
    <glyph glyph-name="uniF762" unicode="&#xf762;" horiz-adv-x="540" 
d="M78 1v522q80 5 197 5q99 0 147 -36t48 -94q0 -42 -21 -74t-60 -48v-1q99 -18 99 -116q0 -80 -61 -121.5t-160 -41.5q-132 0 -189 5zM282 210h-82v-94q27 -5 77 -5q88 0 88 51q0 48 -83 48zM273 413q-47 0 -73 -3v-92h76q32 0 52 12t20 36q0 47 -75 47z" />
    <glyph glyph-name="uniF763" unicode="&#xf763;" horiz-adv-x="549" 
d="M476 142l47 -92q-27 -27 -79.5 -44t-109.5 -17q-136 0 -217.5 74.5t-81.5 197.5q0 115 76.5 193t219.5 78q113 0 180 -54l-55 -92q-64 31 -124 31q-75 0 -121 -41t-46 -115q0 -70 49 -113.5t131 -43.5q74 0 131 38z" />
    <glyph glyph-name="uniF764" unicode="&#xf764;" horiz-adv-x="622" 
d="M78 0v525h12q15 0 81 1t87 1q168 0 248.5 -70.5t80.5 -190.5t-86.5 -194t-248.5 -74q-14 0 -72.5 1t-88.5 1h-13zM257 412q-38 0 -57 -2v-295q22 -2 56 -2q95 0 148 39t53 114q0 72 -51.5 109t-148.5 37z" />
    <glyph glyph-name="uniF765" unicode="&#xf765;" horiz-adv-x="498" 
d="M78 0v525h359v-115h-237v-88h213v-115h-213v-92h246v-115h-368z" />
    <glyph glyph-name="uniF766" unicode="&#xf766;" horiz-adv-x="464" 
d="M78 0v525h352v-115h-230v-107h205v-115h-205v-188h-122z" />
    <glyph glyph-name="uniF767" unicode="&#xf767;" horiz-adv-x="609" 
d="M320 191v108h246v-236q-38 -33 -100.5 -53.5t-119.5 -20.5q-146 0 -228.5 73.5t-82.5 198.5q0 116 81 193.5t215 77.5q111 0 190 -54l-52 -96q-52 35 -124 35q-81 0 -130.5 -39.5t-49.5 -116.5q0 -72 50 -114.5t133 -42.5q62 0 103 26v61h-131z" />
    <glyph glyph-name="uniF768" unicode="&#xf768;" horiz-adv-x="649" 
d="M449 0v210h-249v-210h-122v525h122v-200h249v200h122v-525h-122z" />
    <glyph glyph-name="uniF769" unicode="&#xf769;" horiz-adv-x="297" 
d="M87 0v525h123v-525h-123z" />
    <glyph glyph-name="uniF76A" unicode="&#xf76a;" horiz-adv-x="336" 
d="M258 525v-396q0 -67 -38 -102.5t-111 -35.5q-35 0 -65.5 11.5t-41.5 25.5l40 94q23 -16 49 -16q45 0 45 44v375h122z" />
    <glyph glyph-name="uniF76B" unicode="&#xf76b;" horiz-adv-x="586" 
d="M78 0v525h122v-238l203 238h159l-224 -242l240 -283h-166l-212 260v-260h-122z" />
    <glyph glyph-name="uniF76C" unicode="&#xf76c;" horiz-adv-x="467" 
d="M78 0v525h122v-403h248v-122h-370z" />
    <glyph glyph-name="uniF76D" unicode="&#xf76d;" horiz-adv-x="761" 
d="M78 0v525h123l188 -219l178 219h116v-525h-122v338l-172 -202h-17l-172 199v-335h-122z" />
    <glyph glyph-name="uniF76E" unicode="&#xf76e;" horiz-adv-x="663" 
d="M585 0h-98l-294 326v-326h-115v525h98l294 -327v327h115v-525z" />
    <glyph glyph-name="uniF76F" unicode="&#xf76f;" horiz-adv-x="659" 
d="M35 261q0 116 82 193.5t212 77.5t212.5 -74t82.5 -197q0 -119 -83.5 -195.5t-211.5 -76.5q-129 0 -211.5 74t-82.5 198zM165 261q0 -67 47.5 -112t116.5 -45q78 0 121.5 44t43.5 113q0 70 -47 113t-118 43q-72 0 -118 -43t-46 -113z" />
    <glyph glyph-name="uniF770" unicode="&#xf770;" horiz-adv-x="521" 
d="M200 0h-122v525q15 0 83 1t91 1q124 0 179 -51t55 -135q0 -83 -58 -136t-158 -53q-36 0 -70 3v-155zM265 412q-25 0 -65 -2v-139q42 -4 66 -4q41 0 65.5 19t24.5 55q0 71 -91 71z" />
    <glyph glyph-name="uniF771" unicode="&#xf771;" horiz-adv-x="659" 
d="M35 261q0 116 82 193.5t212 77.5t212.5 -74t82.5 -197q0 -102 -63 -174l79 -87h-143l-21 22q-64 -33 -147 -33q-129 0 -211.5 74t-82.5 198zM165 261q0 -67 47.5 -112t116.5 -45q35 0 63 9l-42 46l80 72l45 -50q19 34 19 80q0 70 -47 113t-118 43q-72 0 -118 -43
t-46 -113z" />
    <glyph glyph-name="uniF772" unicode="&#xf772;" horiz-adv-x="556" 
d="M200 0h-122v525q13 0 79.5 1t98.5 1q229 0 229 -177q0 -116 -94 -153l150 -197h-156l-119 167h-66v-167zM263 412q-35 0 -63 -2v-128h64q40 0 65.5 17.5t25.5 49.5q0 25 -21.5 44t-70.5 19z" />
    <glyph glyph-name="uniF773" unicode="&#xf773;" horiz-adv-x="500" 
d="M335 151q0 20 -29.5 35t-71.5 27.5t-84.5 30t-72 52t-29.5 84.5q0 67 52 109.5t163 42.5q49 0 109 -21.5t88 -51.5l-56 -91q-28 21 -71.5 35t-74.5 14q-80 0 -80 -43q0 -19 29.5 -32t72 -25t84.5 -29.5t71.5 -53.5t29.5 -89q0 -70 -59 -113t-153 -43q-66 0 -131 25
t-95 66l70 83q25 -24 74 -41.5t91 -17.5q32 0 52.5 12.5t20.5 34.5z" />
    <glyph glyph-name="uniF774" unicode="&#xf774;" horiz-adv-x="503" 
d="M9 410v115h485v-115h-182v-410h-122v410h-181z" />
    <glyph glyph-name="uniF775" unicode="&#xf775;" horiz-adv-x="629" 
d="M560 525v-309q0 -113 -68 -169.5t-170 -56.5q-115 0 -184 59.5t-69 171.5v304h123v-277q0 -65 31 -104t99 -39q115 0 115 136v284h123z" />
    <glyph glyph-name="uniF776" unicode="&#xf776;" horiz-adv-x="550" 
d="M556 525l-231 -525h-94l-237 525h139l149 -358l143 358h131z" />
    <glyph glyph-name="uniF777" unicode="&#xf777;" horiz-adv-x="833" 
d="M831 525l-165 -525h-117l-128 334l-125 -334h-121l-173 525h138l106 -342l117 342h123l121 -343l102 343h122z" />
    <glyph glyph-name="uniF778" unicode="&#xf778;" horiz-adv-x="563" 
d="M552 525l-191 -257l199 -268h-152l-128 174l-125 -174h-152l199 268l-190 257h152l120 -167l117 167h151z" />
    <glyph glyph-name="uniF779" unicode="&#xf779;" horiz-adv-x="540" 
d="M538 525l-208 -312v-213h-122v213l-206 312h148l124 -197l125 197h139z" />
    <glyph glyph-name="uniF77A" unicode="&#xf77a;" horiz-adv-x="542" 
d="M50 410v115h450v-86l-288 -324h296v-115h-475v85l288 325h-271z" />
    <glyph glyph-name="uniF7A8" unicode="&#xf7a8;" horiz-adv-x="423" 
d="M60 645q0 27 18.5 43.5t46.5 16.5q22 0 40 -17t18 -43q0 -28 -17.5 -45t-40.5 -17q-28 0 -46.5 16.5t-18.5 45.5zM239 645q0 27 19 43.5t45 16.5q24 0 42 -16.5t18 -43.5q0 -29 -18 -45.5t-42 -16.5q-27 0 -45.5 16.5t-18.5 45.5z" />
    <glyph glyph-name="uniF7AF" unicode="&#xf7af;" horiz-adv-x="399" 
d="M60 597v93h279v-93h-279z" />
    <glyph glyph-name="uniF7B4" unicode="&#xf7b4;" horiz-adv-x="324" 
d="M264 688l-149 -118l-55 64l133 142z" />
    <glyph glyph-name="uniF7B8" unicode="&#xf7b8;" horiz-adv-x="378" 
d="M60 -166l34 54q33 -26 70 -26q39 0 39 25q0 28 -41 28h-6v85h58v-35q104 -6 104 -85q0 -40 -36 -64t-102 -24q-63 0 -120 42z" />
    <glyph glyph-name="uniF7E0" unicode="&#xf7e0;" horiz-adv-x="611" 
d="M6 0l245 526h109l245 -526h-131l-49 108h-247l-49 -108h-123zM302 383l-73 -161h145zM331 570l-148 118l70 88l134 -142z" />
    <glyph glyph-name="uniF7E1" unicode="&#xf7e1;" horiz-adv-x="611" 
d="M6 0l245 526h109l245 -526h-131l-49 108h-247l-49 -108h-123zM302 383l-73 -161h145zM432 688l-149 -118l-55 64l133 142z" />
    <glyph glyph-name="uniF7E2" unicode="&#xf7e2;" horiz-adv-x="611" 
d="M6 0l245 526h109l245 -526h-131l-49 108h-247l-49 -108h-123zM302 383l-73 -161h145zM308 749l157 -122l-54 -68l-106 80l-107 -78l-52 67l158 121h4z" />
    <glyph glyph-name="uniF7E3" unicode="&#xf7e3;" horiz-adv-x="611" 
d="M6 0l245 526h109l245 -526h-131l-49 108h-247l-49 -108h-123zM302 383l-73 -161h145zM181 586l-47 52q54 68 121 68q24 0 59.5 -20.5t55.5 -20.5q14 0 26 4.5t19 9t24 17.5l39 -58q-60 -66 -117 -66q-22 0 -58 21t-59 21q-20 0 -63 -28z" />
    <glyph glyph-name="uniF7E4" unicode="&#xf7e4;" horiz-adv-x="611" 
d="M6 0l245 526h109l245 -526h-131l-49 108h-247l-49 -108h-123zM302 383l-73 -161h145zM154 645q0 27 18.5 43.5t46.5 16.5q22 0 40 -17t18 -43q0 -28 -17.5 -45t-40.5 -17q-28 0 -46.5 16.5t-18.5 45.5zM333 645q0 27 19 43.5t45 16.5q24 0 42 -16.5t18 -43.5
q0 -29 -18 -45.5t-42 -16.5q-27 0 -45.5 16.5t-18.5 45.5z" />
    <glyph glyph-name="uniF7E5" unicode="&#xf7e5;" horiz-adv-x="611" 
d="M6 0l245 526h109l245 -526h-131l-49 108h-247l-49 -108h-123zM302 383l-73 -161h145zM178 662q0 50 36 85t90 35q55 0 91.5 -35t36.5 -85t-36.5 -84.5t-91.5 -34.5q-54 0 -90 34.5t-36 84.5zM252 663q0 -24 15 -40.5t39 -16.5q23 0 37.5 16.5t14.5 40.5t-14.5 40
t-37.5 16q-24 0 -39 -16t-15 -40z" />
    <glyph glyph-name="uniF7E6" unicode="&#xf7e6;" horiz-adv-x="795" 
d="M390 0v107h-194l-84 -107h-142l171 212l251 313h342v-115h-222v-88h197v-115h-197v-92h231v-115h-353zM390 353l-102 -131h102v131z" />
    <glyph glyph-name="uniF7E7" unicode="&#xf7e7;" horiz-adv-x="549" 
d="M185 -166l34 54q33 -26 70 -26q39 0 39 25q0 28 -41 28h-6v77q-114 14 -180 86t-66 183q0 115 76.5 193t219.5 78q113 0 180 -54l-55 -92q-64 31 -124 31q-75 0 -121 -41t-46 -115q0 -70 49 -113.5t131 -43.5q74 0 131 38l47 -92q-27 -26 -78 -43t-106 -18v-24
q104 -6 104 -85q0 -40 -36 -64t-102 -24q-63 0 -120 42z" />
    <glyph glyph-name="uniF7E8" unicode="&#xf7e8;" horiz-adv-x="498" 
d="M78 0v525h359v-115h-237v-88h213v-115h-213v-92h246v-115h-368zM289 570l-148 118l70 88l134 -142z" />
    <glyph glyph-name="uniF7E9" unicode="&#xf7e9;" horiz-adv-x="498" 
d="M78 0v525h359v-115h-237v-88h213v-115h-213v-92h246v-115h-368zM378 688l-149 -118l-55 64l133 142z" />
    <glyph glyph-name="uniF7EA" unicode="&#xf7ea;" horiz-adv-x="498" 
d="M78 0v525h359v-115h-237v-88h213v-115h-213v-92h246v-115h-368zM260 749l157 -122l-54 -68l-106 80l-107 -78l-52 67l158 121h4z" />
    <glyph glyph-name="uniF7EB" unicode="&#xf7eb;" horiz-adv-x="498" 
d="M78 0v525h359v-115h-237v-88h213v-115h-213v-92h246v-115h-368zM110 645q0 27 18.5 43.5t46.5 16.5q22 0 40 -17t18 -43q0 -28 -17.5 -45t-40.5 -17q-28 0 -46.5 16.5t-18.5 45.5zM289 645q0 27 19 43.5t45 16.5q24 0 42 -16.5t18 -43.5q0 -29 -18 -45.5t-42 -16.5
q-27 0 -45.5 16.5t-18.5 45.5z" />
    <glyph glyph-name="uniF7EC" unicode="&#xf7ec;" horiz-adv-x="297" 
d="M87 0v525h123v-525h-123zM174 570l-148 118l70 88l134 -142z" />
    <glyph glyph-name="uniF7ED" unicode="&#xf7ed;" horiz-adv-x="297" 
d="M87 0v525h123v-525h-123zM288 688l-149 -118l-55 64l133 142z" />
    <glyph glyph-name="uniF7EE" unicode="&#xf7ee;" horiz-adv-x="297" 
d="M87 0v525h123v-525h-123zM152 749l157 -122l-54 -68l-106 80l-107 -78l-52 67l158 121h4z" />
    <glyph glyph-name="uniF7EF" unicode="&#xf7ef;" horiz-adv-x="297" 
d="M87 0v525h123v-525h-123zM-2 645q0 27 18.5 43.5t46.5 16.5q22 0 40 -17t18 -43q0 -28 -17.5 -45t-40.5 -17q-28 0 -46.5 16.5t-18.5 45.5zM177 645q0 27 19 43.5t45 16.5q24 0 42 -16.5t18 -43.5q0 -29 -18 -45.5t-42 -16.5q-27 0 -45.5 16.5t-18.5 45.5z" />
    <glyph glyph-name="uniF7F0" unicode="&#xf7f0;" horiz-adv-x="625" 
d="M9 212v107h71v206h12q13 0 83 1t102 1q155 0 234 -73.5t79 -187.5t-83.5 -191t-228.5 -77q-28 0 -92.5 1t-91.5 1h-14v212h-71zM280 412q-51 0 -78 -4v-89h142v-107h-142v-97q44 -2 66 -2q91 0 141.5 40t50.5 113q0 71 -48 108.5t-132 37.5z" />
    <glyph glyph-name="uniF7F1" unicode="&#xf7f1;" horiz-adv-x="663" 
d="M585 0h-98l-294 326v-326h-115v525h98l294 -327v327h115v-525zM199 586l-47 52q54 68 121 68q24 0 59.5 -20.5t55.5 -20.5q14 0 26 4.5t19 9t24 17.5l39 -58q-60 -66 -117 -66q-22 0 -58 21t-59 21q-20 0 -63 -28z" />
    <glyph glyph-name="uniF7F2" unicode="&#xf7f2;" horiz-adv-x="659" 
d="M35 261q0 116 82 193.5t212 77.5t212.5 -74t82.5 -197q0 -119 -83.5 -195.5t-211.5 -76.5q-129 0 -211.5 74t-82.5 198zM165 261q0 -67 47.5 -112t116.5 -45q78 0 121.5 44t43.5 113q0 70 -47 113t-118 43q-72 0 -118 -43t-46 -113zM344 570l-148 118l70 88l134 -142z
" />
    <glyph glyph-name="uniF7F3" unicode="&#xf7f3;" horiz-adv-x="659" 
d="M35 261q0 116 82 193.5t212 77.5t212.5 -74t82.5 -197q0 -119 -83.5 -195.5t-211.5 -76.5q-129 0 -211.5 74t-82.5 198zM165 261q0 -67 47.5 -112t116.5 -45q78 0 121.5 44t43.5 113q0 70 -47 113t-118 43q-72 0 -118 -43t-46 -113zM463 688l-149 -118l-55 64l133 142z
" />
    <glyph glyph-name="uniF7F4" unicode="&#xf7f4;" horiz-adv-x="659" 
d="M35 261q0 116 82 193.5t212 77.5t212.5 -74t82.5 -197q0 -119 -83.5 -195.5t-211.5 -76.5q-129 0 -211.5 74t-82.5 198zM165 261q0 -67 47.5 -112t116.5 -45q78 0 121.5 44t43.5 113q0 70 -47 113t-118 43q-72 0 -118 -43t-46 -113zM332 749l157 -122l-54 -68l-106 80
l-107 -78l-52 67l158 121h4z" />
    <glyph glyph-name="uniF7F5" unicode="&#xf7f5;" horiz-adv-x="659" 
d="M35 261q0 116 82 193.5t212 77.5t212.5 -74t82.5 -197q0 -119 -83.5 -195.5t-211.5 -76.5q-129 0 -211.5 74t-82.5 198zM165 261q0 -67 47.5 -112t116.5 -45q78 0 121.5 44t43.5 113q0 70 -47 113t-118 43q-72 0 -118 -43t-46 -113zM205 586l-47 52q54 68 121 68
q24 0 59.5 -20.5t55.5 -20.5q14 0 26 4.5t19 9t24 17.5l39 -58q-60 -66 -117 -66q-22 0 -58 21t-59 21q-20 0 -63 -28z" />
    <glyph glyph-name="uniF7F6" unicode="&#xf7f6;" horiz-adv-x="659" 
d="M35 261q0 116 82 193.5t212 77.5t212.5 -74t82.5 -197q0 -119 -83.5 -195.5t-211.5 -76.5q-129 0 -211.5 74t-82.5 198zM165 261q0 -67 47.5 -112t116.5 -45q78 0 121.5 44t43.5 113q0 70 -47 113t-118 43q-72 0 -118 -43t-46 -113zM178 645q0 27 18.5 43.5t46.5 16.5
q22 0 40 -17t18 -43q0 -28 -17.5 -45t-40.5 -17q-28 0 -46.5 16.5t-18.5 45.5zM357 645q0 27 19 43.5t45 16.5q24 0 42 -16.5t18 -43.5q0 -29 -18 -45.5t-42 -16.5q-27 0 -45.5 16.5t-18.5 45.5z" />
    <glyph glyph-name="uniF7F8" unicode="&#xf7f8;" horiz-adv-x="659" 
d="M35 261q0 116 82 193.5t212 77.5q97 0 172 -44l50 49l66 -68l-45 -44q52 -69 52 -164q0 -119 -83.5 -195.5t-211.5 -76.5q-92 0 -164 39l-48 -47l-66 68l41 40q-57 71 -57 172zM165 261q0 -45 21 -80l224 218q-36 18 -81 18q-72 0 -118 -43t-46 -113zM494 261
q0 40 -17 72l-219 -215q33 -14 71 -14q78 0 121.5 44t43.5 113z" />
    <glyph glyph-name="uniF7F9" unicode="&#xf7f9;" horiz-adv-x="629" 
d="M560 525v-309q0 -113 -68 -169.5t-170 -56.5q-115 0 -184 59.5t-69 171.5v304h123v-277q0 -65 31 -104t99 -39q115 0 115 136v284h123zM324 570l-148 118l70 88l134 -142z" />
    <glyph glyph-name="uniF7FA" unicode="&#xf7fa;" horiz-adv-x="629" 
d="M560 525v-309q0 -113 -68 -169.5t-170 -56.5q-115 0 -184 59.5t-69 171.5v304h123v-277q0 -65 31 -104t99 -39q115 0 115 136v284h123zM448 688l-149 -118l-55 64l133 142z" />
    <glyph glyph-name="uniF7FB" unicode="&#xf7fb;" horiz-adv-x="629" 
d="M560 525v-309q0 -113 -68 -169.5t-170 -56.5q-115 0 -184 59.5t-69 171.5v304h123v-277q0 -65 31 -104t99 -39q115 0 115 136v284h123zM317 749l157 -122l-54 -68l-106 80l-107 -78l-52 67l158 121h4z" />
    <glyph glyph-name="uniF7FC" unicode="&#xf7fc;" horiz-adv-x="629" 
d="M560 525v-309q0 -113 -68 -169.5t-170 -56.5q-115 0 -184 59.5t-69 171.5v304h123v-277q0 -65 31 -104t99 -39q115 0 115 136v284h123zM163 645q0 27 18.5 43.5t46.5 16.5q22 0 40 -17t18 -43q0 -28 -17.5 -45t-40.5 -17q-28 0 -46.5 16.5t-18.5 45.5zM342 645
q0 27 19 43.5t45 16.5q24 0 42 -16.5t18 -43.5q0 -29 -18 -45.5t-42 -16.5q-27 0 -45.5 16.5t-18.5 45.5z" />
    <glyph glyph-name="uniF7FD" unicode="&#xf7fd;" horiz-adv-x="540" 
d="M538 525l-208 -312v-213h-122v213l-206 312h148l124 -197l125 197h139zM395 688l-149 -118l-55 64l133 142z" />
    <glyph glyph-name="uniF7FE" unicode="&#xf7fe;" horiz-adv-x="521" 
d="M200 0h-122v525h122v-60q2 0 27.5 0.5t40.5 0.5q112 0 165 -55.5t53 -133.5q0 -77 -56 -134.5t-157 -57.5q-42 0 -73 4v-89zM264 351q-50 0 -64 -2v-145q28 -4 60 -4q46 0 71 22t25 56q0 31 -22.5 52t-69.5 21z" />
    <glyph glyph-name="uniF7FF" unicode="&#xf7ff;" horiz-adv-x="540" 
d="M538 525l-208 -312v-213h-122v213l-206 312h148l124 -197l125 197h139zM119 645q0 27 18.5 43.5t46.5 16.5q22 0 40 -17t18 -43q0 -28 -17.5 -45t-40.5 -17q-28 0 -46.5 16.5t-18.5 45.5zM298 645q0 27 19 43.5t45 16.5q24 0 42 -16.5t18 -43.5q0 -29 -18 -45.5
t-42 -16.5q-27 0 -45.5 16.5t-18.5 45.5z" />
    </font>
</defs>
</svg>
